<?xml version="1.0" encoding="UTF-8"?>
<svg width="224px" height="313px" viewBox="0 0 224 313" version="1.1" xmlns="http://www.w3.org/2000/svg" xmlns:xlink="http://www.w3.org/1999/xlink">
    <!-- Generator: Sketch 50.2 (55047) - http://www.bohemiancoding.com/sketch -->
    <title>g5468</title>
    <desc>Created with Sketch.</desc>
    <defs></defs>
    <g id="Page-1" stroke="none" stroke-width="1" fill="none" fill-rule="evenodd">
        <g id="Color_52_Faces_v.2.0" transform="translate(-1318.000000, -2417.000000)" fill-rule="nonzero">
            <g id="g5468" transform="translate(1317.997037, 2417.085110)">
                <rect id="rect6355-6-85-3-2-3-6" stroke="#000000" stroke-width="0.996733371" fill="#FFFFFF" x="0.658798142" y="0.630401261" width="222.231613" height="310.814282" rx="10.62995"></rect>
                <path d="M163.305739,33.6353673 C153.531267,33.8475677 149.148379,44.8525897 156.387359,53.3986068 C157.437256,54.6452093 157.545556,55.3605107 155.622761,54.1632083 C150.748975,50.9040018 141.403601,53.0465061 140.925003,63.010426 C140.333904,75.2874506 157.487856,78.8247576 160.708647,65.7701315 C160.878746,64.3928288 161.998243,64.4242288 161.728244,66.3793328 C161.434545,71.6857434 159.777349,76.6453533 157.499556,81.481863 C161.338645,81.481863 165.629133,81.481863 169.119723,81.481863 C166.84213,76.6453533 165.184834,71.6857434 164.891135,66.3793328 C164.621236,64.4242288 165.740633,64.3928288 165.910632,65.7701315 C169.131523,78.8247576 186.285475,75.2874506 185.694376,63.010426 C185.215878,53.0465061 175.870404,50.9040018 170.996518,54.1632083 C169.073823,55.3605107 169.182123,54.6452093 170.23202,53.3986068 C177.471,44.8525897 173.088112,33.8475677 163.313739,33.6353673 C163.313739,33.6352673 163.313739,33.6353673 163.303739,33.6353673 L163.305739,33.6353673 Z" id="path147-0-8-1-6-13-2-5-7-1" fill="#000000"></path>
                <path d="M60.2352301,33.6353673 C50.4607577,33.8475677 46.0778701,44.8525897 53.3168496,53.3986068 C54.3667467,54.6452093 54.4750464,55.3605107 52.5522518,54.1632083 C47.6784655,50.9040018 38.3330919,53.0465061 37.8545932,63.010426 C37.2633949,75.2874506 54.4173465,78.8247576 57.6381375,65.7701315 C57.808237,64.3928288 58.9276338,64.4242288 58.6577346,66.3793328 C58.3640354,71.6857434 56.7068401,76.6453533 54.4290465,81.481863 C58.2681357,81.481863 62.5586236,81.481863 66.0492137,81.481863 C63.7715202,76.6453533 62.1143248,71.6857434 61.8206257,66.3793328 C61.5507264,64.4242288 62.6701233,64.3928288 62.8401228,65.7701315 C66.0610137,78.8247576 83.2149653,75.2874506 82.623767,63.010426 C82.1453683,53.0465061 72.7998947,50.9040018 67.9260084,54.1632083 C66.0032139,55.3605107 66.1116136,54.6452093 67.1615106,53.3986068 C74.4004902,44.8525897 70.0176025,33.8475677 60.2432301,33.6353673 C60.2432301,33.6352673 60.2432301,33.6353673 60.2332301,33.6353673 L60.2352301,33.6353673 Z" id="path147-0-8-1-6-75-2-83-8-8-7" fill="#000000"></path>
                <path d="M163.305739,279.268859 C153.531267,279.056598 149.148379,268.051576 156.387359,259.505539 C157.437256,258.259007 157.545556,257.543665 155.622761,258.741017 C150.748975,262.000214 141.403701,259.85764 140.925003,249.89372 C140.334004,237.616745 157.487856,234.079418 160.708647,247.134044 C160.878746,248.511407 161.998243,248.479977 161.728244,246.524883 C161.434545,241.218452 159.777349,236.258803 157.499556,231.422323 C161.338645,231.422323 165.629133,231.422323 169.119723,231.422323 C166.84213,236.258803 165.184834,241.218452 164.891135,246.524883 C164.621236,248.479977 165.740633,248.511407 165.910632,247.134044 C169.131523,234.079418 186.285475,237.616745 185.694376,249.89372 C185.215878,259.85764 175.870404,262.000214 170.996518,258.741017 C169.073823,257.543665 169.182123,258.259007 170.23202,259.505539 C177.471,268.051576 173.088112,279.056588 163.313739,279.268859 C163.313739,279.268919 163.313739,279.268809 163.303739,279.268859 L163.305739,279.268859 Z" id="path147-0-8-1-6-7-5-5-7-8-7-8" fill="#000000"></path>
                <path d="M60.2352301,279.268859 C50.4607577,279.056598 46.0778701,268.051576 53.3168496,259.505539 C54.3667467,258.259007 54.4750464,257.543665 52.5522518,258.741017 C47.6784655,262.000214 38.3330919,259.85764 37.8545932,249.89372 C37.2633949,237.616745 54.4173465,234.079418 57.6381375,247.134044 C57.808237,248.511407 58.9276338,248.479977 58.6577346,246.524883 C58.3640354,241.218452 56.7068401,236.258803 54.4290465,231.422323 C58.2681357,231.422323 62.5586236,231.422323 66.0492137,231.422323 C63.7715202,236.258803 62.1143248,241.218452 61.8206257,246.524883 C61.5507264,248.479977 62.6701233,248.511407 62.8401228,247.134044 C66.0610137,234.079418 83.2149653,237.616745 82.623767,249.89372 C82.1453683,259.85764 72.7998947,262.000214 67.9260084,258.741017 C66.0032139,257.543665 66.1116136,258.259007 67.1615106,259.505539 C74.4004902,268.051576 70.0176025,279.056588 60.2432301,279.268859 C60.2432301,279.268919 60.2432301,279.268809 60.2332301,279.268859 L60.2352301,279.268859 Z" id="path147-0-8-1-6-75-6-1-2-0-6-8" fill="#000000"></path>
                <path d="M163.305739,132.528825 C153.531267,132.741085 149.148379,143.746107 156.387359,152.292145 C157.437256,153.538677 157.545556,154.254029 155.622761,153.056676 C150.748975,149.79748 141.403601,151.940044 140.925003,161.903974 C140.334004,174.180938 157.487856,177.718265 160.708647,164.663639 C160.878746,163.286277 161.998143,163.317707 161.728244,165.272811 C161.434545,170.579231 159.777349,175.538881 157.499556,180.375361 C161.338645,180.375361 165.629133,180.375361 169.119723,180.375361 C166.84213,175.538881 165.184834,170.579231 164.891135,165.272811 C164.621236,163.317707 165.740633,163.286277 165.910632,164.663639 C169.131523,177.718265 186.285475,174.180938 185.694376,161.903974 C185.215878,151.940044 175.870404,149.79748 170.996518,153.056676 C169.073823,154.254029 169.182123,153.538677 170.23202,152.292145 C177.471,143.746107 173.088112,132.741095 163.313739,132.528825 C163.313739,132.528765 163.313739,132.528875 163.303739,132.528825 L163.305739,132.528825 Z" id="path147-0-8-1-6-7-5-7-3-0-9-6-4" fill="#000000"></path>
                <path d="M60.2352301,132.528825 C50.4607577,132.741085 46.0778701,143.746107 53.3168496,152.292145 C54.3667467,153.538677 54.4750464,154.254029 52.5522518,153.056676 C47.6784655,149.79748 38.3330919,151.940044 37.8545932,161.903974 C37.2633949,174.180938 54.4173465,177.718265 57.6381375,164.663639 C57.808237,163.286277 58.9276338,163.317707 58.6577346,165.272811 C58.3640354,170.579231 56.7068401,175.538881 54.4290465,180.375361 C58.2681357,180.375361 62.5586236,180.375361 66.0492137,180.375361 C63.7715202,175.538881 62.1143248,170.579231 61.8206257,165.272811 C61.5507264,163.317707 62.6701233,163.286277 62.8401228,164.663639 C66.0610137,177.718265 83.2149653,174.180938 82.623767,161.903974 C82.1453683,151.940044 72.7998947,149.79748 67.9260084,153.056676 C66.0032139,154.254029 66.1116136,153.538677 67.1615106,152.292145 C74.4004902,143.746107 70.0176025,132.741095 60.2432301,132.528825 C60.2432301,132.528765 60.2432301,132.528875 60.2332301,132.528825 L60.2352301,132.528825 Z" id="path147-0-8-1-6-75-6-6-5-3-0-0-2" fill="#000000"></path>
                <path d="M205.75232,261.631343 C209.662009,261.542943 211.415304,256.957474 208.519612,253.396637 C208.099613,252.877236 208.056313,252.579175 208.825511,253.078076 C210.775006,254.436079 214.513195,253.543327 214.704595,249.391699 C214.941094,244.276289 208.079413,242.802406 206.791117,248.241836 C206.723117,248.815738 206.275318,248.802648 206.383318,247.988016 C206.500818,245.777012 207.163616,243.710487 208.074713,241.695283 C206.525518,241.695283 204.976122,241.695283 203.426926,241.695283 C204.338024,243.710487 205.000822,245.777012 205.118322,247.988016 C205.226321,248.802648 204.778523,248.815738 204.710523,248.241836 C203.422226,242.802406 196.560646,244.276289 196.797045,249.391699 C196.988444,253.543327 200.726634,254.436079 202.676128,253.078076 C203.445326,252.579175 203.402026,252.877236 202.982028,253.396637 C200.086336,256.957474 201.839631,261.542883 205.74932,261.631343 C205.75032,261.631363 205.74932,261.631323 205.74932,261.631343 L205.75232,261.631343 Z" id="path147-6-9-8-7-0-5-6-4-2-8" fill="#000000"></path>
                <path d="M17.7978498,50.4440009 C13.8880608,50.5320011 12.1347658,55.1178102 15.0304576,58.6787174 C15.4504564,59.1981184 15.4937563,59.496119 14.7245585,58.997218 C12.775064,57.6392153 9.03687452,58.5320171 8.84547506,62.6836254 C8.60907572,67.7990356 15.4706564,69.2729385 16.7589527,63.8335277 C16.8269525,63.2596265 17.2747513,63.2727265 17.1667516,64.0873282 C17.0492519,66.2983326 16.3864538,68.3648367 15.4753564,70.3800408 C17.024552,70.3800408 18.5739476,70.3800408 20.1231433,70.3800408 C19.2120458,68.3648367 18.5492477,66.2983326 18.431748,64.0873282 C18.3237483,63.2727265 18.7715471,63.2596265 18.8395469,63.8335277 C20.1278432,69.2729385 26.9895239,67.7990356 26.7530246,62.6836254 C26.5616251,58.5320171 22.8234356,57.6392153 20.8739411,58.997218 C20.1047433,59.496119 20.1480432,59.1981184 20.568042,58.6787174 C23.4637338,55.1178102 21.7104388,50.5324011 17.8008498,50.4440009 C17.7998498,50.4440009 17.8008498,50.4440009 17.8008498,50.4440009 L17.7978498,50.4440009 Z" id="path147-6-9-8-7-4-5-62-0-2-9" fill="#000000"></path>
                <path d="M8.15017702,37.1983744 C7.74567816,34.4298689 7.75587813,27.2727545 8.0861772,25.1555503 C9.10627432,18.6694373 11.5803673,15.7012314 15.7247557,14.7326295 C19.7502443,13.7889276 25.4050284,14.8397297 26.6453249,20.2606405 L23.2803343,20.3256407 C21.4602395,16.6603333 16.8549525,17.6393353 14.2605598,19.2344385 C12.1909656,20.504441 11.2551683,25.8079516 11.6558671,26.1342523 C11.6558671,26.1342523 15.5699561,23.2312465 18.6559474,23.4453469 C25.2501288,24.1332483 27.9700211,29.8596597 27.7396218,35.2662705 C27.5297224,41.7705835 25.4702282,46.9722939 18.4805479,47.3181946 C11.8350666,47.0609941 8.79007521,43.4335869 8.15017702,37.1980744 L8.15017702,37.1983744 Z M24.5397308,35.480571 C24.5757307,30.9681619 22.5302365,27.5860552 18.6559474,27.2153544 C14.7853583,26.8420537 10.8801693,30.6248612 11.1502686,35.2247704 C11.4203678,39.8442797 13.2058628,43.7301875 17.9007495,43.7092874 C22.9500353,43.6892874 24.5154309,38.6929774 24.5397308,35.480571 Z" id="path23-8-1-4" fill="#000000"></path>
                <path d="M215.396993,274.87666 C215.801491,277.645275 215.791191,284.80233 215.460992,286.919534 C214.440895,293.405637 211.966802,296.373813 207.822414,297.342415 C203.796925,298.286187 198.142141,297.235354 196.901845,291.814444 L200.266835,291.749643 C202.08693,295.414891 206.692117,294.435929 209.28661,292.840846 C211.356204,291.570823 212.291901,286.267333 211.891302,285.940972 C211.891302,285.940972 207.977214,288.843968 204.891222,288.629947 C198.297041,287.942056 195.577148,282.215624 195.807548,276.809064 C196.017447,270.304621 198.076841,265.103 205.066622,264.75711 C211.712103,265.01428 214.757094,268.641747 215.396993,274.87716 L215.396993,274.87666 Z M199.007439,276.594453 C198.971439,281.106972 201.016933,284.489029 204.891222,284.85974 C208.761811,285.23304 212.6669,281.450273 212.396901,276.850324 C212.126802,272.230844 210.341307,268.344907 205.64642,268.365837 C200.597034,268.385737 199.031739,273.382147 199.007439,276.594453 Z" id="path23-6-8-9-6" fill="#000000"></path>
            </g>
        </g>
    </g>
</svg>