<?xml version="1.0" encoding="UTF-8"?>
<svg width="225px" height="313px" viewBox="0 0 225 313" version="1.1" xmlns="http://www.w3.org/2000/svg" xmlns:xlink="http://www.w3.org/1999/xlink">
    <!-- Generator: Sketch 50.2 (55047) - http://www.bohemiancoding.com/sketch -->
    <title>g5455</title>
    <desc>Created with Sketch.</desc>
    <defs></defs>
    <g id="Page-1" stroke="none" stroke-width="1" fill="none" fill-rule="evenodd">
        <g id="Color_52_Faces_v.2.0" transform="translate(-1054.000000, -2417.000000)" fill-rule="nonzero">
            <g id="g5455" transform="translate(1054.993361, 2417.085406)">
                <g id="layer1-33-1-41-1-2-6" transform="translate(0.002712, 0.355696)" fill="#FFFFFF" stroke="#000000" stroke-width="0.99673417">
                    <rect id="rect6355-6-85-3-7-9-4" x="0.431107663" y="0.274688545" width="222.232247" height="310.813662" rx="10.677567"></rect>
                </g>
                <path d="M163.0812,33.6352 C153.3067,33.8475 148.9238,44.8525 156.1628,53.3985 C157.2127,54.645 157.321,55.3604 155.3982,54.163 C150.5244,50.9038 141.179,53.0464 140.7004,63.0103 C140.1093,75.2872 157.2633,78.8246 160.4841,65.77 C160.6542,64.3926 161.7736,64.424 161.5037,66.3791 C161.21,71.6855 159.5528,76.6452 157.275,81.4816 C161.1141,81.4816 165.4046,81.4816 168.8952,81.4816 C166.6175,76.6452 164.9603,71.6855 164.6666,66.3791 C164.3967,64.424 165.5161,64.3926 165.6861,65.77 C168.907,78.8246 186.061,75.2872 185.4698,63.0103 C184.9914,53.0464 175.6459,50.9038 170.772,54.163 C168.8492,55.3604 168.9576,54.645 170.0075,53.3985 C177.2465,44.8525 172.8636,33.8475 163.0892,33.6352 C163.0892,33.6351 163.0892,33.6352 163.0792,33.6352 L163.0812,33.6352 Z" id="path147-0-8-1-6-13-2-8-2-5" fill="#000000"></path>
                <path d="M60.0104,33.6352 C50.2359,33.8475 45.8529,44.8525 53.092,53.3985 C54.1419,54.645 54.2502,55.3604 52.3274,54.163 C47.4536,50.9038 38.1082,53.0464 37.6296,63.0103 C37.0385,75.2872 54.1925,78.8246 57.4133,65.77 C57.5834,64.3926 58.7027,64.424 58.4329,66.3791 C58.1392,71.6855 56.482,76.6452 54.2042,81.4816 C58.0433,81.4816 62.3338,81.4816 65.8244,81.4816 C63.5467,76.6452 61.8895,71.6855 61.5958,66.3791 C61.3259,64.424 62.4453,64.3926 62.6153,65.77 C65.8362,78.8246 82.9902,75.2872 82.399,63.0103 C81.9206,53.0464 72.5751,50.9038 67.7012,54.163 C65.7784,55.3604 65.8867,54.645 66.9366,53.3985 C74.1757,44.8525 69.7927,33.8475 60.0184,33.6352 C60.0184,33.6351 60.0184,33.6352 60.0084,33.6352 L60.0104,33.6352 Z" id="path147-0-8-1-6-75-2-83-7-6-4" fill="#000000"></path>
                <path d="M163.0812,279.26825 C153.3067,279.05599 148.9238,268.05098 156.1628,259.50497 C157.2127,258.25844 157.321,257.54309 155.3982,258.74044 C150.5244,261.99963 141.179,259.85707 140.7004,249.89316 C140.1093,237.61621 157.2633,234.0789 160.4841,247.13349 C160.6542,248.51085 161.7736,248.47943 161.5037,246.52433 C161.21,241.21792 159.5528,236.25827 157.275,231.4218 C161.1141,231.4218 165.4046,231.4218 168.8952,231.4218 C166.6175,236.25827 164.9603,241.21792 164.6666,246.52433 C164.3967,248.47943 165.5161,248.51085 165.6861,247.13349 C168.907,234.0789 186.061,237.61621 185.4698,249.89316 C184.9914,259.85707 175.6459,261.99963 170.772,258.74044 C168.8492,257.54309 168.9576,258.25844 170.0075,259.50497 C177.2465,268.05098 172.8636,279.05598 163.0892,279.26825 C163.0892,279.26831 163.0892,279.2682 163.0792,279.26825 L163.0812,279.26825 Z" id="path147-0-8-1-6-7-5-5-7-6-8-5" fill="#000000"></path>
                <path d="M60.0104,279.26825 C50.2359,279.05599 45.8529,268.05098 53.092,259.50497 C54.1419,258.25844 54.2502,257.54309 52.3274,258.74044 C47.4536,261.99963 38.1082,259.85707 37.6296,249.89316 C37.0385,237.61621 54.1925,234.0789 57.4133,247.13349 C57.5834,248.51085 58.7027,248.47943 58.4329,246.52433 C58.1392,241.21792 56.482,236.25827 54.2042,231.4218 C58.0433,231.4218 62.3338,231.4218 65.8244,231.4218 C63.5467,236.25827 61.8895,241.21792 61.5958,246.52433 C61.3259,248.47943 62.4453,248.51085 62.6153,247.13349 C65.8362,234.0789 82.9902,237.61621 82.399,249.89316 C81.9206,259.85707 72.5751,261.99963 67.7012,258.74044 C65.7784,257.54309 65.8867,258.25844 66.9366,259.50497 C74.1757,268.05098 69.7927,279.05598 60.0184,279.26825 C60.0184,279.26831 60.0184,279.2682 60.0084,279.26825 L60.0104,279.26825 Z" id="path147-0-8-1-6-75-6-1-2-4-9-5" fill="#000000"></path>
                <path d="M111.5458,132.5285 C101.7713,132.74076 97.3884,143.74577 104.6274,152.29178 C105.6773,153.53831 105.7856,154.25366 103.8628,153.05631 C98.989,149.79712 89.6436,151.93968 89.165,161.90359 C88.5739,174.18053 105.7279,177.71785 108.9487,164.66326 C109.1188,163.2859 110.2381,163.31732 109.9683,165.27242 C109.6746,170.57883 108.0174,175.53848 105.7396,180.37495 C109.5787,180.37495 113.8692,180.37495 117.3598,180.37495 C115.0821,175.53848 113.4249,170.57883 113.1312,165.27242 C112.8613,163.31732 113.9807,163.2859 114.1507,164.66326 C117.3716,177.71785 134.5256,174.18053 133.9344,161.90359 C133.456,151.93968 124.1105,149.79712 119.2366,153.05631 C117.3138,154.25366 117.4222,153.53831 118.472,152.29178 C125.7111,143.74577 121.3281,132.74077 111.5538,132.5285 C111.5538,132.52844 111.5538,132.52855 111.5438,132.5285 L111.5458,132.5285 Z" id="path147-0-8-1-6-1-1-0-5-6-4-0" fill="#000000"></path>
                <path d="M205.5278,261.63076 C209.4375,261.54236 211.1908,256.9569 208.2951,253.39607 C207.8751,252.87668 207.8318,252.57861 208.601,253.07751 C210.5505,254.43551 214.2887,253.54277 214.4801,249.39114 C214.7166,244.27574 207.8549,242.80186 206.5666,248.24128 C206.4986,248.81519 206.0508,248.80209 206.1588,247.98746 C206.2763,245.77646 206.9391,243.70994 207.8502,241.69475 C206.301,241.69475 204.7516,241.69475 203.2024,241.69475 C204.1135,243.70994 204.7763,245.77646 204.8938,247.98746 C205.0018,248.80209 204.554,248.81519 204.486,248.24128 C203.1977,242.80186 196.3361,244.27574 196.5725,249.39114 C196.7639,253.54277 200.5021,254.43551 202.4516,253.07751 C203.2208,252.57861 203.1775,252.87668 202.7575,253.39607 C199.8618,256.9569 201.6151,261.54231 205.5248,261.63076 C205.5258,261.63078 205.5248,261.63074 205.5248,261.63076 L205.5278,261.63076 Z" id="path147-6-9-8-7-0-5-6-7-4-6" fill="#000000"></path>
                <path d="M17.5728,50.4438 C13.663,50.5318 11.9098,55.1177 14.8054,58.6785 C15.2254,59.1979 15.2687,59.496 14.4996,58.9971 C12.55,57.6391 8.8119,58.5318 8.6205,62.6835 C8.384,67.7988 15.2456,69.2727 16.534,63.8333 C16.602,63.2594 17.0498,63.2725 16.9417,64.0871 C16.8243,66.2981 16.1614,68.3647 15.2503,70.3798 C16.7996,70.3798 18.3489,70.3798 19.8982,70.3798 C18.9871,68.3647 18.3242,66.2981 18.2068,64.0871 C18.0988,63.2725 18.5465,63.2594 18.6145,63.8333 C19.9029,69.2727 26.7645,67.7988 26.5281,62.6835 C26.3366,58.5318 22.5985,57.6391 20.6489,58.9971 C19.8798,59.496 19.9231,59.1979 20.3431,58.6785 C23.2387,55.1177 21.4855,50.5323 17.5758,50.4438 C17.5748,50.4438 17.5758,50.4438 17.5758,50.4438 L17.5728,50.4438 Z" id="path147-6-9-8-7-4-5-62-2-3-8" fill="#000000"></path>
                <path d="M7.2177,38.8028 L10.4381,38.7718 C11.0524,40.7572 12.4117,42.7753 14.2575,43.3353 C19.4719,44.5846 22.8267,41.6122 23.9313,38.1857 C25.2714,34.0294 23.9013,28.1931 20.3115,26.1215 C17.337,24.4037 12.9173,25.8526 10.8874,29.5272 L8.6321,28.12 L9.8429,14.4242 L24.5763,14.4242 L24.5763,17.6615 L12.637,17.6615 L12.4476,23.3672 C15.0178,21.5266 18.9677,21.5462 21.5364,22.8372 C26.4015,25.2039 28.6619,30.5846 27.7173,36.926 C26.4067,43.2335 23.5166,46.8076 16.9978,47.318 C9.7469,47.385 7.1869,42.3002 7.2177,38.8031 L7.2177,38.8028 Z" id="path21-39-8-1" fill="#000000"></path>
                <path d="M215.8799,273.27227 L212.6595,273.30317 C212.0451,271.31764 210.6858,269.29962 208.8401,268.73962 C203.6257,267.49033 200.2709,270.46269 199.1663,273.88919 C197.8262,278.04555 199.1963,283.88173 202.786,285.95338 C205.7606,287.67127 210.1803,286.22232 212.2102,282.54771 L214.4655,283.95489 L213.2547,297.65074 L198.5213,297.65074 L198.5213,294.41343 L210.4606,294.41343 L210.65,288.70764 C208.0798,290.54823 204.1299,290.5287 201.5611,289.23764 C196.696,286.87103 194.4357,281.4903 195.3802,275.14895 C196.6909,268.84139 199.581,265.26736 206.0998,264.7569 C213.3507,264.6901 215.9106,269.7747 215.8799,273.27177 L215.8799,273.27227 Z" id="path21-3-4-1-8" fill="#000000"></path>
            </g>
        </g>
    </g>
</svg>