<?xml version="1.0" encoding="UTF-8"?>
<svg width="224px" height="313px" viewBox="0 0 224 313" version="1.1" xmlns="http://www.w3.org/2000/svg" xmlns:xlink="http://www.w3.org/1999/xlink">
    <!-- Generator: Sketch 50.2 (55047) - http://www.bohemiancoding.com/sketch -->
    <title>g5431</title>
    <desc>Created with Sketch.</desc>
    <defs></defs>
    <g id="Page-1" stroke="none" stroke-width="1" fill="none" fill-rule="evenodd">
        <g id="Color_52_Faces_v.2.0" transform="translate(-528.000000, -2417.000000)" fill-rule="nonzero">
            <g id="g5431" transform="translate(527.986888, 2417.085306)">
                <g id="layer1-33-1-4-5-7" transform="translate(0.552492, 0.355796)" fill="#FFFFFF" stroke="#000000" stroke-width="0.99673417">
                    <rect id="rect6355-6-85-2-7-5" x="0.431107663" y="0.274688545" width="222.232247" height="310.813662" rx="10.677567"></rect>
                </g>
                <path d="M112.0956,33.6353 C102.3211,33.8476 97.9382,44.8526 105.1772,53.3986 C106.2271,54.6451 106.3354,55.3605 104.4126,54.1631 C99.5388,50.9039 90.1934,53.0465 89.7148,63.0104 C89.1237,75.2873 106.2777,78.8247 109.4985,65.7701 C109.6686,64.3927 110.7879,64.4241 110.5181,66.3792 C110.2244,71.6856 108.5672,76.6453 106.2894,81.4817 C110.1285,81.4817 114.419,81.4817 117.9096,81.4817 C115.6319,76.6453 113.9747,71.6856 113.681,66.3792 C113.4111,64.4241 114.5305,64.3927 114.7005,65.7701 C117.9214,78.8247 135.0754,75.2873 134.4842,63.0104 C134.0058,53.0465 124.6603,50.9039 119.7864,54.1631 C117.8636,55.3605 117.9719,54.6451 119.0219,53.3986 C126.2609,44.8526 121.878,33.8476 112.1036,33.6353 C112.1036,33.6352 112.1036,33.6353 112.0936,33.6353 L112.0956,33.6353 Z" id="path147-0-8-1-6-7-2-5-9-2" fill="#000000"></path>
                <path d="M112.0956,279.26835 C102.3211,279.05609 97.9382,268.05108 105.1772,259.50506 C106.2271,258.25853 106.3354,257.54319 104.4126,258.74054 C99.5388,261.99973 90.1934,259.85716 89.7148,249.89326 C89.1237,237.61631 106.2777,234.07899 109.4985,247.13359 C109.6686,248.51095 110.788,248.47952 110.5181,246.52443 C110.2244,241.21802 108.5672,236.25837 106.2894,231.4219 C110.1285,231.4219 114.419,231.4219 117.9096,231.4219 C115.632,236.25837 113.9747,241.21802 113.681,246.52443 C113.4111,248.47952 114.5305,248.51095 114.7005,247.13359 C117.9214,234.07899 135.0754,237.61631 134.4842,249.89326 C134.0058,259.85716 124.6603,261.99973 119.7864,258.74054 C117.8637,257.54319 117.972,258.25853 119.0219,259.50506 C126.2609,268.05108 121.878,279.05608 112.1036,279.26835 C112.1036,279.26841 112.1036,279.2683 112.0936,279.26835 L112.0956,279.26835 Z" id="path147-0-8-1-6-1-4-3-4-3" fill="#000000"></path>
                <path d="M112.0956,132.5286 C102.3211,132.74086 97.9382,143.74587 105.1772,152.29188 C106.2271,153.53841 106.3354,154.25376 104.4126,153.05641 C99.5388,149.79722 90.1934,151.93978 89.7148,161.90369 C89.1237,174.18063 106.2777,177.71795 109.4985,164.66335 C109.6686,163.28599 110.7879,163.31742 110.5181,165.27252 C110.2244,170.57893 108.5672,175.53858 106.2894,180.37505 C110.1285,180.37505 114.419,180.37505 117.9096,180.37505 C115.6319,175.53858 113.9747,170.57893 113.681,165.27252 C113.4111,163.31742 114.5305,163.28599 114.7005,164.66335 C117.9214,177.71795 135.0754,174.18063 134.4842,161.90369 C134.0058,151.93978 124.6603,149.79722 119.7864,153.05641 C117.8636,154.25376 117.972,153.53841 119.0219,152.29188 C126.2609,143.74587 121.878,132.74087 112.1036,132.5286 C112.1036,132.52854 112.1036,132.52865 112.0936,132.5286 L112.0956,132.5286 Z" id="path147-0-8-1-6-1-1-0-4-8-8" fill="#000000"></path>
                <path d="M206.0776,261.63086 C209.9873,261.54246 211.7406,256.957 208.845,253.39617 C208.4249,252.87677 208.3816,252.57871 209.1508,253.07761 C211.1003,254.43561 214.8385,253.54287 215.0299,249.39124 C215.2664,244.27584 208.4047,242.80196 207.1164,248.24138 C207.0484,248.81529 206.6006,248.80219 206.7086,247.98756 C206.8261,245.77656 207.4889,243.71004 208.4,241.69485 C206.8508,241.69485 205.3014,241.69485 203.7522,241.69485 C204.6633,243.71004 205.3261,245.77656 205.4436,247.98756 C205.5516,248.80219 205.1038,248.81529 205.0358,248.24138 C203.7475,242.80196 196.8859,244.27584 197.1223,249.39124 C197.3137,253.54287 201.0519,254.43561 203.0014,253.07761 C203.7706,252.57871 203.7273,252.87677 203.3073,253.39617 C200.4117,256.957 202.1649,261.54241 206.0746,261.63086 C206.0756,261.63088 206.0746,261.63084 206.0746,261.63086 L206.0776,261.63086 Z" id="path147-6-9-8-7-0-5-5-1-4" fill="#000000"></path>
                <path d="M18.1226,50.4439 C14.2128,50.5319 12.4596,55.1178 15.3552,58.6786 C15.7752,59.198 15.8185,59.4961 15.0494,58.9972 C13.0998,57.6392 9.3617,58.5319 9.1702,62.6835 C8.93381,67.7989 15.7954,69.2728 17.0838,63.8334 C17.1518,63.2595 17.5996,63.2726 17.4915,64.0872 C17.3741,66.2982 16.7112,68.3647 15.8001,70.3799 C17.3494,70.3799 18.8987,70.3799 20.448,70.3799 C19.5369,68.3647 18.874,66.2982 18.7566,64.0872 C18.6486,63.2726 19.0963,63.2595 19.1643,63.8334 C20.4527,69.2728 27.3143,67.7989 27.0779,62.6835 C26.8864,58.5319 23.1483,57.6392 21.1987,58.9972 C20.4296,59.4961 20.4729,59.198 20.8929,58.6786 C23.7885,55.1178 22.0353,50.5324 18.1256,50.4439 C18.1246,50.4439 18.1256,50.4439 18.1256,50.4439 L18.1226,50.4439 Z" id="path147-6-9-8-7-4-5-8-2-3" fill="#000000"></path>
                <path d="M7.46109,40.1079 L9.9903,38.2453 C12.1854,41.8242 14.6403,44.1814 18.3957,43.7768 C24.03,43.3892 26.3647,37.4753 25.1858,33.0193 C24.0455,29.0214 19.38,27.0741 15.6707,29.2055 C14.7952,29.7106 13.9505,30.123 13.7853,30.123 C13.3963,30.123 12.5156,28.3688 12.636,27.8337 C15.1254,24.1935 21.1706,17.8162 21.1706,17.8162 L11.7259,17.8162 L11.7259,22.0869 L8.10112,22.0869 L8.10112,14.424 L26.5605,14.424 L26.5605,17.024 C26.5605,17.024 21.6147,22.1599 19.9803,24.9727 C24.0057,25.1202 27.2504,27.6745 28.4152,31.7128 C29.0948,33.839 28.7902,38.7022 27.9006,40.7983 C26.4146,44.2924 22.3558,47.1273 18.6454,47.2904 C12.4158,47.7094 9.111,43.3396 7.46109,40.1079 Z" id="path17-9-7-6-4" fill="#000000"></path>
                <path d="M216.7369,271.96692 L214.2077,273.82944 C212.0126,270.25052 209.5577,267.89329 205.8023,268.29799 C200.168,268.68564 197.8334,274.59947 199.0122,279.05547 C200.1526,283.05334 204.8181,285.00069 208.5273,282.86933 C209.4028,282.36415 210.2475,281.95177 210.4127,281.95177 C210.8017,281.95177 211.6824,283.70595 211.562,284.24103 C209.0726,287.88135 203.0274,294.25858 203.0274,294.25858 L212.4721,294.25858 L212.4721,289.98789 L216.0969,289.98789 L216.0969,297.6508 L197.6375,297.6508 L197.6375,295.05084 C197.6375,295.05084 202.5833,289.91482 204.2177,287.10205 C200.1923,286.95462 196.9476,284.40032 195.7829,280.36198 C195.1032,278.2358 195.4078,273.3726 196.2974,271.27643 C197.7834,267.78244 201.8422,264.94744 205.5527,264.78436 C211.7822,264.36541 215.087,268.73519 216.7369,271.96692 Z" id="path17-5-0-1-5-7" fill="#000000"></path>
            </g>
        </g>
    </g>
</svg>