<?xml version="1.0" encoding="UTF-8"?>
<svg width="224px" height="313px" viewBox="0 0 224 313" version="1.1" xmlns="http://www.w3.org/2000/svg" xmlns:xlink="http://www.w3.org/1999/xlink">
    <!-- Generator: Sketch 50.2 (55047) - http://www.bohemiancoding.com/sketch -->
    <title>g5495</title>
    <desc>Created with Sketch.</desc>
    <defs></defs>
    <g id="Page-1" stroke="none" stroke-width="1" fill="none" fill-rule="evenodd">
        <g id="Color_52_Faces_v.2.0" transform="translate(-1844.000000, -2417.000000)" fill-rule="nonzero">
            <g id="g5495" transform="translate(1845.003656, 2417.085110)">
                <rect id="rect6355-6-85-3-3-4-3" stroke="#000000" stroke-width="0.996733371" fill="#FFFFFF" x="0.108899693" y="0.630401261" width="222.231613" height="310.814282" rx="10.62995"></rect>
                <path d="M162.755841,33.6353673 C152.981369,33.8475677 148.598481,44.8525897 155.837461,53.3987068 C156.887358,54.6452093 156.995657,55.3605107 155.072863,54.1632083 C150.199076,50.9040018 140.853703,53.0466061 140.375104,63.010526 C139.784006,75.2874506 156.937957,78.8247576 160.158848,65.7701315 C160.328848,64.3928288 161.448345,64.4242288 161.178345,66.3793328 C160.884646,71.6857434 159.227451,76.6453533 156.949657,81.481863 C160.788747,81.481863 165.079234,81.481863 168.569925,81.481863 C166.292231,76.6453533 164.634936,71.6857434 164.341237,66.3793328 C164.071337,64.4242288 165.190734,64.3928288 165.360734,65.7701315 C168.581625,78.8247576 185.735576,75.2874506 185.144478,63.010526 C184.665979,53.0466061 175.320506,50.9040018 170.446619,54.1632083 C168.523925,55.3605107 168.632224,54.6452093 169.682121,53.3987068 C176.921101,44.8525897 172.538213,33.8475677 162.763841,33.6353673 C162.763841,33.6352673 162.763841,33.6353673 162.753841,33.6353673 L162.755841,33.6353673 Z" id="path147-0-8-1-6-13-2-2-3-8" fill="#000000"></path>
                <path d="M59.6853317,33.6353673 C49.9108593,33.8475677 45.5279716,44.8525897 52.7669512,53.3987068 C53.8168482,54.6452093 53.9251479,55.3605107 52.0023534,54.1632083 C47.1285671,50.9040018 37.7832935,53.0466061 37.3045948,63.010526 C36.7135965,75.2874506 53.8674481,78.8247576 57.088239,65.7701315 C57.2583385,64.3928288 58.3777354,64.4242288 58.1078361,66.3793328 C57.814137,71.6857434 56.1569416,76.6453533 53.8791481,81.481863 C57.7182372,81.481863 62.0087251,81.481863 65.4993153,81.481863 C63.2217217,76.6453533 61.5644264,71.6857434 61.2707272,66.3793328 C61.000828,64.4242288 62.1202248,64.3928288 62.2902243,65.7701315 C65.5111153,78.8247576 82.6650669,75.2874506 82.0739686,63.010526 C81.5954699,53.0466061 72.2499963,50.9040018 67.37611,54.1632083 C65.4533154,55.3605107 65.5617151,54.6452093 66.6116122,53.3987068 C73.8505917,44.8525897 69.4677041,33.8475677 59.6933317,33.6353673 C59.6933317,33.6352673 59.6933317,33.6353673 59.6833317,33.6353673 L59.6853317,33.6353673 Z" id="path147-0-8-1-6-75-2-83-9-8-9" fill="#000000"></path>
                <path d="M162.755841,279.268869 C152.981369,279.056618 148.598481,268.051586 155.837461,259.505549 C156.887358,258.259017 156.995657,257.543675 155.072863,258.741027 C150.199076,262.000224 140.853803,259.85765 140.375104,249.89373 C139.784106,237.616755 156.937957,234.079428 160.158848,247.134054 C160.328848,248.511417 161.448345,248.479987 161.178345,246.524893 C160.884646,241.218462 159.227451,236.258813 156.949657,231.422333 C160.788747,231.422333 165.079234,231.422333 168.569925,231.422333 C166.292231,236.258813 164.634936,241.218462 164.341237,246.524893 C164.071337,248.479987 165.190734,248.511417 165.360734,247.134054 C168.581625,234.079428 185.735576,237.616755 185.144478,249.89373 C184.665979,259.85765 175.320506,262.000224 170.446619,258.741027 C168.523925,257.543675 168.632224,258.259017 169.682121,259.505549 C176.921101,268.051586 172.538213,279.056608 162.763841,279.268869 C162.763841,279.268929 162.763841,279.268819 162.753841,279.268869 L162.755841,279.268869 Z" id="path147-0-8-1-6-7-5-5-7-62-3-0" fill="#000000"></path>
                <path d="M59.6853317,279.268869 C49.9108593,279.056618 45.5279716,268.051586 52.7669512,259.505549 C53.8168482,258.259017 53.9251479,257.543675 52.0023534,258.741027 C47.1285671,262.000224 37.7832935,259.85765 37.3045948,249.89373 C36.7135965,237.616755 53.8674481,234.079428 57.088239,247.134054 C57.2583385,248.511417 58.3777354,248.479987 58.1078361,246.524893 C57.814137,241.218462 56.1569416,236.258813 53.8791481,231.422333 C57.7182372,231.422333 62.0087251,231.422333 65.4993153,231.422333 C63.2217217,236.258813 61.5644264,241.218462 61.2707272,246.524893 C61.000828,248.479987 62.1202248,248.511417 62.2902243,247.134054 C65.5111153,234.079428 82.6650669,237.616755 82.0739686,249.89373 C81.5954699,259.85765 72.2499963,262.000224 67.37611,258.741027 C65.4533154,257.543675 65.5617151,258.259017 66.6116122,259.505549 C73.8505917,268.051586 69.4677041,279.056608 59.6933317,279.268869 C59.6933317,279.268929 59.6933317,279.268819 59.6833317,279.268869 L59.6853317,279.268869 Z" id="path147-0-8-1-6-75-6-1-2-41-4-5" fill="#000000"></path>
                <path d="M111.220786,83.0822662 C101.446314,83.2944666 97.0635263,94.2995286 104.302406,102.845556 C105.352303,104.092088 105.460703,104.80744 103.537808,103.610087 C98.6641218,100.350891 89.3187481,102.493455 88.8401495,112.457375 C88.2490511,124.734339 105.402903,128.271667 108.623694,115.21704 C108.793793,113.839678 109.91319,113.871108 109.643291,115.826212 C109.349592,121.132632 107.692396,126.092282 105.414603,130.928772 C109.253692,130.928772 113.54418,130.928772 117.03477,130.928772 C114.757076,126.092282 113.099881,121.132632 112.806182,115.826212 C112.536283,113.871108 113.655679,113.839678 113.825679,115.21704 C117.04657,128.271667 134.200522,124.734339 133.609323,112.457375 C133.130925,102.493455 123.785451,100.350891 118.911565,103.610087 C116.98877,104.80744 117.09717,104.092088 118.147067,102.845556 C125.386046,94.2995286 121.003059,83.2944666 111.228786,83.0822662 C111.228786,83.0821662 111.228786,83.0822662 111.218786,83.0822662 L111.220786,83.0822662 Z" id="path147-0-8-1-6-2-00-7-5-5-3" fill="#000000"></path>
                <path d="M162.755841,132.528835 C152.981369,132.741095 148.598481,143.746127 155.837461,152.292155 C156.887358,153.538687 156.995657,154.254039 155.072863,153.056686 C150.199076,149.79749 140.853703,151.940054 140.375104,161.903984 C139.784106,174.180948 156.937957,177.718275 160.158848,164.663649 C160.328848,163.286287 161.448245,163.317717 161.178345,165.272821 C160.884646,170.579241 159.227451,175.538891 156.949657,180.375381 C160.788747,180.375381 165.079234,180.375381 168.569925,180.375381 C166.292231,175.538891 164.634936,170.579241 164.341237,165.272821 C164.071337,163.317717 165.190734,163.286287 165.360734,164.663649 C168.581625,177.718275 185.735576,174.180948 185.144478,161.903984 C184.665979,151.940054 175.320506,149.79749 170.446619,153.056686 C168.523925,154.254039 168.632224,153.538687 169.682121,152.292155 C176.921101,143.746127 172.538213,132.741105 162.763841,132.528835 C162.763841,132.528775 162.763841,132.528885 162.753841,132.528835 L162.755841,132.528835 Z" id="path147-0-8-1-6-7-5-7-3-0-4-4-6" fill="#000000"></path>
                <path d="M59.6853317,132.528835 C49.9108593,132.741095 45.5279716,143.746127 52.7669512,152.292155 C53.8168482,153.538687 53.9251479,154.254039 52.0023534,153.056686 C47.1285671,149.79749 37.7832935,151.940054 37.3046948,161.903984 C36.7135965,174.180948 53.8674481,177.718275 57.088239,164.663649 C57.2583385,163.286287 58.3777354,163.317717 58.1078361,165.272821 C57.814137,170.579241 56.1569416,175.538891 53.8791481,180.375381 C57.7182372,180.375381 62.0087251,180.375381 65.4993153,180.375381 C63.2217217,175.538891 61.5644264,170.579241 61.2707272,165.272821 C61.000828,163.317717 62.1202248,163.286287 62.2902243,164.663649 C65.5111153,177.718275 82.6650669,174.180948 82.0739686,161.903984 C81.5954699,151.940054 72.2499963,149.79749 67.37611,153.056686 C65.4533154,154.254039 65.5617151,153.538687 66.6116122,152.292155 C73.8505917,143.746127 69.4677041,132.741105 59.6933317,132.528835 C59.6933317,132.528775 59.6933317,132.528885 59.6833317,132.528835 L59.6853317,132.528835 Z" id="path147-0-8-1-6-75-6-6-5-3-2-4-8" fill="#000000"></path>
                <path d="M111.220786,229.82211 C101.446414,229.609859 97.0634263,218.604837 104.302506,210.0588 C105.352403,208.812268 105.460703,208.096926 103.537908,209.294279 C98.6640218,212.553475 89.3186481,210.410901 88.8400495,200.446981 C88.2489511,188.169996 105.403003,184.632669 108.623694,197.687305 C108.793893,199.064668 109.91319,199.033238 109.643291,197.078144 C109.349592,191.771714 107.692496,186.812054 105.414703,181.975574 C109.253692,181.975574 113.54428,181.975574 117.03477,181.975574 C114.757076,186.812054 113.099881,191.771714 112.806182,197.078144 C112.536383,199.033238 113.655679,199.064668 113.825679,197.687305 C117.04657,184.632669 134.200522,188.169996 133.609323,200.446981 C133.130925,210.410901 123.785451,212.553475 118.911565,209.294279 C116.98877,208.096926 117.09717,208.812268 118.147067,210.0588 C125.386046,218.604837 121.003159,229.609849 111.228886,229.82211 C111.228886,229.82217 111.228886,229.82206 111.218886,229.82211 L111.220786,229.82211 Z" id="path147-0-8-1-6-2-0-8-6-42-9-6" fill="#000000"></path>
                <path d="M205.202421,261.631353 C209.11211,261.542953 210.865405,256.957484 207.969814,253.396647 C207.549715,252.877246 207.506415,252.579185 208.275613,253.078086 C210.225107,254.436089 213.963297,253.543347 214.154696,249.391709 C214.391195,244.276299 207.529515,242.802416 206.241218,248.241846 C206.173219,248.815758 205.72542,248.802658 205.83342,247.988026 C205.950919,245.777022 206.613717,243.710497 207.524815,241.695293 C205.975619,241.695293 204.426224,241.695293 202.877028,241.695293 C203.788125,243.710497 204.450923,245.777022 204.568423,247.988026 C204.676423,248.802658 204.228624,248.815758 204.160624,248.241846 C202.872328,242.802416 196.010747,244.276299 196.247147,249.391709 C196.438546,253.543347 200.176736,254.436089 202.12623,253.078086 C202.895428,252.579185 202.852128,252.877246 202.432129,253.396647 C199.536537,256.957484 201.289732,261.542903 205.199421,261.631353 C205.199421,261.631373 205.199421,261.631333 205.199421,261.631353 L205.202421,261.631353 Z" id="path147-6-9-8-7-0-5-6-1-6-9" fill="#000000"></path>
                <path d="M17.2479514,50.4440009 C13.3381624,50.5320011 11.5849673,55.1179102 14.4805592,58.6787174 C14.900558,59.1981184 14.9437579,59.496119 14.17476,58.997218 C12.2250655,57.6392153 8.48707607,58.5320171 8.29557661,62.6836254 C8.05917727,67.7990356 14.9207579,69.2729385 16.2090543,63.8335277 C16.2770541,63.2596265 16.7249528,63.2727265 16.6168531,64.0873282 C16.4993535,66.2983326 15.8365553,68.3648367 14.9254579,70.3800408 C16.4747535,70.3800408 18.0240492,70.3800408 19.5733448,70.3800408 C18.6622474,68.3648367 17.9993492,66.2983326 17.8818496,64.0873282 C17.7739499,63.2727265 18.2216486,63.2596265 18.2896484,63.8335277 C19.5779448,69.2729385 26.4396254,67.7990356 26.2031261,62.6836254 C26.0117266,58.5320171 22.2736372,57.6392153 20.3240427,58.997218 C19.5549449,59.496119 19.5982447,59.1981184 20.0181435,58.6787174 C22.9138354,55.1179102 21.1605403,50.5325011 17.2509514,50.4440009 C17.2509514,50.4440009 17.2509514,50.4440009 17.2509514,50.4440009 L17.2479514,50.4440009 Z" id="path147-6-9-8-7-4-5-62-4-0-0" fill="#000000"></path>
                <path d="M6.57608146,37.6831754 C6.73218102,33.2672665 8.32707652,31.6108632 11.4667677,29.3003586 C8.96187473,27.491255 7.90597771,24.8244496 8.1209771,22.5545451 C8.63677564,17.0578341 12.8759637,14.3101286 17.5017506,14.4276289 C22.1312376,14.5503291 26.1157264,18.2247364 26.4267255,22.2190444 C26.6968247,25.6911514 25.6664276,27.3672547 23.2063346,29.1933584 C26.1259263,31.6617633 27.9908211,33.2829666 27.9217213,37.6322753 C27.8527215,41.981584 24.1573319,47.1571943 17.71665,47.3150946 C11.2760682,47.4729949 6.41608191,42.0990842 6.57608146,37.6831754 Z M24.5555308,37.6991754 C24.83063,33.7009674 21.3005399,31.004262 17.3160512,30.9650619 C13.4365621,30.9230618 9.96657189,34.2387685 9.96657189,37.8284757 C9.96657189,41.6830834 14.4809592,43.7780876 17.3966509,43.7871876 C20.9409409,43.8031876 24.3160314,41.1412823 24.5555308,37.6991754 Z M23.2806343,23.3968468 C23.3566341,20.0330401 20.2560429,17.6195352 17.0562519,17.7161354 C14.2109599,17.8031356 11.2017684,19.97564 11.1966684,22.7898456 C11.1966684,26.3129526 14.6218588,28.0724561 17.5465505,28.1403563 C20.201143,28.2003564 23.2204345,25.9408519 23.2806343,23.3968468 Z" id="path27-3-3-2" fill="#000000"></path>
                <path d="M194.527651,274.392199 C194.683751,278.808138 196.278546,280.464531 199.418338,282.775016 C196.913445,284.584119 195.857448,287.250865 196.072547,289.520889 C196.588346,295.01756 200.827534,297.765246 205.453221,297.647725 C210.082808,297.525015 214.067196,293.850598 214.378195,289.85631 C214.648295,286.384143 213.617898,284.708119 211.157905,282.881976 C214.077496,280.413691 215.942291,278.792488 215.873191,274.443139 C215.804191,270.09379 212.108902,264.91818 205.66822,264.76029 C199.227538,264.602299 194.367552,269.97636 194.527651,274.392199 Z M212.507001,274.376299 C212.7822,278.374477 209.25211,281.071332 205.267621,281.110502 C201.388032,281.152402 197.918142,277.836706 197.918142,274.247118 C197.918142,270.392481 202.432529,268.297497 205.348221,268.288327 C208.892411,268.272427 212.267601,270.934242 212.507001,274.376299 Z M211.232104,288.678737 C211.308104,292.042444 208.207613,294.456009 205.007722,294.359419 C202.16253,294.271719 199.153338,292.099964 199.148238,289.285689 C199.148238,285.762592 202.573329,284.003028 205.49802,283.935148 C208.152613,283.875348 211.172004,286.134592 211.232104,288.678737 Z" id="path27-0-0-5-0" fill="#000000"></path>
            </g>
        </g>
    </g>
</svg>