<?xml version="1.0" encoding="UTF-8"?>
<svg width="224px" height="313px" viewBox="0 0 224 313" version="1.1" xmlns="http://www.w3.org/2000/svg" xmlns:xlink="http://www.w3.org/1999/xlink">
    <!-- Generator: Sketch 50.2 (55047) - http://www.bohemiancoding.com/sketch -->
    <title>g5444</title>
    <desc>Created with Sketch.</desc>
    <defs></defs>
    <g id="Page-1" stroke="none" stroke-width="1" fill="none" fill-rule="evenodd">
        <g id="Color_52_Faces_v.2.0" transform="translate(-791.000000, -2417.000000)" fill-rule="nonzero">
            <g id="g5444" transform="translate(791.990538, 2417.084988)">
                <rect id="rect6355-6-85-3-72-9" stroke="#000000" stroke-width="0.996733371" fill="#FFFFFF" x="0.208599412" y="0.630501261" width="222.231613" height="310.814282" rx="10.62995"></rect>
                <path d="M162.855541,33.6353673 C153.081068,33.8475677 148.698181,44.8525897 155.93716,53.3986068 C156.987057,54.6452093 157.095457,55.3605107 155.172662,54.1632083 C150.298776,50.9040018 140.953403,53.0465061 140.474904,63.010526 C139.883706,75.2874506 157.037657,78.8247576 160.258548,65.7701315 C160.428548,64.3928288 161.547944,64.4242288 161.278045,66.3793328 C160.984346,71.6857434 159.327251,76.6453533 157.049457,81.481863 C160.888546,81.481863 165.178934,81.481863 168.669624,81.481863 C166.391931,76.6453533 164.734635,71.6857434 164.440936,66.3793328 C164.171037,64.4242288 165.290434,64.3928288 165.460533,65.7701315 C168.681324,78.8247576 185.835276,75.2874506 185.244178,63.010526 C184.765679,53.0465061 175.420205,50.9040018 170.546419,54.1632083 C168.623624,55.3605107 168.731924,54.6452093 169.781821,53.3986068 C177.020801,44.8525897 172.637913,33.8475677 162.863541,33.6353673 C162.863541,33.6352673 162.863541,33.6353673 162.853541,33.6353673 L162.855541,33.6353673 Z" id="path147-0-8-1-6-13-2-06-7" fill="#000000"></path>
                <path d="M59.7850314,33.6353673 C50.010559,33.8475677 45.6276713,44.8525897 52.8666509,53.3986068 C53.916548,54.6452093 54.0248476,55.3605107 52.1021531,54.1632083 C47.2282668,50.9040018 37.8828932,53.0465061 37.4042945,63.010526 C36.8131962,75.2874506 53.9671478,78.8247576 57.1880387,65.7701315 C57.3580382,64.3928288 58.4774351,64.4242288 58.2075359,66.3793328 C57.9138367,71.6857434 56.2566414,76.6453533 53.9789478,81.481863 C57.817937,81.481863 62.1084249,81.481863 65.599115,81.481863 C63.3214214,76.6453533 61.6641261,71.6857434 61.3704269,66.3793328 C61.1005277,64.4242288 62.2199245,64.3928288 62.3900241,65.7701315 C65.610815,78.8247576 82.7647666,75.2874506 82.1736683,63.010526 C81.6951696,53.0465061 72.349696,50.9040018 67.4759097,54.1632083 C65.5531151,55.3605107 65.6614148,54.6452093 66.7113119,53.3986068 C73.9502915,44.8525897 69.5674038,33.8475677 59.7930314,33.6353673 C59.7930314,33.6352673 59.7930314,33.6353673 59.7830314,33.6353673 L59.7850314,33.6353673 Z" id="path147-0-8-1-6-75-2-83-35-3" fill="#000000"></path>
                <path d="M162.855541,279.268869 C153.081068,279.056608 148.698181,268.051576 155.93716,259.505549 C156.987057,258.259017 157.095457,257.543665 155.172662,258.741017 C150.298776,262.000214 140.953403,259.85765 140.474904,249.89372 C139.883706,237.616745 157.037657,234.079428 160.258548,247.134044 C160.428548,248.511407 161.547944,248.479987 161.278045,246.524883 C160.984346,241.218462 159.327251,236.258803 157.049457,231.422323 C160.888546,231.422323 165.178934,231.422323 168.669624,231.422323 C166.391931,236.258803 164.734635,241.218462 164.440936,246.524883 C164.171037,248.479987 165.290434,248.511407 165.460533,247.134044 C168.681324,234.079428 185.835276,237.616745 185.244178,249.89372 C184.765679,259.85765 175.420205,262.000214 170.546419,258.741017 C168.623624,257.543665 168.731924,258.259017 169.781821,259.505549 C177.020801,268.051576 172.637913,279.056598 162.863541,279.268869 C162.863541,279.268929 162.863541,279.268819 162.853541,279.268869 L162.855541,279.268869 Z" id="path147-0-8-1-6-7-5-5-7-77-6" fill="#000000"></path>
                <path d="M59.7850314,279.268869 C50.010559,279.056608 45.6276713,268.051576 52.8666509,259.505549 C53.916548,258.259017 54.0248476,257.543665 52.1021531,258.741017 C47.2282668,262.000214 37.8828932,259.85765 37.4042945,249.89372 C36.8131962,237.616745 53.9671478,234.079428 57.1880387,247.134044 C57.3580382,248.511407 58.4774351,248.479987 58.2075359,246.524883 C57.9138367,241.218462 56.2566414,236.258803 53.9789478,231.422323 C57.817937,231.422323 62.1084249,231.422323 65.599115,231.422323 C63.3214214,236.258803 61.6641261,241.218462 61.3704269,246.524883 C61.1005277,248.479987 62.2199245,248.511407 62.3900241,247.134044 C65.610815,234.079428 82.7647666,237.616745 82.1736683,249.89372 C81.6951696,259.85765 72.349696,262.000214 67.4759097,258.741017 C65.5531151,257.543665 65.6614148,258.259017 66.7113119,259.505549 C73.9502915,268.051576 69.5674038,279.056598 59.7930314,279.268869 C59.7930314,279.268929 59.7930314,279.268819 59.7830314,279.268869 L59.7850314,279.268869 Z" id="path147-0-8-1-6-75-6-1-2-08-0" fill="#000000"></path>
                <path d="M205.302021,261.631343 C209.21181,261.542943 210.965005,256.957474 208.069413,253.396637 C207.649414,252.877246 207.606115,252.579175 208.375212,253.078076 C210.324807,254.436079 214.062896,253.543337 214.254396,249.391699 C214.490795,244.276289 207.629214,242.802406 206.340818,248.241836 C206.272818,248.815748 205.82502,248.802648 205.933119,247.988016 C206.050519,245.777012 206.713417,243.710487 207.624514,241.695293 C206.075219,241.695293 204.525923,241.695293 202.976628,241.695293 C203.887725,243.710487 204.550623,245.777012 204.668023,247.988016 C204.776023,248.802648 204.328324,248.815748 204.260324,248.241836 C202.971928,242.802406 196.110347,244.276289 196.346746,249.391699 C196.538246,253.543337 200.276335,254.436079 202.22593,253.078076 C202.995028,252.579175 202.951728,252.877246 202.531729,253.396637 C199.636137,256.957474 201.389332,261.542893 205.299021,261.631343 C205.300021,261.631363 205.299021,261.631323 205.299021,261.631343 L205.302021,261.631343 Z" id="path147-6-9-8-7-0-5-6-17-9" fill="#000000"></path>
                <path d="M17.3476511,50.4440009 C13.4378621,50.5320011 11.684567,55.1178102 14.5802589,58.6787174 C15.0002577,59.1981184 15.0435576,59.496119 14.2743597,58.997218 C12.3248652,57.6392153 8.58667579,58.5320171 8.39527633,62.6836254 C8.15887699,67.7990356 15.0204576,69.2729385 16.308754,63.8335277 C16.3767538,63.2596265 16.8245526,63.2727265 16.7165529,64.0873282 C16.5990532,66.2983326 15.9362551,68.3648367 15.0251576,70.3800408 C16.5743533,70.3800408 18.1237489,70.3800408 19.6729445,70.3800408 C18.7618471,68.3648367 18.099049,66.2983326 17.9815493,64.0873282 C17.8735496,63.2727265 18.3213483,63.2596265 18.3893481,63.8335277 C19.6776445,69.2729385 26.5393252,67.7990356 26.3028258,62.6836254 C26.1114264,58.5320171 22.3732369,57.6392153 20.4237424,58.997218 C19.6545446,59.496119 19.6978445,59.1981184 20.1178433,58.6787174 C23.0135351,55.1178102 21.26024,50.5324011 17.3505511,50.4440009 C17.3495511,50.4440009 17.3505511,50.4440009 17.3505511,50.4440009 L17.3476511,50.4440009 Z" id="path147-6-9-8-7-4-5-62-79-3" fill="#000000"></path>
                <path d="M17.5780504,47.3145946 L17.5780504,44.4091888 L20.196743,44.4091888 L20.196743,39.6165792 L7.09777998,39.6165792 L7.09777998,36.2348725 L21.27194,14.4240288 L23.5873335,14.4360289 L23.5873335,36.2351725 L27.5974222,36.2351725 L27.5974222,39.6168792 L23.5873335,39.6168792 L23.5113337,44.4095888 L25.7063275,44.4095888 L25.7063275,47.3187946 L17.5775504,47.3187946 L17.5780504,47.3145946 Z M20.196743,22.4090448 L11.1975684,36.2361725 L20.196743,36.2361725 L20.196743,22.4090448 Z" id="path19-0-7-3" fill="#000000"></path>
                <path d="M205.068722,264.76084 L205.068722,267.666225 L202.449929,267.666225 L202.449929,272.458855 L215.548892,272.458855 L215.548892,275.840512 L201.374832,297.651465 L199.059339,297.639465 L199.059339,275.840272 L195.04935,275.840272 L195.04935,272.458615 L199.059339,272.458615 L199.135338,267.665985 L196.940245,267.665985 L196.940245,264.75672 L205.069122,264.75672 L205.068722,264.76084 Z M202.449929,289.666369 L211.449204,275.839212 L202.449929,275.839212 L202.449929,289.666369 Z" id="path19-4-4-9-1" fill="#000000"></path>
            </g>
        </g>
    </g>
</svg>