<?xml version="1.0" encoding="UTF-8"?>
<svg width="224px" height="313px" viewBox="0 0 224 313" version="1.1" xmlns="http://www.w3.org/2000/svg" xmlns:xlink="http://www.w3.org/1999/xlink">
    <!-- Generator: Sketch 50.2 (55047) - http://www.bohemiancoding.com/sketch -->
    <title>g5120</title>
    <desc>Created with Sketch.</desc>
    <defs></defs>
    <g id="Page-1" stroke="none" stroke-width="1" fill="none" fill-rule="evenodd">
        <g id="Color_52_Faces_v.2.0" transform="translate(-2.000000, -2417.000000)" fill-rule="nonzero">
            <g id="g5120" transform="translate(1.980699, 2417.084988)">
                <rect id="rect6355-6-85-9-3-2" stroke="#000000" stroke-width="0.996732031" fill="#FFFFFF" x="0.533418464" y="0.630501261" width="222.23161" height="310.814282" rx="10.629951"></rect>
                <path d="M111.645078,132.528815 C101.870627,132.741075 97.4876992,143.746107 104.726718,152.292145 C105.776625,153.538677 105.884935,154.254019 103.962151,153.056666 C99.0883146,149.79747 89.7429315,151.940044 89.2643829,161.903964 C88.6732346,174.180938 105.827185,177.718265 109.048036,164.663639 C109.218075,163.286277 110.337442,163.317707 110.067553,165.272801 C109.773884,170.579221 108.116729,175.538881 105.838945,180.375361 C109.678014,180.375361 113.968472,180.375361 117.459102,180.375361 C115.181428,175.538881 113.524163,170.579221 113.230484,165.272801 C112.960595,163.317707 114.079971,163.286277 114.250011,164.663639 C117.470862,177.718265 134.624812,174.180938 134.033664,161.903964 C133.555215,151.940044 124.209732,149.79747 119.335896,153.056666 C117.413122,154.254019 117.521432,153.538677 118.571329,152.292145 C125.810358,143.746107 121.42742,132.741085 111.653058,132.528815 C111.653058,132.528755 111.653058,132.528865 111.643058,132.528815 L111.645078,132.528815 Z" id="path147-0-8-1-6-1-1-0-9-1-8" fill="#000000"></path>
                <path d="M205.626778,261.631343 C209.536547,261.542943 211.289781,256.957464 208.39417,253.396627 C207.974151,252.877236 207.930841,252.579165 208.699999,253.078066 C210.649553,254.436069 214.387683,253.543327 214.579122,249.391689 C214.815561,244.276289 207.953941,242.802406 206.665615,248.241826 C206.597915,248.815738 206.149836,248.802638 206.257846,247.988016 C206.375326,245.777002 207.038154,243.710477 207.949261,241.695283 C206.400016,241.695283 204.85066,241.695283 203.301404,241.695283 C204.212522,243.710477 204.87535,245.777002 204.99282,247.988016 C205.100839,248.802638 204.653051,248.815738 204.585051,248.241826 C203.296735,242.802406 196.435104,244.276289 196.671544,249.391689 C196.862983,253.543327 200.601122,254.436069 202.550677,253.078066 C203.319824,252.579165 203.276525,252.877236 202.856506,253.396627 C199.960894,256.957464 201.714129,261.542883 205.623788,261.631343 C205.624788,261.631363 205.623788,261.631323 205.623788,261.631343 L205.626778,261.631343 Z" id="path147-6-9-8-7-0-5-0-8-3" fill="#000000"></path>
                <path d="M7.62540804,47.3184946 L7.62540804,44.505789 L10.3056803,44.505789 L16.0154739,14.4240288 L19.2652945,14.4240288 L25.5549764,44.505789 L27.7193702,44.505789 L27.7193702,47.3184946 L20.3442614,47.3184946 L20.3442614,44.505789 L22.3346357,44.505789 L21.539798,39.8958798 L14.0994694,39.8958798 L13.524741,44.505789 L15.5150153,44.505789 L15.5150153,47.3184946 L7.62540804,47.3184946 Z M20.9049398,36.6120732 L17.6704491,20.511341 L14.6408378,36.6120732 L20.9049398,36.6120732 Z" id="path41-6-3-5-1" fill="#000000"></path>
                <path d="M195.576907,264.75684 L195.576907,267.569505 L198.257179,267.569505 L203.966973,297.651345 L207.216793,297.651345 L213.506485,267.569505 L215.670879,267.569505 L215.670879,264.75684 L208.29576,264.75684 L208.29576,267.569505 L210.286134,267.569505 L209.491297,272.179404 L202.050968,272.179404 L201.47625,267.569505 L203.466514,267.569505 L203.466514,264.75684 L195.576907,264.75684 Z M208.856448,275.463241 L205.621948,291.563983 L202.592337,275.463241 L208.856448,275.463241 Z" id="path41-6-4-0-2-8" fill="#000000"></path>
                <path d="M17.6723791,50.4440009 C13.7626204,50.5320011 12.0093854,55.1178102 14.9049971,58.6787174 C15.3250059,59.1981184 15.3683157,59.496119 14.599168,58.997218 C12.6496136,57.6392153 8.91148433,58.5320171 8.72004489,62.6836254 C8.48360557,67.7990356 15.3452158,69.2729385 16.6335421,63.8335277 C16.7012419,63.2596265 17.1493306,63.2727265 17.0413109,64.0873282 C16.9238413,66.2983326 16.2610132,68.3648367 15.3498958,70.3800408 C16.8991513,70.3800408 18.4484969,70.3800408 19.9977524,70.3800408 C19.086635,68.3648367 18.4238069,66.2983326 18.3063373,64.0873282 C18.1983276,63.2727265 18.6461163,63.2596265 18.7141061,63.8335277 C20.0024324,69.2729385 26.8640526,67.7990356 26.6276133,62.6836254 C26.4361739,58.5320171 22.6980446,57.6392153 20.7484802,58.997218 C19.9793325,59.496119 20.0226423,59.1981184 20.4426611,58.6787174 C23.3382728,55.1178102 21.5850378,50.5324011 17.6753691,50.4440009 C17.6743691,50.4440009 17.6753691,50.4440009 17.6753691,50.4440009 L17.6723791,50.4440009 Z" id="path147-6-9-8-7-4-5-6-8-9" fill="#000000"></path>
            </g>
        </g>
    </g>
</svg>