<?xml version="1.0" encoding="UTF-8"?>
<svg width="225px" height="313px" viewBox="0 0 225 313" version="1.1" xmlns="http://www.w3.org/2000/svg" xmlns:xlink="http://www.w3.org/1999/xlink">
    <!-- Generator: Sketch 50.2 (55047) - http://www.bohemiancoding.com/sketch -->
    <title>g5510</title>
    <desc>Created with Sketch.</desc>
    <defs></defs>
    <g id="Page-1" stroke="none" stroke-width="1" fill="none" fill-rule="evenodd">
        <g id="Color_52_Faces_v.2.0" transform="translate(-2107.000000, -2417.000000)" fill-rule="nonzero">
            <g id="g5510" transform="translate(2108.006905, 2417.085110)">
                <rect id="rect6355-6-85-3-78-4-6" stroke="#000000" stroke-width="0.996733371" fill="#FFFFFF" x="0.333999058" y="0.630401261" width="222.231613" height="310.814282" rx="10.62995"></rect>
                <path d="M162.98094,33.6353673 C153.206468,33.8475677 148.82348,44.8525897 156.06256,53.3986068 C157.112457,54.6452093 157.220757,55.3605107 155.297962,54.1632083 C150.424176,50.9040018 141.078802,53.0465061 140.600204,63.010426 C140.009105,75.2874506 157.163057,78.8247576 160.383848,65.7701315 C160.553947,64.3928288 161.673444,64.4242288 161.403445,66.3793328 C161.109746,71.6857434 159.45255,76.6453533 157.174757,81.481863 C161.013846,81.481863 165.304334,81.481863 168.794924,81.481863 C166.51723,76.6453533 164.860035,71.6857434 164.566336,66.3793328 C164.296437,64.4242288 165.415834,64.3928288 165.585833,65.7701315 C168.806724,78.8247576 185.960676,75.2874506 185.369477,63.010426 C184.891079,53.0465061 175.545605,50.9040018 170.671719,54.1632083 C168.748924,55.3605107 168.857324,54.6452093 169.907121,53.3986068 C177.1462,44.8525897 172.763213,33.8475677 162.98894,33.6353673 C162.98894,33.6352673 162.98894,33.6353673 162.97894,33.6353673 L162.98094,33.6353673 Z" id="path147-0-8-1-6-13-2-9-8-8" fill="#000000"></path>
                <path d="M59.9104311,33.6353673 C50.1359586,33.8475677 45.752971,44.8525897 52.9920506,53.3986068 C54.0419476,54.6452093 54.1502473,55.3605107 52.2274527,54.1632083 C47.3536665,50.9040018 38.0083928,53.0465061 37.5296942,63.010426 C36.9385958,75.2874506 54.0925475,78.8247576 57.3133384,65.7701315 C57.4834379,64.3928288 58.6027347,64.4242288 58.3329355,66.3793328 C58.0392363,71.6857434 56.382041,76.6453533 54.1042474,81.481863 C57.9433366,81.481863 62.2338245,81.481863 65.7244147,81.481863 C63.4467211,76.6453533 61.7895258,71.6857434 61.4958266,66.3793328 C61.2259273,64.4242288 62.3453242,64.3928288 62.5153237,65.7701315 C65.7362146,78.8247576 82.8901662,75.2874506 82.2989679,63.010426 C81.8205693,53.0465061 72.4750956,50.9040018 67.6012094,54.1632083 C65.6784148,55.3605107 65.7867145,54.6452093 66.8366115,53.3986068 C74.0756911,44.8525897 69.6927035,33.8475677 59.918331,33.6353673 C59.918331,33.6352673 59.918331,33.6353673 59.9083311,33.6353673 L59.9104311,33.6353673 Z" id="path147-0-8-1-6-75-2-83-3-5-0" fill="#000000"></path>
                <path d="M162.98094,279.268859 C153.206468,279.056598 148.82348,268.051576 156.06256,259.505539 C157.112457,258.259007 157.220757,257.543665 155.297962,258.741017 C150.424176,262.000214 141.078802,259.85764 140.600204,249.89372 C140.009205,237.616745 157.163057,234.079418 160.383848,247.134044 C160.553947,248.511407 161.673444,248.479977 161.403445,246.524883 C161.109746,241.218452 159.45255,236.258803 157.174757,231.422323 C161.013846,231.422323 165.304334,231.422323 168.794924,231.422323 C166.51723,236.258803 164.860035,241.218452 164.566336,246.524883 C164.296437,248.479977 165.415834,248.511407 165.585833,247.134044 C168.806724,234.079418 185.960676,237.616745 185.369477,249.89372 C184.891079,259.85764 175.545605,262.000214 170.671719,258.741017 C168.748924,257.543665 168.857324,258.259007 169.907121,259.505539 C177.1462,268.051576 172.763213,279.056588 162.98894,279.268859 C162.98894,279.268919 162.98894,279.268809 162.97894,279.268859 L162.98094,279.268859 Z" id="path147-0-8-1-6-7-5-5-7-63-0-4" fill="#000000"></path>
                <path d="M59.9104311,279.268859 C50.1359586,279.056598 45.752971,268.051576 52.9920506,259.505539 C54.0419476,258.259007 54.1502473,257.543665 52.2274527,258.741017 C47.3536665,262.000214 38.0083928,259.85764 37.5296942,249.89372 C36.9385958,237.616745 54.0925475,234.079418 57.3133384,247.134044 C57.4834379,248.511407 58.6027347,248.479977 58.3329355,246.524883 C58.0392363,241.218452 56.382041,236.258803 54.1042474,231.422323 C57.9433366,231.422323 62.2338245,231.422323 65.7244147,231.422323 C63.4467211,236.258803 61.7895258,241.218452 61.4958266,246.524883 C61.2259273,248.479977 62.3453242,248.511407 62.5153237,247.134044 C65.7362146,234.079418 82.8901662,237.616745 82.2989679,249.89372 C81.8205693,259.85764 72.4750956,262.000214 67.6012094,258.741017 C65.6784148,257.543665 65.7867145,258.259007 66.8366115,259.505539 C74.0756911,268.051576 69.6927035,279.056588 59.918331,279.268859 C59.918331,279.268919 59.918331,279.268809 59.9083311,279.268859 L59.9104311,279.268859 Z" id="path147-0-8-1-6-75-6-1-2-46-5-0" fill="#000000"></path>
                <path d="M111.445686,132.528825 C101.671213,132.741085 97.2883256,143.746107 104.527305,152.292145 C105.577302,153.538677 105.685602,154.254029 103.762707,153.056676 C98.8890211,149.79748 89.5435475,151.940044 89.0650488,161.903974 C88.4739505,174.180938 105.627802,177.718265 108.848593,164.663639 C109.018693,163.286277 110.137989,163.317707 109.86819,165.272811 C109.574491,170.579231 107.917396,175.538881 105.639602,180.375361 C109.478591,180.375361 113.769079,180.375361 117.259669,180.375361 C114.981976,175.538881 113.32478,170.579231 113.031081,165.272811 C112.761182,163.317707 113.880579,163.286277 114.050578,164.663639 C117.271469,177.718265 134.425421,174.180938 133.834223,161.903974 C133.355824,151.940044 124.01035,149.79748 119.136464,153.056676 C117.213669,154.254029 117.321969,153.538677 118.371866,152.292145 C125.610946,143.746107 121.227958,132.741095 111.453686,132.528825 C111.453686,132.528765 111.453686,132.528875 111.443686,132.528825 L111.445686,132.528825 Z" id="path147-0-8-1-6-1-1-0-5-61-2-0" fill="#000000"></path>
                <path d="M205.427421,261.631343 C209.33711,261.542943 211.090505,256.957474 208.194813,253.396637 C207.774814,252.877236 207.731514,252.579175 208.500712,253.078076 C210.450207,254.436079 214.188396,253.543327 214.379795,249.391699 C214.616195,244.276289 207.754514,242.802406 206.466318,248.241836 C206.398318,248.815738 205.950519,248.802648 206.058419,247.988016 C206.176019,245.777012 206.838817,243.710487 207.749814,241.695283 C206.200619,241.695283 204.651323,241.695283 203.102127,241.695283 C204.013225,243.710487 204.676023,245.777012 204.793522,247.988016 C204.901522,248.802648 204.453723,248.815738 204.385624,248.241836 C203.097427,242.802406 196.235747,244.276289 196.472246,249.391699 C196.663645,253.543327 200.401735,254.436079 202.351329,253.078076 C203.120527,252.579175 203.077227,252.877236 202.657229,253.396637 C199.761537,256.957474 201.514832,261.542883 205.424421,261.631343 C205.424421,261.631363 205.424421,261.631323 205.424421,261.631343 L205.427421,261.631343 Z" id="path147-6-9-8-7-0-5-6-5-2-8" fill="#000000"></path>
                <path d="M59.9104311,99.5643191 C50.1360586,99.7765796 45.753071,110.781602 52.9920506,119.327639 C54.0419476,120.574171 54.1503473,121.289523 52.2275527,120.09217 C47.3537665,116.832974 38.0083928,118.975538 37.5297942,128.939468 C36.9385958,141.216432 54.0926475,144.75376 57.3134384,131.699133 C57.4835379,130.321771 58.6027347,130.353201 58.3330355,132.308305 C58.0393363,137.614725 56.382141,142.574375 54.1043474,147.410855 C57.9434366,147.410855 62.2338245,147.410855 65.7244147,147.410855 C63.4467211,142.574375 61.7895258,137.614725 61.4958266,132.308305 C61.2259273,130.353201 62.3453242,130.321771 62.5153237,131.699133 C65.7362146,144.75376 82.8901662,141.216432 82.2989679,128.939468 C81.8205693,118.975538 72.4750956,116.832974 67.6012094,120.09217 C65.6784148,121.289523 65.7867145,120.574171 66.8366115,119.327639 C74.0756911,110.781602 69.6927035,99.7765896 59.918331,99.5643191 C59.918331,99.5642591 59.918331,99.5643691 59.9083311,99.5643191 L59.9104311,99.5643191 Z" id="path147-0-8-1-6-75-2-9-77-4-4-2" fill="#000000"></path>
                <path d="M59.9104311,213.339857 C50.1359586,213.127606 45.752971,202.122564 52.9920506,193.576527 C54.0419476,192.329995 54.1502473,191.614653 52.2274527,192.812006 C47.3536665,196.071202 38.0083928,193.928628 37.5296942,183.964708 C36.9385958,171.687733 54.0925475,168.150406 57.3133384,181.205032 C57.4834379,182.582395 58.6027347,182.550965 58.3329355,180.595871 C58.0392363,175.289441 56.382041,170.329791 54.1042474,165.493311 C57.9433366,165.493311 62.2338245,165.493311 65.7244147,165.493311 C63.4467211,170.329791 61.7895258,175.289441 61.4958266,180.595871 C61.2259273,182.550965 62.3453242,182.582395 62.5153237,181.205032 C65.7362146,168.150406 82.8901662,171.687733 82.2989679,183.964708 C81.8205693,193.928628 72.4750956,196.071202 67.6012094,192.812006 C65.6784148,191.614653 65.7867145,192.329995 66.8366115,193.576527 C74.0756911,202.122564 69.6927035,213.127596 59.918331,213.339857 C59.918331,213.339917 59.918331,213.339807 59.9083311,213.339857 L59.9104311,213.339857 Z" id="path147-0-8-1-6-75-2-8-0-6-4-4" fill="#000000"></path>
                <path d="M162.98094,99.5643191 C153.206468,99.7765796 148.82348,110.781602 156.06256,119.327639 C157.112457,120.574171 157.220757,121.289523 155.297962,120.09217 C150.424176,116.832974 141.078802,118.975538 140.600204,128.939468 C140.009205,141.216432 157.163057,144.75376 160.383848,131.699133 C160.553947,130.321771 161.673344,130.353201 161.403445,132.308305 C161.109746,137.614725 159.45255,142.574375 157.174757,147.410855 C161.013846,147.410855 165.304334,147.410855 168.794924,147.410855 C166.51723,142.574375 164.860035,137.614725 164.566336,132.308305 C164.296437,130.353201 165.415834,130.321771 165.585833,131.699133 C168.806724,144.75376 185.960676,141.216432 185.369477,128.939468 C184.891079,118.975538 175.545605,116.832974 170.671719,120.09217 C168.748924,121.289523 168.857324,120.574171 169.907121,119.327639 C177.1462,110.781602 172.763213,99.7765896 162.98894,99.5643191 C162.98894,99.5642591 162.98894,99.5643691 162.97894,99.5643191 L162.98094,99.5643191 Z" id="path147-0-8-1-6-75-2-9-7-1-36-2-4" fill="#000000"></path>
                <path d="M162.98094,213.339857 C153.206468,213.127606 148.82348,202.122564 156.06256,193.576527 C157.112457,192.329995 157.220757,191.614653 155.297962,192.812006 C150.424176,196.071202 141.078802,193.928628 140.600204,183.964708 C140.009205,171.687733 157.163057,168.150406 160.383848,181.205032 C160.553947,182.582395 161.673344,182.550965 161.403445,180.595871 C161.109746,175.289441 159.45255,170.329791 157.174757,165.493311 C161.013846,165.493311 165.304334,165.493311 168.794924,165.493311 C166.51723,170.329791 164.860035,175.289441 164.566336,180.595871 C164.296437,182.550965 165.415834,182.582395 165.585833,181.205032 C168.806724,168.150406 185.960676,171.687733 185.369477,183.964708 C184.891079,193.928628 175.545605,196.071202 170.671719,192.812006 C168.748924,191.614653 168.857324,192.329995 169.907121,193.576527 C177.1462,202.122564 172.763213,213.127596 162.98894,213.339857 C162.98894,213.339917 162.98894,213.339807 162.97894,213.339857 L162.98094,213.339857 Z" id="path147-0-8-1-6-75-2-8-5-1-55-5-4" fill="#000000"></path>
                <path d="M17.4730507,50.4440009 C13.5632618,50.5320011 11.8100667,55.1178102 14.7056585,58.6787174 C15.1256573,59.1981184 15.1688572,59.496119 14.3998594,58.997218 C12.4501649,57.6392153 8.71217543,58.5320171 8.52067597,62.6836254 C8.28427664,67.7990356 15.1458573,69.2729385 16.4341537,63.8335277 C16.5021535,63.2596265 16.9499522,63.2727265 16.8419525,64.0873282 C16.7244528,66.2983326 16.0616547,68.3648367 15.1505573,70.3800408 C16.6998529,70.3800408 18.2491485,70.3800408 19.7984442,70.3800408 C18.8873467,68.3648367 18.2244486,66.2983326 18.1069489,64.0873282 C17.9989492,63.2727265 18.446648,63.2596265 18.5147478,63.8335277 C19.8030442,69.2729385 26.6647248,67.7990356 26.4282255,62.6836254 C26.236826,58.5320171 22.4987366,57.6392153 20.5491421,58.997218 C19.7800442,59.496119 19.8233441,59.1981184 20.2432429,58.6787174 C23.1389347,55.1178102 21.3856397,50.5324011 17.4760507,50.4440009 C17.4760507,50.4440009 17.4760507,50.4440009 17.4760507,50.4440009 L17.4730507,50.4440009 Z" id="path147-6-9-8-7-4-5-62-7-8-4" fill="#000000"></path>
                <path d="M8.29587661,40.977382 L11.3012681,40.02328 C12.4365649,43.0565861 14.7263585,43.9545879 17.1505516,43.7600875 C21.4998394,43.4128868 22.9449353,38.5444771 23.2700344,34.2411685 C21.5753392,36.0410721 19.0295463,36.9546739 16.8600525,36.8620737 C9.92527201,36.490073 8.15007702,30.9324619 8.0860772,25.1150502 C7.89657773,20.2100404 9.92147202,16.6572333 13.3952622,15.0257301 C15.235757,14.1995284 19.4493452,14.1995284 21.3001399,15.1784304 C25.549528,17.4234348 27.1251235,21.3012426 26.8397243,30.5604611 C26.8397243,38.1776764 25.2244289,47.0491941 17.0699519,47.2423945 C12.3610651,47.8949958 8.78097524,44.2247884 8.29587661,40.977382 Z M20.1008433,32.6304653 C21.5152393,31.7338635 22.3113371,30.8919618 22.9462353,29.6324593 C23.4658338,28.5973572 23.6462333,28.0570561 23.4965337,25.9164518 C23.1112348,20.3941408 20.221243,17.2589345 16.0268548,17.8802358 C13.6870614,18.2326365 12.407165,19.5431391 11.6724671,21.979944 C10.3169709,26.486853 12.0372661,31.7586635 15.257557,32.9724659 C16.7064529,33.523267 18.9463466,33.3653667 20.1008433,32.6304653 Z" id="path29-2-3-4" fill="#000000"></path>
                <path d="M214.601595,271.097932 L211.596303,272.052074 C210.461006,269.018798 208.171113,268.120786 205.74692,268.315257 C201.397632,268.662447 199.952636,273.530937 199.627437,277.834236 C201.322132,276.034302 203.867925,275.12063 206.037419,275.21334 C212.972199,275.585341 214.747494,281.142922 214.811494,286.960264 C215.000894,291.865234 212.975999,295.418041 209.502309,297.049614 C207.661714,297.875766 203.448126,297.875766 201.597331,296.896904 C197.347843,294.651899 195.772348,290.774132 196.057747,281.514933 C196.057747,273.897658 197.673043,265.02611 205.82752,264.83293 C210.536406,264.180318 214.116496,267.850546 214.601595,271.097932 Z M202.796628,279.444869 C201.382332,280.341491 200.586134,281.183392 199.951336,282.442955 C199.431638,283.477937 199.251138,284.018298 199.400938,286.158832 C199.786237,291.681223 202.676328,294.81637 206.870717,294.195068 C209.21051,293.842698 210.490306,292.532195 211.225004,290.09541 C212.580601,285.588461 210.860305,280.316671 207.639914,279.102868 C206.191019,278.552027 203.951125,278.710027 202.796628,279.444869 Z" id="path29-6-1-3-7" fill="#000000"></path>
            </g>
        </g>
    </g>
</svg>