<?xml version="1.0" encoding="UTF-8"?>
<svg width="224px" height="313px" viewBox="0 0 224 313" version="1.1" xmlns="http://www.w3.org/2000/svg" xmlns:xlink="http://www.w3.org/1999/xlink">
    <!-- Generator: Sketch 50.2 (55047) - http://www.bohemiancoding.com/sketch -->
    <title>g5526</title>
    <desc>Created with Sketch.</desc>
    <defs></defs>
    <g id="Page-1" stroke="none" stroke-width="1" fill="none" fill-rule="evenodd">
        <g id="Color_52_Faces_v.2.0" transform="translate(-2371.000000, -2417.000000)" fill-rule="nonzero">
            <g id="g5526" transform="translate(2371.010155, 2417.084988)">
                <rect id="rect6355-6-85-3-6-8-7" stroke="#000000" stroke-width="0.996733371" fill="#FFFFFF" x="0.559098423" y="0.630501261" width="222.231613" height="310.814282" rx="10.62995"></rect>
                <path d="M163.20614,33.6352673 C153.431667,33.8475677 149.04878,44.8525897 156.287759,53.3986068 C157.337656,54.6452093 157.445956,55.3605107 155.523161,54.1632083 C150.649375,50.9040018 141.304002,53.0465061 140.825403,63.010426 C140.234305,75.2874506 157.388256,78.8247576 160.609047,65.7701315 C160.779147,64.3927288 161.898543,64.4242288 161.628644,66.3793328 C161.334945,71.6857434 159.67775,76.6453533 157.399956,81.481863 C161.239045,81.481863 165.529533,81.481863 169.020123,81.481863 C166.74243,76.6453533 165.085234,71.6857434 164.791535,66.3793328 C164.521636,64.4242288 165.641033,64.3927288 165.811032,65.7701315 C169.031923,78.8247576 186.185875,75.2874506 185.594677,63.010426 C185.116278,53.0465061 175.770804,50.9040018 170.896918,54.1632083 C168.974123,55.3605107 169.082523,54.6452093 170.13242,53.3986068 C177.3714,44.8525897 172.988512,33.8475677 163.21414,33.6352673 C163.21414,33.6352673 163.21414,33.6353673 163.20414,33.6352673 L163.20614,33.6352673 Z" id="path147-0-8-1-6-13-2-22-1-5" fill="#000000"></path>
                <path d="M60.1356304,33.6352673 C50.361158,33.8475677 45.9781703,44.8525897 53.2172499,53.3986068 C54.267147,54.6452093 54.3754467,55.3605107 52.4526521,54.1632083 C47.5788658,50.9040018 38.2334922,53.0465061 37.7548935,63.010426 C37.1637952,75.2874506 54.3177468,78.8247576 57.5385377,65.7701315 C57.7086373,64.3927288 58.8279341,64.4242288 58.5581349,66.3793328 C58.2644357,71.6857434 56.6072404,76.6453533 54.3294468,81.481863 C58.168536,81.481863 62.4590239,81.481863 65.949614,81.481863 C63.6719204,76.6453533 62.0147251,71.6857434 61.7210259,66.3793328 C61.4511267,64.4242288 62.5705236,64.3927288 62.7405231,65.7701315 C65.961414,78.8247576 83.1153656,75.2874506 82.5241673,63.010426 C82.0457686,53.0465061 72.700295,50.9040018 67.8264087,54.1632083 C65.9036142,55.3605107 66.0119138,54.6452093 67.0618109,53.3986068 C74.3008905,44.8525897 69.9179028,33.8475677 60.1436304,33.6352673 C60.1436304,33.6352673 60.1436304,33.6353673 60.1336304,33.6352673 L60.1356304,33.6352673 Z" id="path147-0-8-1-6-75-2-83-21-1-8" fill="#000000"></path>
                <path d="M163.20614,279.268859 C153.431667,279.056598 149.04878,268.051566 156.287759,259.505539 C157.337656,258.259007 157.445956,257.543655 155.523161,258.741007 C150.649375,262.000204 141.304002,259.85764 140.825403,249.89371 C140.234305,237.616735 157.388256,234.079418 160.609047,247.134034 C160.779147,248.511397 161.898543,248.479977 161.628644,246.524873 C161.334945,241.218452 159.67775,236.258793 157.399956,231.422313 C161.239045,231.422313 165.529533,231.422313 169.020123,231.422313 C166.74243,236.258793 165.085234,241.218452 164.791535,246.524873 C164.521636,248.479977 165.641033,248.511397 165.811032,247.134034 C169.031923,234.079418 186.185875,237.616735 185.594677,249.89371 C185.116278,259.85764 175.770804,262.000204 170.896918,258.741007 C168.974123,257.543655 169.082523,258.259007 170.13242,259.505539 C177.3714,268.051566 172.988512,279.056588 163.21414,279.268859 C163.21414,279.268919 163.21414,279.268809 163.20414,279.268859 L163.20614,279.268859 Z" id="path147-0-8-1-6-7-5-5-7-3-5-5" fill="#000000"></path>
                <path d="M60.1356304,279.268859 C50.361158,279.056598 45.9781703,268.051566 53.2172499,259.505539 C54.267147,258.259007 54.3754467,257.543655 52.4526521,258.741007 C47.5788658,262.000204 38.2334922,259.85764 37.7548935,249.89371 C37.1637952,237.616735 54.3177468,234.079418 57.5385377,247.134034 C57.7086373,248.511397 58.8279341,248.479977 58.5581349,246.524873 C58.2644357,241.218452 56.6072404,236.258793 54.3294468,231.422313 C58.168536,231.422313 62.4590239,231.422313 65.949614,231.422313 C63.6719204,236.258793 62.0147251,241.218452 61.7210259,246.524873 C61.4511267,248.479977 62.5705236,248.511397 62.7405231,247.134034 C65.961414,234.079418 83.1153656,237.616735 82.5241673,249.89371 C82.0457686,259.85764 72.700295,262.000204 67.8264087,258.741007 C65.9036142,257.543655 66.0119138,258.259007 67.0618109,259.505539 C74.3008905,268.051566 69.9179028,279.056588 60.1436304,279.268859 C60.1436304,279.268919 60.1436304,279.268809 60.1336304,279.268859 L60.1356304,279.268859 Z" id="path147-0-8-1-6-75-6-1-2-7-9-3" fill="#000000"></path>
                <path d="M111.670785,66.6000332 C101.896313,66.8123336 97.513525,77.8173556 104.752405,86.3633727 C105.802302,87.6098752 105.910601,88.3252767 103.987907,87.1278743 C99.1140205,83.8686677 89.7686469,86.011272 89.2900482,95.975202 C88.6989499,108.252167 105.852901,111.789494 109.073792,98.7348675 C109.243792,97.3575047 110.363189,97.3889348 110.09329,99.3440387 C109.79959,104.650459 108.142395,109.610109 105.864701,114.446589 C109.703691,114.446589 113.994179,114.446589 117.484869,114.446589 C115.207175,109.610109 113.54988,104.650459 113.256181,99.3440387 C112.986281,97.3889348 114.105678,97.3575047 114.275678,98.7348675 C117.496569,111.789494 134.65052,108.252167 134.059422,95.975202 C133.580923,86.011272 124.23545,83.8686677 119.361663,87.1278743 C117.438869,88.3252767 117.547169,87.6098752 118.597066,86.3633727 C125.836045,77.8173556 121.453158,66.8123336 111.678785,66.6000332 C111.678785,66.6000332 111.678785,66.6001332 111.668785,66.6000332 L111.670785,66.6000332 Z" id="path147-0-8-1-6-2-00-7-1-1-4" fill="#000000"></path>
                <path d="M111.670885,246.304363 C101.896413,246.092102 97.513425,235.08708 104.752505,226.541053 C105.802402,225.294521 105.910701,224.579169 103.987907,225.776522 C99.1141205,229.035718 89.7687469,226.893154 89.2901482,216.929224 C88.6990499,204.652249 105.853001,201.114922 109.073792,214.169548 C109.243892,215.546911 110.363289,215.515491 110.09339,213.560387 C109.79969,208.253957 108.142495,203.294297 105.864701,198.457817 C109.703791,198.457817 113.994279,198.457817 117.484869,198.457817 C115.207175,203.294297 113.54998,208.253957 113.256281,213.560387 C112.986381,215.515491 114.105778,215.546911 114.275778,214.169548 C117.496669,201.114922 134.65062,204.652249 134.059422,216.929224 C133.581023,226.893154 124.23555,229.035718 119.361663,225.776522 C117.438869,224.579169 117.547269,225.294521 118.597066,226.541053 C125.836145,235.08708 121.453258,246.092092 111.678885,246.304363 C111.678885,246.304423 111.678885,246.304313 111.668885,246.304363 L111.670885,246.304363 Z" id="path147-0-8-1-6-2-0-8-6-8-1-8" fill="#000000"></path>
                <path d="M205.65262,261.631333 C209.562309,261.542933 211.315604,256.957464 208.419912,253.396627 C207.999913,252.877236 207.956614,252.579165 208.725811,253.078066 C210.675306,254.436069 214.413495,253.543327 214.604895,249.391689 C214.841394,244.276279 207.979713,242.802396 206.691417,248.241826 C206.623417,248.815738 206.175619,248.802638 206.283618,247.988006 C206.401118,245.777002 207.063916,243.710477 207.975014,241.695283 C206.425818,241.695283 204.876422,241.695283 203.327227,241.695283 C204.238324,243.710477 204.901122,245.777002 205.018622,247.988006 C205.126622,248.802638 204.678823,248.815738 204.610823,248.241826 C203.322527,242.802396 196.460946,244.276279 196.697345,249.391689 C196.888745,253.543327 200.626934,254.436069 202.576429,253.078066 C203.345627,252.579165 203.302327,252.877236 202.882328,253.396627 C199.986636,256.957464 201.739931,261.542883 205.64962,261.631333 C205.65062,261.631353 205.64962,261.631313 205.64962,261.631333 L205.65262,261.631333 Z" id="path147-6-9-8-7-0-5-6-83-3-7" fill="#000000"></path>
                <path d="M60.1356304,99.5643091 C50.361158,99.7765696 45.9782703,110.781602 53.2172499,119.327629 C54.267147,120.574161 54.3754467,121.289513 52.4526521,120.09216 C47.5788658,116.832964 38.2334922,118.975528 37.7548935,128.939458 C37.1637952,141.216432 54.3177468,144.75375 57.5385377,131.699133 C57.7086373,130.321771 58.8279341,130.353191 58.5581349,132.308295 C58.2644357,137.614715 56.6072404,142.574375 54.3294468,147.410855 C58.168536,147.410855 62.4590239,147.410855 65.949614,147.410855 C63.6719204,142.574375 62.0147251,137.614715 61.7210259,132.308295 C61.4511267,130.353191 62.5705236,130.321771 62.7405231,131.699133 C65.961414,144.75375 83.1153656,141.216432 82.5241673,128.939458 C82.0457686,118.975528 72.700295,116.832964 67.8264087,120.09216 C65.9036142,121.289513 66.0119138,120.574161 67.0618109,119.327629 C74.3008905,110.781602 69.9179028,99.7765796 60.1436304,99.5643091 C60.1436304,99.5642491 60.1436304,99.5643591 60.1336304,99.5643091 L60.1356304,99.5643091 Z" id="path147-0-8-1-6-75-2-9-77-44-0-7" fill="#000000"></path>
                <path d="M60.1356304,213.339857 C50.361158,213.127596 45.9781703,202.122554 53.2172499,193.576527 C54.267147,192.329995 54.3754467,191.614643 52.4526521,192.811996 C47.5788658,196.071192 38.2334922,193.928628 37.7548935,183.964698 C37.1637952,171.687733 54.3177468,168.150406 57.5385377,181.205032 C57.7086373,182.582395 58.8279341,182.550965 58.5581349,180.595861 C58.2644357,175.289441 56.6072404,170.329781 54.3294468,165.493301 C58.168536,165.493301 62.4590239,165.493301 65.949614,165.493301 C63.6719204,170.329781 62.0147251,175.289441 61.7210259,180.595861 C61.4511267,182.550965 62.5705236,182.582395 62.7405231,181.205032 C65.961414,168.150406 83.1153656,171.687733 82.5241673,183.964698 C82.0457686,193.928628 72.700295,196.071192 67.8264087,192.811996 C65.9036142,191.614643 66.0119138,192.329995 67.0618109,193.576527 C74.3008905,202.122554 69.9179028,213.127586 60.1436304,213.339857 C60.1436304,213.339917 60.1436304,213.339807 60.1336304,213.339857 L60.1356304,213.339857 Z" id="path147-0-8-1-6-75-2-8-0-3-9-3" fill="#000000"></path>
                <path d="M163.20614,99.5643091 C153.431667,99.7765696 149.04878,110.781602 156.287759,119.327629 C157.337656,120.574161 157.445956,121.289513 155.523161,120.09216 C150.649375,116.832964 141.304002,118.975528 140.825403,128.939458 C140.234305,141.216432 157.388256,144.75375 160.609047,131.699133 C160.779147,130.321771 161.898543,130.353191 161.628644,132.308295 C161.334945,137.614715 159.67775,142.574375 157.399956,147.410855 C161.239045,147.410855 165.529533,147.410855 169.020123,147.410855 C166.74243,142.574375 165.085234,137.614715 164.791535,132.308295 C164.521636,130.353191 165.641033,130.321771 165.811032,131.699133 C169.031923,144.75375 186.185875,141.216432 185.594677,128.939458 C185.116278,118.975528 175.770804,116.832964 170.896918,120.09216 C168.974123,121.289513 169.082523,120.574161 170.13242,119.327629 C177.3714,110.781602 172.988512,99.7765796 163.21414,99.5643091 C163.21414,99.5642491 163.21414,99.5643591 163.20414,99.5643091 L163.20614,99.5643091 Z" id="path147-0-8-1-6-75-2-9-7-1-9-7-9" fill="#000000"></path>
                <path d="M163.20614,213.339857 C153.431667,213.127596 149.04878,202.122554 156.287759,193.576527 C157.337656,192.329995 157.445956,191.614643 155.523161,192.811996 C150.649375,196.071192 141.304002,193.928628 140.825403,183.964698 C140.234305,171.687733 157.388256,168.150406 160.609047,181.205032 C160.779147,182.582395 161.898543,182.550965 161.628644,180.595861 C161.334945,175.289441 159.67775,170.329781 157.399956,165.493301 C161.239045,165.493301 165.529533,165.493301 169.020123,165.493301 C166.74243,170.329781 165.085234,175.289441 164.791535,180.595861 C164.521636,182.550965 165.641033,182.582395 165.811032,181.205032 C169.031923,168.150406 186.185875,171.687733 185.594677,183.964698 C185.116278,193.928628 175.770804,196.071192 170.896918,192.811996 C168.974123,191.614643 169.082523,192.329995 170.13242,193.576527 C177.3714,202.122554 172.988512,213.127586 163.21414,213.339857 C163.21414,213.339917 163.21414,213.339807 163.20414,213.339857 L163.20614,213.339857 Z" id="path147-0-8-1-6-75-2-8-5-1-52-2-8" fill="#000000"></path>
                <path d="M17.6981501,50.4440009 C13.7883611,50.5320011 12.0351661,55.1178102 14.9307579,58.6787174 C15.3507567,59.1981184 15.3940566,59.496119 14.6249588,58.997218 C12.6753643,57.6392153 8.9372748,58.5320171 8.74587534,62.6836254 C8.509376,67.7990356 15.3709567,69.2729385 16.659353,63.8335277 C16.7273528,63.2596265 17.1751516,63.2727265 17.0670519,64.0873282 C16.9496522,66.2983326 16.2867541,68.3648367 15.3756566,70.3800408 C16.9249523,70.3800408 18.4742479,70.3800408 20.0235435,70.3800408 C19.1124461,68.3648367 18.449548,66.2983326 18.3321483,64.0873282 C18.2241486,63.2727265 18.6718473,63.2596265 18.7398472,63.8335277 C20.0282435,69.2729385 26.8898242,67.7990356 26.6534248,62.6836254 C26.4619254,58.5320171 22.7238359,57.6392153 20.7742414,58.997218 C20.0051436,59.496119 20.0484435,59.1981184 20.4684423,58.6787174 C23.3640341,55.1178102 21.6108391,50.5324011 17.7011501,50.4440009 C17.7001501,50.4440009 17.7011501,50.4440009 17.7011501,50.4440009 L17.6981501,50.4440009 Z" id="path147-6-9-8-7-4-5-62-52-8-0" fill="#000000"></path>
                <polygon id="path31-6-7-6" fill="#000000" points="7.72417822 47.3184946 7.72417822 14.4246288 10.9087692 14.4246288 10.9087692 47.3184946"></polygon>
                <path d="M20.3483426,14.4240288 C17.2827513,14.4240288 14.8188582,17.2276345 14.8188582,20.7099414 L14.8188582,41.0332821 C14.8188582,44.515589 17.2840513,47.3178946 20.3483426,47.3178946 L22.1376376,47.3178946 C25.2031289,47.3178946 27.672122,44.515589 27.672122,41.0332821 L27.672122,20.7099414 C27.672122,17.2276345 25.2018289,14.4240288 22.1376376,14.4240288 L20.3483426,14.4240288 Z M21.27364,17.5343351 C23.0835349,17.5343351 24.5388308,18.9243378 24.5388308,20.6629413 L24.5388308,41.2551825 C24.5388308,42.993686 23.0835349,44.3967888 21.27364,44.3967888 C19.4638451,44.3967888 18.0034492,42.993686 18.0034492,41.2551825 L18.0034492,20.6629413 C18.0034492,18.9256379 19.4638451,17.5343351 21.27364,17.5343351 Z" id="path33-9-3-6" fill="#000000"></path>
                <polygon id="path31-1-4-0-7" fill="#000000" points="215.623692 264.75684 215.623692 297.650705 212.439201 297.650705 212.439201 264.75684"></polygon>
                <path d="M202.999628,297.651345 C206.065119,297.651345 208.529012,294.84776 208.529012,291.365463 L208.529012,271.042082 C208.529012,267.559775 206.063819,264.75749 202.999628,264.75749 L201.210233,264.75749 C198.144741,264.75749 195.675748,267.559775 195.675748,271.042082 L195.675748,291.365463 C195.675748,294.84776 198.146041,297.651345 201.210233,297.651345 L202.999628,297.651345 Z M202.07423,294.541039 C200.264335,294.541039 198.809039,293.150996 198.809039,291.412443 L198.809039,270.820182 C198.809039,269.081638 200.264335,267.678545 202.07423,267.678545 C203.884025,267.678545 205.344521,269.081638 205.344521,270.820182 L205.344521,291.412443 C205.344521,293.149686 203.884025,294.541039 202.07423,294.541039 Z" id="path33-5-7-4-0" fill="#000000"></path>
            </g>
        </g>
    </g>
</svg>