<?xml version="1.0" encoding="UTF-8"?>
<svg width="224px" height="313px" viewBox="0 0 224 313" version="1.1" xmlns="http://www.w3.org/2000/svg" xmlns:xlink="http://www.w3.org/1999/xlink">
    <!-- Generator: Sketch 50.2 (55047) - http://www.bohemiancoding.com/sketch -->
    <title>g5481</title>
    <desc>Created with Sketch.</desc>
    <defs></defs>
    <g id="Page-1" stroke="none" stroke-width="1" fill="none" fill-rule="evenodd">
        <g id="Color_52_Faces_v.2.0" transform="translate(-1581.000000, -2417.000000)" fill-rule="nonzero">
            <g id="g5481" transform="translate(1581.000165, 2417.085110)">
                <rect id="rect6355-6-85-3-1-8-1" stroke="#000000" stroke-width="0.996733371" fill="#FFFFFF" x="0.883997507" y="0.630401261" width="222.231613" height="310.814282" rx="10.62995"></rect>
                <path d="M163.530739,33.6353673 C153.756266,33.8475677 149.373379,44.8525897 156.612358,53.3987068 C157.662255,54.6452093 157.770555,55.3605107 155.847861,54.1632083 C150.973974,50.9040018 141.628601,53.0466061 141.150002,63.010526 C140.558904,75.2874506 157.712855,78.8247576 160.933746,65.7701315 C161.103746,64.3928288 162.223243,64.4242288 161.953243,66.3793328 C161.659544,71.6857434 160.002349,76.6454533 157.724555,81.481863 C161.563644,81.481863 165.854132,81.481863 169.344822,81.481863 C167.067129,76.6454533 165.409834,71.6857434 165.116134,66.3793328 C164.846235,64.4242288 165.965632,64.3928288 166.135631,65.7701315 C169.356522,78.8247576 186.510474,75.2874506 185.919376,63.010526 C185.440877,53.0466061 176.095403,50.9040018 171.221517,54.1632083 C169.298823,55.3605107 169.407122,54.6452093 170.457019,53.3987068 C177.695999,44.8525897 173.313111,33.8475677 163.538739,33.6353673 C163.538739,33.6352673 163.538739,33.6353673 163.528739,33.6353673 L163.530739,33.6353673 Z" id="path147-0-8-1-6-13-2-0-1-5" fill="#000000"></path>
                <path d="M60.4602295,33.6353673 C50.6857571,33.8475677 46.3028694,44.8525897 53.541849,53.3987068 C54.5917461,54.6452093 54.7000457,55.3605107 52.7772512,54.1632083 C47.9034649,50.9040018 38.5581913,53.0466061 38.0794926,63.010526 C37.4884943,75.2874506 54.6423459,78.8247576 57.8632368,65.7701315 C58.0332363,64.3928288 59.1526332,64.4242288 58.882734,66.3793328 C58.5890348,71.6857434 56.9318395,76.6454533 54.6540459,81.481863 C58.493135,81.481863 62.7836229,81.481863 66.2743131,81.481863 C63.9966195,76.6454533 62.3393242,71.6857434 62.045625,66.3793328 C61.7757258,64.4242288 62.8951226,64.3928288 63.0651222,65.7701315 C66.2860131,78.8247576 83.4399647,75.2874506 82.8488664,63.010526 C82.3703677,53.0466061 73.0248941,50.9040018 68.1510078,54.1632083 C66.2283132,55.3605107 66.3366129,54.6452093 67.38651,53.3987068 C74.6254896,44.8525897 70.2426019,33.8475677 60.4682295,33.6353673 C60.4682295,33.6352673 60.4682295,33.6353673 60.4582295,33.6353673 L60.4602295,33.6353673 Z" id="path147-0-8-1-6-75-2-83-2-0-7" fill="#000000"></path>
                <path d="M163.530739,279.268879 C153.756266,279.056618 149.373379,268.051586 156.612358,259.505559 C157.662255,258.259027 157.770555,257.543675 155.847861,258.741027 C150.973974,262.000224 141.628701,259.85766 141.150002,249.89373 C140.559004,237.616765 157.712855,234.079438 160.933746,247.134064 C161.103746,248.511427 162.223243,248.479997 161.953243,246.524893 C161.659544,241.218472 160.002349,236.258823 157.724555,231.422333 C161.563644,231.422333 165.854132,231.422333 169.344822,231.422333 C167.067129,236.258823 165.409834,241.218472 165.116134,246.524893 C164.846235,248.479997 165.965632,248.511427 166.135631,247.134064 C169.356522,234.079438 186.510474,237.616765 185.919376,249.89373 C185.440877,259.85766 176.095403,262.000224 171.221517,258.741027 C169.298823,257.543675 169.407122,258.259027 170.457019,259.505559 C177.695999,268.051586 173.313111,279.056608 163.538739,279.268879 C163.538739,279.268939 163.538739,279.268829 163.528739,279.268879 L163.530739,279.268879 Z" id="path147-0-8-1-6-7-5-5-7-7-7-6" fill="#000000"></path>
                <path d="M60.4602295,279.268879 C50.6857571,279.056618 46.3028694,268.051586 53.541849,259.505559 C54.5917461,258.259027 54.7000457,257.543675 52.7772512,258.741027 C47.9034649,262.000224 38.5581913,259.85766 38.0794926,249.89373 C37.4884943,237.616765 54.6423459,234.079438 57.8632368,247.134064 C58.0332363,248.511427 59.1526332,248.479997 58.882734,246.524893 C58.5890348,241.218472 56.9318395,236.258823 54.6540459,231.422333 C58.493135,231.422333 62.7836229,231.422333 66.2743131,231.422333 C63.9966195,236.258823 62.3393242,241.218472 62.045625,246.524893 C61.7757258,248.479997 62.8951226,248.511427 63.0651222,247.134064 C66.2860131,234.079438 83.4399647,237.616765 82.8488664,249.89373 C82.3703677,259.85766 73.0248941,262.000224 68.1510078,258.741027 C66.2283132,257.543675 66.3366129,258.259027 67.38651,259.505559 C74.6254896,268.051586 70.2426019,279.056608 60.4682295,279.268879 C60.4682295,279.268939 60.4682295,279.268829 60.4582295,279.268879 L60.4602295,279.268879 Z" id="path147-0-8-1-6-75-6-1-2-9-1-9" fill="#000000"></path>
                <path d="M111.995684,83.0822662 C102.221212,83.2944666 97.8384241,94.2995286 105.077304,102.845566 C106.127201,104.092098 106.2356,104.80744 104.312706,103.610087 C99.4390196,100.350891 90.0936459,102.493465 89.6150473,112.457375 C89.023949,124.734349 106.177801,128.271677 109.398591,115.21705 C109.568691,113.839688 110.688088,113.871118 110.418189,115.826212 C110.124489,121.132642 108.467294,126.092292 106.189501,130.928772 C110.02859,130.928772 114.319078,130.928772 117.809668,130.928772 C115.532074,126.092292 113.874779,121.132642 113.58108,115.826212 C113.31118,113.871118 114.430577,113.839688 114.600577,115.21705 C117.821468,128.271677 134.975419,124.734349 134.384321,112.457375 C133.905822,102.493465 124.560349,100.350891 119.686462,103.610087 C117.763768,104.80744 117.872068,104.092098 118.921965,102.845566 C126.160944,94.2995286 121.778057,83.2944666 112.003684,83.0822662 C112.003684,83.0821662 112.003684,83.0822662 111.993684,83.0822662 L111.995684,83.0822662 Z" id="path147-0-8-1-6-2-00-7-2-3-4" fill="#000000"></path>
                <path d="M163.530739,132.528845 C153.756266,132.741095 149.373379,143.746127 156.612358,152.292165 C157.662255,153.538697 157.770555,154.254039 155.847861,153.056686 C150.973974,149.79749 141.628601,151.940064 141.150002,161.903984 C140.559004,174.180958 157.712855,177.718285 160.933746,164.663659 C161.103746,163.286297 162.223143,163.317727 161.953243,165.272821 C161.659544,170.579251 160.002349,175.538901 157.724555,180.375381 C161.563644,180.375381 165.854132,180.375381 169.344822,180.375381 C167.067129,175.538901 165.409834,170.579251 165.116134,165.272821 C164.846235,163.317727 165.965632,163.286297 166.135631,164.663659 C169.356522,177.718285 186.510474,174.180958 185.919376,161.903984 C185.440877,151.940064 176.095403,149.79749 171.221517,153.056686 C169.298823,154.254039 169.407122,153.538697 170.457019,152.292165 C177.695999,143.746127 173.313111,132.741105 163.538739,132.528845 C163.538739,132.528785 163.538739,132.528895 163.528739,132.528845 L163.530739,132.528845 Z" id="path147-0-8-1-6-7-5-7-3-0-1-7-4" fill="#000000"></path>
                <path d="M60.4602295,132.528845 C50.6857571,132.741095 46.3028694,143.746127 53.541849,152.292165 C54.5917461,153.538697 54.7000457,154.254039 52.7772512,153.056686 C47.9034649,149.79749 38.5581913,151.940064 38.0795926,161.903984 C37.4884943,174.180958 54.6423459,177.718285 57.8632368,164.663659 C58.0332363,163.286297 59.1526332,163.317727 58.882734,165.272821 C58.5890348,170.579251 56.9318395,175.538901 54.6540459,180.375381 C58.493135,180.375381 62.7836229,180.375381 66.2743131,180.375381 C63.9966195,175.538901 62.3393242,170.579251 62.045625,165.272821 C61.7757258,163.317727 62.8951226,163.286297 63.0651222,164.663659 C66.2860131,177.718285 83.4399647,174.180958 82.8488664,161.903984 C82.3703677,151.940064 73.0248941,149.79749 68.1510078,153.056686 C66.2283132,154.254039 66.3366129,153.538697 67.38651,152.292165 C74.6254896,143.746127 70.2426019,132.741105 60.4682295,132.528845 C60.4682295,132.528785 60.4682295,132.528895 60.4582295,132.528845 L60.4602295,132.528845 Z" id="path147-0-8-1-6-75-6-6-5-3-9-6-0" fill="#000000"></path>
                <path d="M205.977319,261.631363 C209.887008,261.542963 211.640303,256.957484 208.744711,253.396647 C208.324613,252.877256 208.281313,252.579185 209.05051,253.078086 C211.000105,254.436099 214.738194,253.543347 214.929594,249.391709 C215.166093,244.276309 208.304413,242.802426 207.016116,248.241846 C206.948116,248.815758 206.500318,248.802658 206.608317,247.988036 C206.725817,245.777022 207.388615,243.710497 208.299813,241.695303 C206.750517,241.695303 205.201121,241.695303 203.651926,241.695303 C204.563023,243.710497 205.225821,245.777022 205.343321,247.988036 C205.451321,248.802658 205.003522,248.815758 204.935522,248.241846 C203.647226,242.802426 196.785645,244.276309 197.022044,249.391709 C197.213444,253.543347 200.951633,254.436099 202.901228,253.078086 C203.670326,252.579185 203.627026,252.877256 203.207027,253.396647 C200.311435,256.957484 202.06463,261.542903 205.974319,261.631363 C205.975319,261.631383 205.974319,261.631343 205.974319,261.631363 L205.977319,261.631363 Z" id="path147-6-9-8-7-0-5-6-8-4-3" fill="#000000"></path>
                <path d="M18.0228492,50.4440009 C14.1131602,50.5320011 12.3598651,55.1179102 15.255457,58.6787174 C15.6754558,59.1981184 15.7187557,59.496219 14.9496578,58.997318 C12.9999633,57.6393153 9.26197388,58.5320171 9.07057442,62.6836254 C8.83407509,67.7990356 15.6957557,69.2729385 16.9839521,63.8335277 C17.0519519,63.2596265 17.4998507,63.2727265 17.391851,64.0873282 C17.2742513,66.2983326 16.6115532,68.3648367 15.7003557,70.3800408 C17.2496514,70.3800408 18.798947,70.3800408 20.3482426,70.3800408 C19.4371452,68.3648367 18.7743471,66.2983326 18.6567474,64.0873282 C18.5488477,63.2727265 18.9965464,63.2596265 19.0646462,63.8335277 C20.3528426,69.2729385 27.2145233,67.7990356 26.9780239,62.6836254 C26.7866245,58.5320171 23.048535,57.6393153 21.0989405,58.997318 C20.3298427,59.496219 20.3731425,59.1981184 20.7930414,58.6787174 C23.6887332,55.1179102 21.9354381,50.5325011 18.0258492,50.4440009 C18.0258492,50.4440009 18.0258492,50.4440009 18.0258492,50.4440009 L18.0228492,50.4440009 Z" id="path147-6-9-8-7-4-5-62-5-2-9" fill="#000000"></path>
                <path d="M12.9728634,47.3148946 C15.1334573,35.8782718 17.4334508,27.2924546 23.4722338,17.9742359 L11.1975684,17.9742359 L11.1975684,21.985244 L7.93877761,21.985244 L7.93877761,14.4240288 L25.892527,14.4240288 L28.1069207,17.9742359 C21.6931388,24.98475 15.8232554,47.6463953 16.8625524,47.3148946 L12.9728634,47.3148946 Z" id="path25-6-8-8" fill="#000000"></path>
                <path d="M211.024405,264.76047 C208.863811,276.196992 206.563817,284.78296 200.525035,294.101068 L212.7997,294.101068 L212.7997,290.09004 L216.058491,290.09004 L216.058491,297.651385 L198.104641,297.651385 L195.890348,294.101068 C202.30413,287.090654 208.174013,264.428929 207.134716,264.76047 L211.024405,264.76047 Z" id="path25-7-7-3-9" fill="#000000"></path>
            </g>
        </g>
    </g>
</svg>