<?xml version="1.0" encoding="UTF-8"?>
<svg width="224px" height="313px" viewBox="0 0 224 313" version="1.1" xmlns="http://www.w3.org/2000/svg" xmlns:xlink="http://www.w3.org/1999/xlink">
    <!-- Generator: Sketch 50.2 (55047) - http://www.bohemiancoding.com/sketch -->
    <title>g5421</title>
    <desc>Created with Sketch.</desc>
    <defs></defs>
    <g id="Page-1" stroke="none" stroke-width="1" fill="none" fill-rule="evenodd">
        <g id="Color_52_Faces_v.2.0" transform="translate(-265.000000, -2417.000000)" fill-rule="nonzero">
            <g id="g5421" transform="translate(264.983582, 2417.085305)">
                <g id="layer1-33-1-8-0-7" transform="translate(0.327452, 0.355796)" fill="#FFFFFF" stroke="#000000" stroke-width="0.99673417">
                    <rect id="rect6355-6-85-4-0-5" x="0.431107663" y="0.274688545" width="222.232247" height="310.813662" rx="10.677567"></rect>
                </g>
                <path d="M111.87056,33.6353 C102.09607,33.8475 97.71312,44.8526 104.95217,53.3986 C106.00206,54.6451 106.11039,55.3605 104.18759,54.1631 C99.31375,50.9039 89.96835,53.0465 89.48978,63.0104 C88.89864,75.2873 106.05264,78.8247 109.2735,65.7701 C109.44354,64.3927 110.56291,64.4241 110.29302,66.3792 C109.99934,71.6856 108.34217,76.6453 106.06439,81.4817 C109.90347,81.4817 114.19393,81.4817 117.68459,81.4817 C115.40691,76.6453 113.74964,71.6856 113.45595,66.3792 C113.18605,64.4241 114.30544,64.3927 114.47548,65.7701 C117.69634,78.8247 134.85035,75.2873 134.2592,63.0104 C133.78074,53.0465 124.43524,50.9039 119.56139,54.1631 C117.6386,55.3605 117.74691,54.6451 118.79681,53.3986 C126.03587,44.8526 121.65291,33.8476 111.87851,33.6353 C111.87851,33.6352 111.87851,33.6353 111.86851,33.6353 L111.87056,33.6353 Z" id="path147-0-8-1-6-7-2-1-6-3" fill="#000000"></path>
                <path d="M111.87056,279.26834 C102.09608,279.05608 97.71312,268.05108 104.95218,259.50506 C106.00208,258.25853 106.1104,257.54319 104.1876,258.74053 C99.31375,261.99973 89.96834,259.85716 89.48978,249.89325 C88.89863,237.61631 106.05265,234.07899 109.27351,247.13359 C109.44355,248.51095 110.56292,248.47952 110.29303,246.52442 C109.99935,241.21801 108.34219,236.25837 106.0644,231.4219 C109.90348,231.4219 114.19395,231.4219 117.6846,231.4219 C115.40692,236.25837 113.74965,241.21801 113.45596,246.52442 C113.18607,248.47952 114.30545,248.51095 114.47549,247.13359 C117.69635,234.07899 134.85036,237.61631 134.25921,249.89325 C133.78075,259.85716 124.43525,261.99973 119.5614,258.74053 C117.63861,257.54319 117.74693,258.25853 118.79682,259.50506 C126.03588,268.05108 121.65292,279.05607 111.87853,279.26834 C111.87853,279.2684 111.87853,279.26829 111.86853,279.26834 L111.87056,279.26834 Z" id="path147-0-8-1-6-1-4-5-4-2" fill="#000000"></path>
                <path d="M205.85252,261.63086 C209.76229,261.54246 211.51553,256.957 208.61991,253.39616 C208.19989,252.87677 208.15659,252.57871 208.92574,253.07761 C210.8753,254.43561 214.61345,253.54286 214.80489,249.39123 C215.04133,244.27584 208.17969,242.80196 206.89136,248.24137 C206.82366,248.81528 206.37557,248.80219 206.48359,247.98756 C206.60106,245.77655 207.26389,243.71004 208.17501,241.69484 C206.62575,241.69484 205.07639,241.69484 203.52714,241.69484 C204.43826,243.71004 205.10108,245.77655 205.21856,247.98756 C205.32657,248.80219 204.87878,248.81528 204.81079,248.24137 C203.52246,242.80196 196.66082,244.27584 196.89726,249.39123 C197.0887,253.54286 200.82684,254.43561 202.7764,253.07761 C203.54556,252.57871 203.50225,252.87677 203.08223,253.39616 C200.18661,256.957 201.93985,261.5424 205.84953,261.63086 C205.85052,261.63088 205.84953,261.63084 205.84953,261.63086 L205.85252,261.63086 Z" id="path147-6-9-8-7-0-5-4-9-1" fill="#000000"></path>
                <path d="M17.89758,50.4439 C13.9878,50.5319 12.23456,55.1178 15.13018,58.6786 C15.5502,59.198 15.59351,59.4961 14.82435,58.9972 C12.87479,57.6392 9.13666,58.5319 8.94522,62.6835 C8.70878,67.7989 15.57041,69.2728 16.85874,63.8334 C16.92644,63.2595 17.37452,63.2726 17.26651,64.0872 C17.14903,66.2982 16.48621,68.3647 15.57509,70.3799 C17.12434,70.3799 18.6737,70.3799 20.22296,70.3799 C19.31184,68.3647 18.64901,66.2982 18.53154,64.0872 C18.42352,63.2726 18.87131,63.2595 18.93931,63.8334 C20.22764,69.2728 27.08928,67.7989 26.85284,62.6835 C26.6614,58.5319 22.92325,57.6392 20.97369,58.9972 C20.20454,59.4961 20.24784,59.198 20.66786,58.6786 C23.56348,55.1178 21.81024,50.5324 17.90057,50.4439 C17.89957,50.4439 17.90057,50.4439 17.90057,50.4439 L17.89758,50.4439 Z" id="path147-6-9-8-7-4-5-9-2-7" fill="#000000"></path>
                <path d="M8.04977,47.2479 L8.20985,45.2195 C8.71539,38.9513 10.06056,36.8367 17.69036,30.2931 C21.39455,27.1212 22.60921,25.5561 22.77945,23.7404 C23.26457,19.4577 19.47974,18.121 17.01459,18.1014 C13.81981,18.0724 10.20521,20.0189 11.93057,24.5432 L8.34544,25.6175 C7.62487,21.3973 8.36634,17.4383 11.72072,15.6814 C16.20054,13.3905 21.94489,14.2886 24.84529,17.8978 C26.79465,20.3192 27.24005,23.6699 26.19434,26.2923 C23.13914,32.9912 12.77539,35.9386 11.92032,43.6896 L23.37458,43.6896 L23.37458,39.3743 L26.74985,39.3743 L26.74985,47.3184 L8.04977,47.2484 L8.04977,47.2479 Z" id="path15-9-1-0-1" fill="#000000"></path>
                <path d="M215.19967,264.82685 L215.03959,266.85534 C214.53405,273.12343 213.18888,275.23804 205.55908,281.78165 C201.85488,284.95357 200.64023,286.51865 200.46999,288.33442 C199.98487,292.61718 203.7697,293.95379 206.23485,293.97342 C209.42963,294.00232 213.04423,292.05588 211.31886,287.5316 L214.90399,286.45734 C215.62457,290.6774 214.88309,294.6365 211.52872,296.39346 C207.0489,298.68431 201.30455,297.78619 198.40415,294.17697 C196.45479,291.75564 196.00939,288.40489 197.0551,285.78251 C200.1103,279.0836 210.47405,276.13616 211.32912,268.38513 L199.87486,268.38513 L199.87486,272.70059 L196.49959,272.70059 L196.49959,264.75638 L215.19967,264.82718 L215.19967,264.82685 Z" id="path15-5-7-4-9-4" fill="#000000"></path>
            </g>
        </g>
    </g>
</svg>