<?xml version="1.0" encoding="UTF-8"?>
<svg width="224px" height="313px" viewBox="0 0 224 313" version="1.1" xmlns="http://www.w3.org/2000/svg" xmlns:xlink="http://www.w3.org/1999/xlink">
    <!-- Generator: Sketch 50.2 (55047) - http://www.bohemiancoding.com/sketch -->
    <title>g6785</title>
    <desc>Created with Sketch.</desc>
    <defs></defs>
    <g id="Page-1" stroke="none" stroke-width="1" fill="none" fill-rule="evenodd">
        <g id="Color_52_Faces_v.2.0" transform="translate(-1844.000000, -3472.000000)" fill-rule="nonzero">
            <g id="g6785" transform="translate(1844.504429, 3472.597155)">
                <rect id="rect6894-2" stroke="#000000" stroke-width="0.996733771" fill="#FFFFFF" x="0.608072723" y="0.553298637" width="222.231615" height="310.814295" rx="10.677597"></rect>
                <path d="M17.748695,70.3029468 C15.5974436,66.7457543 13.334095,63.2883418 10.5057804,60.3349131 C13.334095,57.3815841 15.5974436,53.9241716 17.748695,50.3668794 C19.8998469,53.9241716 22.1631955,57.3815841 24.9916097,60.3349131 C22.1631955,63.2883418 19.8998469,66.7457543 17.748695,70.3029468 Z" id="path6926-2" fill="#D40000"></path>
                <path d="M163.259263,80.9902738 C158.09622,72.4528523 152.664283,64.155162 145.876328,57.0669929 C152.664283,49.9789235 158.09632,41.6812332 163.259263,33.1437121 C168.422306,41.6812332 173.854243,49.9789235 180.642199,57.0669929 C173.854243,64.155162 168.422306,72.4528523 163.259263,80.9902738 Z" id="path6928-9" fill="#D40000"></path>
                <path d="M205.700211,261.554227 C203.548959,257.997034 201.285611,254.539622 198.457296,251.586193 C201.285611,248.632864 203.548959,245.175451 205.700211,241.618159 C207.851362,245.175451 210.114611,248.632864 212.943125,251.586193 C210.114611,254.539622 207.851362,257.997034 205.700211,261.554227 Z" id="path6930-6" fill="#D40000"></path>
                <path d="M60.1887465,80.9902738 C55.0257033,72.4528523 49.5937662,64.155162 42.805811,57.0669929 C49.5937662,49.9789235 55.0258029,41.6812332 60.1887465,33.1437121 C65.3517896,41.6812332 70.7837267,49.9789235 77.571682,57.0669929 C70.7837267,64.155162 65.3517896,72.4528523 60.1887465,80.9902738 Z" id="path6932-2" fill="#D40000"></path>
                <path d="M111.724005,130.420856 C106.560962,121.883434 101.129025,113.585744 94.3410693,106.497575 C101.129025,99.4095055 106.560962,91.1118152 111.724005,82.574294 C116.887048,91.1118152 122.318985,99.4095055 129.10694,106.497575 C122.318985,113.585744 116.887048,121.883434 111.724005,130.420856 Z" id="path6938-4" fill="#D40000"></path>
                <path d="M60.1887465,179.851537 C55.0257033,171.314116 49.5937662,163.016426 42.805811,155.928257 C49.5937662,148.840187 55.0258029,140.542497 60.1887465,132.004976 C65.3517896,140.542497 70.7837267,148.840187 77.571682,155.928257 C70.7837267,163.016426 65.3517896,171.314116 60.1887465,179.851537 Z" id="path6942-4" fill="#D40000"></path>
                <path d="M163.259263,179.866988 C158.09622,171.329566 152.664283,163.031876 145.876328,155.943707 C152.664283,148.855638 158.09632,140.557947 163.259263,132.020426 C168.422306,140.557947 173.854243,148.855638 180.642199,155.943707 C173.854243,163.031876 168.422306,171.329566 163.259263,179.866988 Z" id="path6944-9" fill="#D40000"></path>
                <path d="M60.1887465,278.782278 C55.0257033,270.244857 49.5937662,261.947167 42.805811,254.858997 C49.5937662,247.770928 55.0258029,239.473238 60.1887465,230.935717 C65.3517896,239.473238 70.7837267,247.770928 77.571682,254.858997 C70.7837267,261.947167 65.3517896,270.244857 60.1887465,278.782278 Z" id="path6948-4" fill="#D40000"></path>
                <path d="M163.259263,278.789256 C158.09622,270.251834 152.664283,261.954144 145.876328,254.865975 C152.664283,247.777906 158.09632,239.480215 163.259263,230.942694 C168.422306,239.480215 173.854243,247.777906 180.642199,254.865975 C173.854243,261.954144 168.422306,270.251834 163.259263,278.789256 Z" id="path6950-4" fill="#D40000"></path>
                <path d="M111.724005,229.316908 C106.560962,220.779486 101.129025,212.481796 94.3410693,205.393627 C101.129025,198.305558 106.561061,190.007867 111.724005,181.470346 C116.887048,190.007867 122.318985,198.305558 129.10694,205.393627 C122.318985,212.481796 116.887048,220.779486 111.724005,229.316908 Z" id="path6956-4" fill="#D40000"></path>
                <path d="M7.07536616,37.6061017 C7.23146603,33.1901631 8.82631296,31.5336752 11.966031,29.2232844 C9.46116557,27.414186 8.40520169,24.7473382 8.62023723,22.4774176 C9.13602387,16.9807448 13.3752106,14.2330563 18.0009636,14.3504797 C22.6304996,14.4731862 26.6149289,18.1477025 26.9259341,22.1419933 C27.1960227,25.6141584 26.165644,27.2901836 23.7055777,29.1162277 C26.625183,31.5846119 28.4900189,33.2058129 28.4209288,37.555165 C28.3522369,41.9045172 24.6566122,47.08002 18.2158996,47.2380133 C11.7752865,47.395907 6.91528415,42.0219406 7.07536616,37.6061017 Z M25.0547266,37.6220506 C25.3298925,33.6237726 21.7998252,30.9270207 17.8152963,30.8878463 C13.9357963,30.8459806 10.4658594,34.1616477 10.4658594,37.7512363 C10.4658594,41.6058749 14.980212,43.7008565 17.8959346,43.7100271 C21.4401385,43.725976 24.8153005,41.0641123 25.0547266,37.6220506 Z M23.7798446,23.3196168 C23.8555053,19.9559038 20.75531,17.5423438 17.5554617,17.638934 C14.7102229,17.7266527 11.7010196,19.8983882 11.6959423,22.7126632 C11.6959423,26.235765 15.1210802,27.9953223 18.0457627,28.0632046 C20.7003565,28.1230128 23.7197143,25.863758 23.7798446,23.3196168 Z" id="path27-00-7-8-6" fill="#D40000"></path>
                <path d="M195.026882,274.315104 C195.182982,278.731043 196.777829,280.387431 199.917547,282.697921 C197.412681,284.50702 196.356717,287.173768 196.571753,289.443788 C197.087539,294.940461 201.326726,297.688149 205.952479,297.570626 C210.582015,297.44792 214.566445,293.773503 214.87745,289.779212 C215.147538,286.307047 214.11716,284.631022 211.657093,282.804878 C214.576699,280.336594 216.441535,278.715393 216.372444,274.366041 C216.303752,270.016689 212.608128,264.841086 206.167415,264.683192 C199.726802,264.525199 194.8668,269.899265 195.026882,274.315104 Z M213.006242,274.299155 C213.281408,278.297334 209.751341,280.994185 205.766812,281.033359 C201.887312,281.075225 198.417375,277.759558 198.417375,274.169969 C198.417375,270.315331 202.931728,268.220349 205.84745,268.211179 C209.391654,268.19523 212.766816,270.857093 213.006242,274.299155 Z M211.73136,288.601589 C211.807021,291.965302 208.706826,294.378862 205.506977,294.282272 C202.661739,294.194553 199.652535,292.022818 199.647458,289.208543 C199.647458,285.685441 203.072596,283.925883 205.997278,283.858001 C208.651872,283.798193 211.67123,286.057448 211.73136,288.601589 Z" id="path27-0-1-9-8" fill="#D40000"></path>
            </g>
        </g>
    </g>
</svg>