<?xml version="1.0" encoding="UTF-8"?>
<svg width="225px" height="313px" viewBox="0 0 225 313" version="1.1" xmlns="http://www.w3.org/2000/svg" xmlns:xlink="http://www.w3.org/1999/xlink">
    <!-- Generator: Sketch 50.2 (55047) - http://www.bohemiancoding.com/sketch -->
    <title>g6746</title>
    <desc>Created with Sketch.</desc>
    <defs></defs>
    <g id="Page-1" stroke="none" stroke-width="1" fill="none" fill-rule="evenodd">
        <g id="Color_52_Faces_v.2.0" transform="translate(-1054.000000, -3472.000000)" fill-rule="nonzero">
            <g id="g6746" transform="translate(1054.495889, 3472.597155)">
                <rect id="rect6690-8" stroke="#000000" stroke-width="0.996733771" fill="#FFFFFF" x="0.931621569" y="0.553298637" width="222.231615" height="310.814295" rx="10.677597"></rect>
                <path d="M18.0719452,70.3029049 C15.9206938,66.7457154 13.6573452,63.2883019 10.8290305,60.3348742 C13.6573452,57.3815442 15.9206938,53.9241327 18.0719452,50.3668405 C20.2231966,53.9241327 22.4864457,57.3815442 25.3148599,60.3348742 C22.4864457,63.2883019 20.2231966,66.7457154 18.0719452,70.3029049 Z" id="path6722-9" fill="#D40000"></path>
                <path d="M163.582613,80.9902339 C158.41957,72.4528124 152.987633,64.1551221 146.199578,57.0669531 C152.987633,49.9788837 158.41957,41.6811934 163.582613,33.1436722 C168.745656,41.6811934 174.177494,49.9788837 180.965548,57.0669531 C174.177494,64.1551221 168.745656,72.4528124 163.582613,80.9902339 Z" id="path6724-6" fill="#D40000"></path>
                <path d="M206.023461,261.554227 C203.872209,257.997034 201.608861,254.539622 198.780546,251.586193 C201.608861,248.632864 203.872209,245.175451 206.023461,241.618159 C208.174712,245.175451 210.437961,248.632864 213.266375,251.586193 C210.437961,254.539622 208.174712,257.997034 206.023461,261.554227 Z" id="path6726-3" fill="#D40000"></path>
                <path d="M60.5120962,80.9902339 C55.3490531,72.4528124 49.9171159,64.1551221 43.1290611,57.0669531 C49.9171159,49.9788837 55.3490531,41.6811934 60.5120962,33.1436722 C65.6751394,41.6811934 71.1069769,49.9788837 77.8950317,57.0669531 C71.1069769,64.1551221 65.6751394,72.4528124 60.5120962,80.9902339 Z" id="path6728-7" fill="#D40000"></path>
                <path d="M112.047355,179.883744 C106.884311,171.346323 101.452374,163.048632 94.6643195,155.960463 C101.452374,148.872394 106.884311,140.574704 112.047355,132.037182 C117.210398,140.574704 122.642235,148.872394 129.43029,155.960463 C122.642235,163.048632 117.210398,171.346323 112.047355,179.883744 Z" id="path6736-0" fill="#D40000"></path>
                <path d="M60.5120962,278.782318 C55.3490531,270.244897 49.9171159,261.947206 43.1290611,254.859037 C49.9171159,247.770968 55.3490531,239.473278 60.5120962,230.935756 C65.6751394,239.473278 71.1069769,247.770968 77.8950317,254.859037 C71.1069769,261.947206 65.6751394,270.244897 60.5120962,278.782318 Z" id="path6744-9" fill="#D40000"></path>
                <path d="M163.582613,278.789236 C158.41957,270.251815 152.987633,261.954124 146.199578,254.865955 C152.987633,247.777886 158.41957,239.480195 163.582613,230.942674 C168.745656,239.480195 174.177494,247.777886 180.965548,254.865955 C174.177494,261.954124 168.745656,270.251815 163.582613,278.789236 Z" id="path6746-2" fill="#D40000"></path>
                <path d="M7.71549511,38.7254122 L10.9358514,38.6945113 C11.550196,40.6799443 12.9094994,42.6980724 14.7552211,43.2580765 C19.9696339,44.5072705 23.3243874,41.5350022 24.4290329,38.1083909 C25.7691225,33.9521196 24.3991669,28.1158359 20.809268,26.0442791 C17.8347093,24.3263882 13.415032,25.7753415 11.3851363,29.4499575 L9.12985155,28.0427702 L10.3406211,14.3468912 L25.07404,14.3468912 L25.07404,17.5842095 L13.1347889,17.5842095 L12.9453386,23.289912 C15.5155111,21.4494143 19.4653954,21.4689516 22.0341742,22.7600113 C26.8992537,25.1266219 29.1596157,30.5072668 28.2150522,36.8487305 C26.9044305,43.1562032 24.0142931,46.7303413 17.4955305,47.2407047 C10.2446515,47.3074905 7.68473308,42.2228962 7.71549511,38.7258109 L7.71549511,38.7254122 Z" id="path21-9-8-2-7" fill="#D40000"></path>
                <path d="M216.377024,273.195694 L213.156668,273.226595 C212.542323,271.241062 211.18302,269.223034 209.337298,268.66303 C204.122885,267.413736 200.768132,270.386104 199.663486,273.812615 C198.323396,277.968986 199.693352,283.805171 203.283251,285.876827 C206.25781,287.594718 210.677487,286.145765 212.707383,282.471149 L214.962667,283.878336 L213.751898,297.574215 L199.018479,297.574215 L199.018479,294.336897 L210.95773,294.336897 L211.14718,288.631094 C208.577008,290.471692 204.627124,290.452154 202.058345,289.161095 C197.193265,286.794484 194.932903,281.41374 195.877467,275.072376 C197.188088,268.764803 200.078226,265.190765 206.596988,264.680302 C213.847867,264.613516 216.407786,269.69811 216.377024,273.195195 L216.377024,273.195694 Z" id="path21-3-0-8-6" fill="#D40000"></path>
            </g>
        </g>
    </g>
</svg>