<?xml version="1.0" encoding="UTF-8"?>
<svg width="224px" height="313px" viewBox="0 0 224 313" version="1.1" xmlns="http://www.w3.org/2000/svg" xmlns:xlink="http://www.w3.org/1999/xlink">
    <!-- Generator: Sketch 50.2 (55047) - http://www.bohemiancoding.com/sketch -->
    <title>g6735</title>
    <desc>Created with Sketch.</desc>
    <defs></defs>
    <g id="Page-1" stroke="none" stroke-width="1" fill="none" fill-rule="evenodd">
        <g id="Color_52_Faces_v.2.0" transform="translate(-791.000000, -3472.000000)" fill-rule="nonzero">
            <g id="g6735" transform="translate(791.491757, 3472.597155)">
                <rect id="rect6622-5" stroke="#000000" stroke-width="0.996733771" fill="#FFFFFF" x="0.707427107" y="0.553298637" width="222.231615" height="310.814295" rx="10.677597"></rect>
                <path d="M17.8477508,70.3029049 C15.6964994,66.7457154 13.4332503,63.2883019 10.6048361,60.3348742 C13.4332503,57.3815442 15.6964994,53.9241327 17.8477508,50.3668405 C19.9990021,53.9241327 22.2623508,57.3815442 25.0906654,60.3348742 C22.2623508,63.2883019 19.9990021,66.7457154 17.8477508,70.3029049 Z" id="path6654-0" fill="#D40000"></path>
                <path d="M163.358418,80.9902339 C158.195375,72.4528124 152.763538,64.1551221 145.975483,57.0669531 C152.763538,49.9788837 158.195375,41.6811934 163.358418,33.1436722 C168.521462,41.6811934 173.953399,49.9788837 180.741454,57.0669531 C173.953399,64.1551221 168.521462,72.4528124 163.358418,80.9902339 Z" id="path6656-6" fill="#D40000"></path>
                <path d="M205.799266,261.554227 C203.648015,257.997034 201.384766,254.539622 198.556352,251.586193 C201.384766,248.632864 203.648015,245.175451 205.799266,241.618159 C207.950518,245.175451 210.213866,248.632864 213.042181,251.586193 C210.213866,254.539622 207.950518,257.997034 205.799266,261.554227 Z" id="path6658-8" fill="#D40000"></path>
                <path d="M60.2879017,80.9902339 C55.1248586,72.4528124 49.693021,64.1551221 42.9049662,57.0669531 C49.693021,49.9788837 55.1248586,41.6811934 60.2879017,33.1436722 C65.4509449,41.6811934 70.882882,49.9788837 77.6709368,57.0669531 C70.882882,64.1551221 65.4509449,72.4528124 60.2879017,80.9902339 Z" id="path6660-7" fill="#D40000"></path>
                <path d="M60.2879017,278.782318 C55.1248586,270.244897 49.693021,261.947206 42.9049662,254.859037 C49.693021,247.770968 55.1248586,239.473278 60.2879017,230.935756 C65.4509449,239.473278 70.882882,247.770968 77.6709368,254.859037 C70.882882,261.947206 65.4509449,270.244897 60.2879017,278.782318 Z" id="path6676-4" fill="#D40000"></path>
                <path d="M163.358418,278.789236 C158.195375,270.251815 152.763538,261.954124 145.975483,254.865955 C152.763538,247.777886 158.195375,239.480195 163.358418,230.942674 C168.521462,239.480195 173.953399,247.777886 180.741454,254.865955 C173.953399,261.954124 168.521462,270.251815 163.358418,278.789236 Z" id="path6678-8" fill="#D40000"></path>
                <path d="M18.0767238,47.2372159 L18.0767238,44.3319328 L20.6954784,44.3319328 L20.6954784,39.5393022 L7.59652868,39.5393022 L7.59652868,36.157547 L21.7706561,14.3466919 L24.0860712,14.3586535 L24.0860712,36.1577464 L28.0960858,36.1577464 L28.0960858,39.5395015 L24.0860712,39.5395015 L24.0104105,44.3321321 L26.2054654,44.3321321 L26.2054654,47.2414024 L18.0766242,47.2414024 L18.0767238,47.2372159 Z M20.6954784,22.3317846 L11.696241,36.1588429 L20.6954784,36.1588429 L20.6954784,22.3317846 Z" id="path19-3-1-9-0" fill="#D40000"></path>
                <path d="M205.567406,264.683691 L205.567406,267.589074 L202.948652,267.589074 L202.948652,272.381704 L216.047601,272.381704 L216.047601,275.76336 L201.873474,297.574315 L199.558059,297.562353 L199.558059,275.76316 L195.548044,275.76316 L195.548044,272.381505 L199.558059,272.381505 L199.63372,267.588874 L197.438665,267.588874 L197.438665,264.679604 L205.567506,264.679604 L205.567406,264.683691 Z M202.948652,289.589222 L211.947889,275.762064 L202.948652,275.762064 L202.948652,289.589222 Z" id="path19-4-46-7-7" fill="#D40000"></path>
            </g>
        </g>
    </g>
</svg>