<?xml version="1.0" encoding="UTF-8"?>
<svg width="224px" height="313px" viewBox="0 0 224 313" version="1.1" xmlns="http://www.w3.org/2000/svg" xmlns:xlink="http://www.w3.org/1999/xlink">
    <!-- Generator: Sketch 50.2 (55047) - http://www.bohemiancoding.com/sketch -->
    <title>g6716</title>
    <desc>Created with Sketch.</desc>
    <defs></defs>
    <g id="Page-1" stroke="none" stroke-width="1" fill="none" fill-rule="evenodd">
        <g id="Color_52_Faces_v.2.0" transform="translate(-265.000000, -3472.000000)" fill-rule="nonzero">
            <g id="g6716" transform="translate(265.483127, 3472.597155)">
                <rect id="rect6486-8" stroke="#000000" stroke-width="0.996733771" fill="#FFFFFF" x="0.259336844" y="0.553298637" width="222.231615" height="310.814295" rx="10.677597"></rect>
                <path d="M111.37514,80.9902339 C106.212086,72.4528124 100.780219,64.1551221 93.9921642,57.0669531 C100.780219,49.9788837 106.212086,41.6811934 111.37514,33.1436722 C116.538193,41.6811934 121.97006,49.9788837 128.758115,57.0669531 C121.97006,64.1551221 116.538193,72.4528124 111.37514,80.9902339 Z" id="path6516-8" fill="#D40000"></path>
                <path d="M17.3997401,70.3029049 C15.2484688,66.7457154 12.9851899,63.2883019 10.1568354,60.3348742 C12.9851899,57.3815442 15.2484688,53.9241327 17.3997401,50.3668405 C19.5510114,53.9241327 21.8142904,57.3815442 24.6426449,60.3348742 C21.8142904,63.2883019 19.5510114,66.7457154 17.3997401,70.3029049 Z" id="path6518-2" fill="#D40000"></path>
                <path d="M205.351256,261.554227 C203.199984,257.997034 200.936705,254.539622 198.108351,251.586193 C200.936705,248.632864 203.199984,245.175451 205.351256,241.618159 C207.502527,245.175451 209.765806,248.632864 212.59416,251.586193 C209.765806,254.539622 207.502527,257.997034 205.351256,261.554227 Z" id="path6522-0" fill="#D40000"></path>
                <path d="M111.37514,278.777264 C106.212086,270.239843 100.780209,261.942153 93.9921642,254.853984 C100.780209,247.765914 106.212086,239.468224 111.37514,230.930703 C116.538193,239.468224 121.97006,247.765914 128.758115,254.853984 C121.97006,261.942153 116.538193,270.239843 111.37514,278.777264 Z" id="path6538-6" fill="#D40000"></path>
                <path d="M8.04824269,47.1708288 L8.20832471,45.1423339 C8.71385734,38.8741353 10.0590241,36.7595166 17.6888037,30.2160009 C21.3929899,27.0439732 22.6076421,25.4788922 22.7778786,23.6632149 C23.2630027,19.3804492 19.4781781,18.0438356 17.0130346,18.0241985 C13.8182635,17.9952912 10.2036753,19.9417492 11.9290369,24.4660403 L8.34391656,25.5402953 C7.62334839,21.3201289 8.3648228,17.3611249 11.7191781,15.6041593 C16.1989857,13.3133058 21.9433216,14.2114256 24.8437131,17.8206513 C26.79307,20.2419864 27.2384723,23.5927409 26.1927624,26.2151312 C23.1375653,32.9140486 12.7738478,35.8614964 11.9187829,43.6125398 L23.3730093,43.6125398 L23.3730093,39.2970789 L26.7482709,39.2970789 L26.7482709,47.2413028 L8.04824269,47.1705297 L8.04824269,47.1708288 Z" id="path15-34-1-4-2" fill="#D40000"></path>
                <path d="M214.699786,264.750178 L214.539704,266.778672 C214.034172,273.046771 212.689005,275.16139 205.059225,281.705006 C201.355039,284.876934 200.140387,286.442014 199.970151,288.257792 C199.485026,292.540557 203.269851,293.877171 205.734995,293.896808 C208.929766,293.925715 212.544354,291.979257 210.818992,287.454966 L214.404113,286.380711 C215.124681,290.600778 214.383206,294.559881 211.028851,296.316847 C206.549043,298.607701 200.804708,297.709581 197.904316,294.100355 C195.954959,291.67902 195.509557,288.328266 196.555267,285.705875 C199.610464,279.006958 209.974181,276.05951 210.829246,268.308467 L199.37502,268.308467 L199.37502,272.623927 L195.999758,272.623927 L195.999758,264.679704 L214.699786,264.750477 L214.699786,264.750178 Z" id="path15-5-4-6-4" fill="#D40000"></path>
            </g>
        </g>
    </g>
</svg>