<?xml version="1.0" encoding="UTF-8"?>
<svg width="224px" height="313px" viewBox="0 0 224 313" version="1.1" xmlns="http://www.w3.org/2000/svg" xmlns:xlink="http://www.w3.org/1999/xlink">
    <!-- Generator: Sketch 50.2 (55047) - http://www.bohemiancoding.com/sketch -->
    <title>g6771</title>
    <desc>Created with Sketch.</desc>
    <defs></defs>
    <g id="Page-1" stroke="none" stroke-width="1" fill="none" fill-rule="evenodd">
        <g id="Color_52_Faces_v.2.0" transform="translate(-1581.000000, -3472.000000)" fill-rule="nonzero">
            <g id="g6771" transform="translate(1581.500175, 3472.597155)">
                <rect id="rect6826-9" stroke="#000000" stroke-width="0.996733771" fill="#FFFFFF" x="0.383977815" y="0.553298637" width="222.231615" height="310.814295" rx="10.677597"></rect>
                <path d="M17.5245006,70.3029049 C15.3732492,66.7457154 13.1099006,63.2883019 10.2815859,60.3348742 C13.1099006,57.3815442 15.3732492,53.9241327 17.5245006,50.3668405 C19.675752,53.9241327 21.939001,57.3815442 24.7674153,60.3348742 C21.939001,63.2883019 19.675752,66.7457154 17.5245006,70.3029049 Z" id="path6858-4" fill="#D40000"></path>
                <path d="M163.035168,80.9902339 C157.872125,72.4528124 152.440188,64.1551221 145.652133,57.0669531 C152.440188,49.9788837 157.872125,41.6811934 163.035168,33.1436722 C168.198211,41.6811934 173.630049,49.9788837 180.418104,57.0669531 C173.630049,64.1551221 168.198211,72.4528124 163.035168,80.9902339 Z" id="path6860-1" fill="#D40000"></path>
                <path d="M205.476016,261.554227 C203.324765,257.997034 201.061416,254.539622 198.233101,251.586193 C201.061416,248.632864 203.324765,245.175451 205.476016,241.618159 C207.627268,245.175451 209.890517,248.632864 212.718931,251.586193 C209.890517,254.539622 207.627268,257.997034 205.476016,261.554227 Z" id="path6862-0" fill="#D40000"></path>
                <path d="M59.9646516,80.9902339 C54.8016084,72.4528124 49.3696713,64.1551221 42.5816165,57.0669531 C49.3696713,49.9788837 54.8016084,41.6811934 59.9646516,33.1436722 C65.1276947,41.6811934 70.5595323,49.9788837 77.3475871,57.0669531 C70.5595323,64.1551221 65.1276947,72.4528124 59.9646516,80.9902339 Z" id="path6864-5" fill="#D40000"></path>
                <path d="M111.49991,130.420876 C106.336867,121.883454 100.90493,113.585754 94.1168749,106.497595 C100.90493,99.4095215 106.336867,91.1118312 111.49991,82.574311 C116.662953,91.1118312 122.094791,99.4095215 128.882845,106.497595 C122.094791,113.585754 116.662953,121.883454 111.49991,130.420876 Z" id="path6870-5" fill="#D40000"></path>
                <path d="M59.9646516,179.851508 C54.8016084,171.314086 49.3696713,163.016396 42.5816165,155.928227 C49.3696713,148.840157 54.8016084,140.542467 59.9646516,132.004946 C65.1276947,140.542467 70.5595323,148.840157 77.3475871,155.928227 C70.5595323,163.016396 65.1276947,171.314086 59.9646516,179.851508 Z" id="path6874-1" fill="#D40000"></path>
                <path d="M163.035168,179.867028 C157.872125,171.329606 152.440188,163.031916 145.652133,155.943747 C152.440188,148.855678 157.872125,140.557987 163.035168,132.020466 C168.198211,140.557987 173.630049,148.855678 180.418104,155.943747 C173.630049,163.031916 168.198211,171.329606 163.035168,179.867028 Z" id="path6876-6" fill="#D40000"></path>
                <path d="M59.9646516,278.782318 C54.8016084,270.244897 49.3696713,261.947206 42.5816165,254.859037 C49.3696713,247.770968 54.8016084,239.473278 59.9646516,230.935756 C65.1276947,239.473278 70.5595323,247.770968 77.3475871,254.859037 C70.5595323,261.947206 65.1276947,270.244897 59.9646516,278.782318 Z" id="path6880-5" fill="#D40000"></path>
                <path d="M163.035168,278.789236 C157.872125,270.251815 152.440188,261.954124 145.652133,254.865955 C152.440188,247.777886 157.872125,239.480195 163.035168,230.942674 C168.198211,239.480195 173.630049,247.777886 180.418104,254.865955 C173.630049,261.954124 168.198211,270.251815 163.035168,278.789236 Z" id="path6882-9" fill="#D40000"></path>
                <path d="M12.4729573,47.2377143 C14.6335667,35.8010902 16.9335511,27.215224 22.9723663,17.8971061 L10.6977195,17.8971061 L10.6977195,21.9080435 L7.43893551,21.9080435 L7.43893551,14.3467915 L25.3927107,14.3467915 L27.607079,17.8971061 C21.1932458,24.9075245 15.3233729,47.5692511 16.3627113,47.2377143 L12.4729573,47.2377143 Z" id="path25-43-4-8-8" fill="#D40000"></path>
                <path d="M210.524573,264.683292 C208.363963,276.119817 206.063979,284.705782 200.025164,294.0239 L212.299811,294.0239 L212.299811,290.012863 L215.558595,290.012863 L215.558595,297.574215 L197.604819,297.574215 L195.390451,294.0239 C201.804284,287.013482 207.674157,264.351755 206.634819,264.683292 L210.524573,264.683292 Z" id="path25-7-0-7-6" fill="#D40000"></path>
            </g>
        </g>
    </g>
</svg>