<?xml version="1.0" encoding="UTF-8"?>
<svg width="224px" height="313px" viewBox="0 0 224 313" version="1.1" xmlns="http://www.w3.org/2000/svg" xmlns:xlink="http://www.w3.org/1999/xlink">
    <!-- Generator: Sketch 50.2 (55047) - http://www.bohemiancoding.com/sketch -->
    <title>g6758</title>
    <desc>Created with Sketch.</desc>
    <defs></defs>
    <g id="Page-1" stroke="none" stroke-width="1" fill="none" fill-rule="evenodd">
        <g id="Color_52_Faces_v.2.0" transform="translate(-1318.000000, -3472.000000)" fill-rule="nonzero">
            <g id="g6758" transform="translate(1318.495800, 3472.597155)">
                <rect id="rect6758-6" stroke="#000000" stroke-width="0.996733771" fill="#FFFFFF" x="0.160082014" y="0.553298637" width="222.231615" height="310.814295" rx="10.677597"></rect>
                <path d="M17.3004057,70.3029049 C15.1491543,66.7457154 12.8858057,63.2883019 10.057491,60.3348742 C12.8858057,57.3815442 15.1491543,53.9241327 17.3004057,50.3668405 C19.4516571,53.9241327 21.7149061,57.3815442 24.5433204,60.3348742 C21.7149061,63.2883019 19.4516571,66.7457154 17.3004057,70.3029049 Z" id="path6790-5" fill="#D40000"></path>
                <path d="M162.811073,80.9902339 C157.64803,72.4528124 152.216093,64.1551221 145.428038,57.0669531 C152.216093,49.9788837 157.64803,41.6811934 162.811073,33.1436722 C167.974117,41.6811934 173.405954,49.9788837 180.194009,57.0669531 C173.405954,64.1551221 167.974117,72.4528124 162.811073,80.9902339 Z" id="path6792-5" fill="#D40000"></path>
                <path d="M205.251921,261.554227 C203.10067,257.997034 200.837321,254.539622 198.009007,251.586193 C200.837321,248.632864 203.10067,245.175451 205.251921,241.618159 C207.403173,245.175451 209.666422,248.632864 212.494836,251.586193 C209.666422,254.539622 207.403173,257.997034 205.251921,261.554227 Z" id="path6794-1" fill="#D40000"></path>
                <path d="M59.7405566,80.9902339 C54.5775135,72.4528124 49.1455764,64.1551221 42.3575216,57.0669531 C49.1455764,49.9788837 54.5775135,41.6811934 59.7405566,33.1436722 C64.9035998,41.6811934 70.3354374,49.9788837 77.1234922,57.0669531 C70.3354374,64.1551221 64.9035998,72.4528124 59.7405566,80.9902339 Z" id="path6796-2" fill="#D40000"></path>
                <path d="M59.7405566,179.851508 C54.5775135,171.314086 49.1455764,163.016396 42.3575216,155.928227 C49.1455764,148.840157 54.5775135,140.542467 59.7405566,132.004946 C64.9035998,140.542467 70.3354374,148.840157 77.1234922,155.928227 C70.3354374,163.016396 64.9035998,171.314086 59.7405566,179.851508 Z" id="path6806-6" fill="#D40000"></path>
                <path d="M162.811073,179.867028 C157.64803,171.329606 152.216093,163.031916 145.428038,155.943747 C152.216093,148.855678 157.64803,140.557987 162.811073,132.020466 C167.974117,140.557987 173.405954,148.855678 180.194009,155.943747 C173.405954,163.031916 167.974117,171.329606 162.811073,179.867028 Z" id="path6808-6" fill="#D40000"></path>
                <path d="M59.7405566,278.782318 C54.5775135,270.244897 49.1455764,261.947206 42.3575216,254.859037 C49.1455764,247.770968 54.5775135,239.473278 59.7405566,230.935756 C64.9035998,239.473278 70.3354374,247.770968 77.1234922,254.859037 C70.3354374,261.947206 64.9035998,270.244897 59.7405566,278.782318 Z" id="path6812-0" fill="#D40000"></path>
                <path d="M162.811073,278.789236 C157.64803,270.251815 152.216093,261.954124 145.428038,254.865955 C152.216093,247.777886 157.64803,239.480195 162.811073,230.942674 C167.974117,239.480195 173.405954,247.777886 180.194009,254.865955 C173.405954,261.954124 167.974117,270.251815 162.811073,278.789236 Z" id="path6814-4" fill="#D40000"></path>
                <path d="M7.6512831,37.1209575 C7.24679727,34.3524358 7.25705128,27.1953876 7.58756887,25.0781773 C8.60769349,18.5920774 11.0817969,15.623896 15.2262087,14.6553022 C19.2516541,13.7115288 24.9064915,14.7623589 26.1467289,20.1832746 L22.7817213,20.2490637 C20.9616844,16.5838177 16.3564395,17.5627783 13.7619759,19.157863 C11.6923584,20.4278902 10.7566551,25.7313825 11.1572584,26.0577359 C11.1572584,26.0577359 15.071403,23.1547455 18.1573621,23.3687592 C24.7515863,24.0566532 27.4714872,29.7830892 27.2410208,35.189651 C27.0311621,41.6939923 24.971699,46.895711 17.9819489,47.2416018 C11.3364547,46.9844265 8.2915116,43.3569594 7.65158176,37.1215556 L7.6512831,37.1209575 Z M24.0408739,35.4031663 C24.0767131,30.8907371 22.0313867,27.5086829 18.1570635,27.1379717 C14.2865233,26.7646689 10.3813385,30.547438 10.6514271,35.1473865 C10.9215157,39.7668724 12.7070076,43.6528106 17.4018507,43.6318778 C22.4512037,43.6119417 24.0165828,38.6155645 24.0408739,35.4031663 Z" id="path23-5-3-5-5" fill="#D40000"></path>
                <path d="M214.898157,274.799451 C215.302643,277.568072 215.292389,284.72512 214.961871,286.842331 C213.941746,293.328431 211.467643,296.296612 207.323231,297.265206 C203.297786,298.208979 197.642948,297.158149 196.402711,291.737233 L199.767719,291.672441 C201.587755,295.337687 206.193,294.358727 208.787464,292.763642 C210.857081,291.493615 211.792785,286.190122 211.392181,285.863769 C211.392181,285.863769 207.478037,288.766759 204.392078,288.552746 C197.797854,287.864852 195.077953,282.138416 195.308419,276.731854 C195.518278,270.227512 197.577741,265.025893 204.567491,264.680003 C211.212985,264.937178 214.257928,268.564645 214.897858,274.799949 L214.898157,274.799451 Z M198.508566,276.517242 C198.472727,281.029771 200.518053,284.411825 204.392376,284.782536 C208.262917,285.155839 212.168101,281.37307 211.898013,276.773121 C211.627924,272.153735 209.842432,268.267797 205.147589,268.28873 C200.098236,268.308666 198.532857,273.305043 198.508566,276.517242 Z" id="path23-6-5-6-6" fill="#D40000"></path>
            </g>
        </g>
    </g>
</svg>