<?xml version="1.0" encoding="UTF-8"?>
<svg width="224px" height="313px" viewBox="0 0 224 313" version="1.1" xmlns="http://www.w3.org/2000/svg" xmlns:xlink="http://www.w3.org/1999/xlink">
    <!-- Generator: Sketch 50.2 (55047) - http://www.bohemiancoding.com/sketch -->
    <title>g6708</title>
    <desc>Created with Sketch.</desc>
    <defs></defs>
    <g id="Page-1" stroke="none" stroke-width="1" fill="none" fill-rule="evenodd">
        <g id="Color_52_Faces_v.2.0" transform="translate(-2.000000, -3472.000000)" fill-rule="nonzero">
            <g id="g6708" transform="translate(2.478934, 3472.597155)">
                <rect id="rect6367-6" stroke="#000000" stroke-width="0.996733771" fill="#FFFFFF" x="0.0351822037" y="0.553298637" width="222.231615" height="310.814295" rx="10.677597"></rect>
                <path d="M17.1756651,70.3028471 C15.0243142,66.7456546 12.7610651,63.2882421 9.93275046,60.3348134 C12.7610651,57.3814844 15.0243142,53.9240719 17.1756651,50.3667797 C19.3269165,53.9240719 21.5901656,57.3814844 24.4184803,60.3348134 C21.5901656,63.2882421 19.3269165,66.7456546 17.1756651,70.3028471 Z" id="path6399-9" fill="#D40000"></path>
                <path d="M205.12723,261.554127 C202.97588,257.996934 200.71263,254.539522 197.884316,251.586093 C200.71263,248.632764 202.97588,245.175352 205.12723,241.61806 C207.278482,245.175352 209.541731,248.632764 212.370046,251.586093 C209.541731,254.539522 207.278482,257.996934 205.12723,261.554127 Z" id="path6403-1" fill="#D40000"></path>
                <path d="M111.150975,179.883734 C105.987932,171.346313 100.556094,163.048622 93.7680394,155.960453 C100.556094,148.872384 105.987932,140.574694 111.150975,132.037172 C116.314118,140.574694 121.745955,148.872384 128.53401,155.960453 C121.745955,163.048622 116.314118,171.346313 111.150975,179.883734 Z" id="path6413-1" fill="#D40000"></path>
                <path d="M7.12714393,47.2413028 L7.12714393,44.4286227 L9.80742257,44.4286227 L15.5172135,14.3467915 L18.7670377,14.3467915 L25.0567277,44.4286227 L27.2211201,44.4286227 L27.2211201,47.2413028 L19.8459984,47.2413028 L19.8459984,44.4286227 L21.8363713,44.4286227 L21.0415363,39.8187061 L13.601207,39.8187061 L13.0264847,44.4286227 L15.0167581,44.4286227 L15.0167581,47.2413028 L7.12714393,47.2413028 Z M20.4066836,36.5349368 L17.1721907,20.43417 L14.1425789,36.5349368 L20.4066836,36.5349368 Z" id="path41-87-9-4-8" fill="#D40000"></path>
                <path d="M195.078689,264.679604 L195.078689,267.492284 L197.758968,267.492284 L203.468759,297.574115 L206.718583,297.574115 L213.008273,267.492284 L215.172666,267.492284 L215.172666,264.679604 L207.797544,264.679604 L207.797544,267.492284 L209.787917,267.492284 L208.993082,272.102101 L201.552752,272.102101 L200.97803,267.492284 L202.968304,267.492284 L202.968304,264.679604 L195.078689,264.679604 Z M208.358229,275.38597 L205.123736,291.486737 L202.094124,275.38597 L208.358229,275.38597 Z" id="path41-8-5-6-1" fill="#D40000"></path>
            </g>
        </g>
    </g>
</svg>