<?xml version="1.0" encoding="UTF-8"?>
<svg width="224px" height="313px" viewBox="0 0 224 313" version="1.1" xmlns="http://www.w3.org/2000/svg" xmlns:xlink="http://www.w3.org/1999/xlink">
    <!-- Generator: Sketch 50.2 (55047) - http://www.bohemiancoding.com/sketch -->
    <title>g6725</title>
    <desc>Created with Sketch.</desc>
    <defs></defs>
    <g id="Page-1" stroke="none" stroke-width="1" fill="none" fill-rule="evenodd">
        <g id="Color_52_Faces_v.2.0" transform="translate(-528.000000, -3472.000000)" fill-rule="nonzero">
            <g id="g6725" transform="translate(528.487381, 3472.597155)">
                <rect id="rect6554-0" stroke="#000000" stroke-width="0.996733771" fill="#FFFFFF" x="0.483431752" y="0.553298637" width="222.231615" height="310.814295" rx="10.677597"></rect>
                <path d="M111.599264,80.9902339 C106.436221,72.4528124 101.004284,64.1551221 94.2162292,57.0669531 C101.004284,49.9788837 106.436221,41.6811934 111.599264,33.1436722 C116.762307,41.6811934 122.194145,49.9788837 128.9822,57.0669531 C122.194145,64.1551221 116.762307,72.4528124 111.599264,80.9902339 Z" id="path6584-3" fill="#D40000"></path>
                <path d="M17.623855,70.3029049 C15.4726036,66.7457154 13.209255,63.2883019 10.3809403,60.3348742 C13.209255,57.3815442 15.4726036,53.9241327 17.623855,50.3668405 C19.7751063,53.9241327 22.0383554,57.3815442 24.8667696,60.3348742 C22.0383554,63.2883019 19.7751063,66.7457154 17.623855,70.3029049 Z" id="path6586-2" fill="#D40000"></path>
                <path d="M205.575371,261.554227 C203.424119,257.997034 201.160771,254.539622 198.332456,251.586193 C201.160771,248.632864 203.424119,245.175451 205.575371,241.618159 C207.726622,245.175451 209.989871,248.632864 212.818285,251.586193 C209.989871,254.539622 207.726622,257.997034 205.575371,261.554227 Z" id="path6590-7" fill="#D40000"></path>
                <path d="M111.599264,179.883744 C106.436221,171.346323 101.004284,163.048632 94.2162292,155.960463 C101.004284,148.872394 106.436221,140.574704 111.599264,132.037182 C116.762307,140.574704 122.194145,148.872394 128.9822,155.960463 C122.194145,163.048632 116.762307,171.346323 111.599264,179.883744 Z" id="path6600-5" fill="#D40000"></path>
                <path d="M111.599264,278.777264 C106.436221,270.239843 101.004284,261.942153 94.2162292,254.853984 C101.004284,247.765914 106.436221,239.468224 111.599264,230.930703 C116.762307,239.468224 122.194145,247.765914 128.9822,254.853984 C122.194145,261.942153 116.762307,270.239843 111.599264,278.777264 Z" id="path6606-3" fill="#D40000"></path>
                <path d="M6.96012304,40.0308259 L9.48933921,38.1682988 C11.6843941,41.7471219 14.1392837,44.1043625 17.8946405,43.6997601 C23.5289698,43.3121032 25.8635987,37.3981685 24.6847859,32.9421584 C23.5444006,28.9443788 18.8789258,26.9970238 15.1696623,29.1283887 C14.2941889,29.633469 13.4494775,30.0459462 13.2843183,30.0459462 C12.8952632,30.0459462 12.0146131,28.2917716 12.1349732,27.7565879 C14.6244078,24.1163617 20.6695945,17.7391128 20.6695945,17.7391128 L11.2248552,17.7391128 L11.2248552,22.0098171 L7.60015243,22.0098171 L7.60015243,14.3468912 L26.0594205,14.3468912 L26.0594205,16.9468535 C26.0594205,16.9468535 21.1137026,22.0828828 19.4792334,24.8955629 C23.5046788,25.0430898 26.7493262,27.5973984 27.914102,31.6356482 C28.5937537,33.7619295 28.28912,38.6251338 27.39951,40.7212119 C25.9135746,44.2153068 21.8547788,47.0502155 18.1443206,47.2133923 C11.9147609,47.6323487 8.61002304,43.2624624 6.96012304,40.0308259 Z" id="path17-2-9-4-8" fill="#D40000"></path>
                <path d="M216.236056,271.89028 L213.7068,273.752807 C211.511745,270.173884 209.056856,267.816644 205.301499,268.221346 C199.667169,268.609003 197.332541,274.522838 198.511353,278.978848 C199.651739,282.976727 204.317214,284.924082 208.026477,282.792717 C208.90195,282.287537 209.746662,281.87516 209.911821,281.87516 C210.300876,281.87516 211.181526,283.629334 211.061166,284.164418 C208.571731,287.804744 202.526545,294.181993 202.526545,294.181993 L211.971284,294.181993 L211.971284,289.911289 L215.596027,289.911289 L215.596027,297.574215 L197.136719,297.574215 L197.136719,294.974253 C197.136719,294.974253 202.082437,289.838223 203.716906,287.025443 C199.691461,286.878016 196.446813,284.323708 195.282037,280.285358 C194.602386,278.159177 194.907019,273.295972 195.796629,271.199794 C197.282565,267.705799 201.341361,264.870791 205.051819,264.707714 C211.281378,264.288757 214.586156,268.658544 216.236056,271.89028 Z" id="path17-5-3-3-8" fill="#D40000"></path>
            </g>
        </g>
    </g>
</svg>