<?xml version="1.0" encoding="UTF-8"?>
<svg width="224px" height="312px" viewBox="0 0 224 312" version="1.1" xmlns="http://www.w3.org/2000/svg" xmlns:xlink="http://www.w3.org/1999/xlink">
    <!-- Generator: Sketch 50.2 (55047) - http://www.bohemiancoding.com/sketch -->
    <title>g11270-7-7</title>
    <desc>Created with Sketch.</desc>
    <defs></defs>
    <g id="Page-1" stroke="none" stroke-width="1" fill="none" fill-rule="evenodd">
        <g id="Color_52_Faces_v.2.0" transform="translate(-1318.000000, -2769.000000)" fill-rule="nonzero">
            <g id="g11270-7-7" transform="translate(1318.041639, 2768.530683)">
                <g id="g10004-9-9" transform="translate(0.182781, 0.722083)" fill="#FFFFFF" stroke="#000000" stroke-width="0.99673417">
                    <rect id="rect10006-6-1" x="0.431107663" y="0.274688545" width="222.232247" height="310.813662" rx="10.677567"></rect>
                </g>
                <path d="M17.7543285,70.7462407 C17.7543285,70.7462407 15.5395557,67.5666637 12.5519489,63.8283397 C10.5532078,61.3266773 8.9553697,58.6178398 8.80673591,56.284597 C8.6363994,53.6192698 10.2492701,50.9453203 13.1692818,50.8157162 C16.0875992,50.6862018 17.27209,52.8708016 17.7543285,54.6719319 C18.2365669,52.8708016 19.4211573,50.6862018 22.3393771,50.8157162 C25.2593888,50.9453203 26.8723591,53.6192698 26.701923,56.284597 C26.5533888,58.6178398 24.9554512,61.3266773 22.9568096,63.8283397 C19.9691013,67.5666637 17.7543285,70.7462407 17.7543285,70.7462407 Z" id="path10038-5-0" fill="#D40000"></path>
                <path d="M205.706374,242.061145 C205.706374,242.061145 203.491602,245.240722 200.503993,248.979046 C198.505252,251.480708 196.907414,254.189546 196.75878,256.522789 C196.588443,259.188116 198.201314,261.862065 201.121326,261.99167 C204.039645,262.121184 205.224136,259.936584 205.706374,258.135454 C206.188613,259.936584 207.373203,262.121184 210.291423,261.99167 C213.211431,261.862065 214.824401,259.188116 214.653965,256.522789 C214.505431,254.189546 212.907493,251.480708 210.908855,248.979046 C207.921147,245.240722 205.706374,242.061145 205.706374,242.061145 Z" id="path10040-7-6" fill="#D40000"></path>
                <path d="M60.1945483,81.4335459 C60.1945483,81.4335459 55.5490706,73.8025632 49.2825587,64.8305636 C45.0903493,58.82657 41.7387719,52.3253619 41.4271686,46.7255712 C41.0697706,40.328788 44.4528069,33.9113112 50.5775542,33.6002792 C56.698618,33.2894268 59.1831815,38.5324822 60.1945483,42.8551909 C61.2060147,38.5324822 63.6905782,33.2894268 69.811642,33.6002792 C75.9363893,33.9113112 79.3194256,40.328788 78.9620276,46.7255712 C78.6504243,52.3253619 75.2988469,58.82657 71.1066375,64.8305636 C64.8401256,73.8025632 60.1945483,81.4335459 60.1945483,81.4335459 Z" id="path10046-1-1" fill="#D40000"></path>
                <path d="M163.265356,180.326856 C163.265356,180.326856 158.619878,172.695873 152.353366,163.723873 C148.161157,157.71988 144.80958,151.218672 144.497976,145.618881 C144.140578,139.222098 147.523615,132.804621 153.648362,132.493589 C159.769426,132.182737 162.253989,137.425792 163.265356,141.748501 C164.276822,137.425792 166.761386,132.182737 172.88245,132.493589 C179.007197,132.804621 182.390233,139.222098 182.032835,145.618881 C181.721232,151.218672 178.369655,157.71988 174.177445,163.723873 C167.910933,172.695873 163.265356,180.326856 163.265356,180.326856 Z" id="path10048-2-0" fill="#D40000"></path>
                <path d="M163.265356,81.4335459 C163.265356,81.4335459 158.619878,73.8025632 152.353366,64.8305636 C148.161157,58.82657 144.80958,52.3253619 144.497976,46.7255712 C144.140578,40.328788 147.523615,33.9113112 153.648362,33.6002792 C159.769426,33.2894268 162.253989,38.5324822 163.265356,42.8551909 C164.276822,38.5324822 166.761386,33.2894268 172.88245,33.6002792 C179.007197,33.9113112 182.390233,40.328788 182.032835,46.7255712 C181.721232,52.3253619 178.369655,58.82657 174.177445,64.8305636 C167.910933,73.8025632 163.265356,81.4335459 163.265356,81.4335459 Z" id="path10052-3-1" fill="#D40000"></path>
                <path d="M60.1945483,180.326856 C60.1945483,180.326856 55.5490706,172.695873 49.2825587,163.723883 C45.0903493,157.71989 41.7387719,151.218682 41.4271686,145.618891 C41.0697706,139.222108 44.4528069,132.804631 50.5775542,132.493599 C56.698618,132.182747 59.1831815,137.425802 60.1945483,141.748511 C61.2060147,137.425802 63.6905782,132.182747 69.811642,132.493599 C75.9363893,132.804631 79.3194256,139.222108 78.9620276,145.618891 C78.6504243,151.218682 75.2988469,157.71989 71.1066375,163.723883 C64.8401256,172.695873 60.1945483,180.326856 60.1945483,180.326856 Z" id="path10056-4-2" fill="#D40000"></path>
                <path d="M163.265356,231.37371 C163.265356,231.37371 158.619878,239.004693 152.353366,247.976693 C148.161157,253.980686 144.80958,260.481894 144.497976,266.081685 C144.140578,272.478468 147.523615,278.895945 153.648362,279.206977 C159.769426,279.517829 162.253989,274.274774 163.265356,269.952065 C164.276822,274.274774 166.761386,279.517829 172.88245,279.206977 C179.007197,278.895945 182.390233,272.478468 182.032835,266.081685 C181.721232,260.481894 178.369655,253.980686 174.177445,247.976693 C167.910933,239.004693 163.265356,231.37371 163.265356,231.37371 Z" id="path10066-9-2" fill="#D40000"></path>
                <path d="M60.1945483,231.37371 C60.1945483,231.37371 55.5490706,239.004693 49.2825587,247.976693 C45.0903493,253.980686 41.7387719,260.481894 41.4271686,266.081685 C41.0697706,272.478468 44.4528069,278.895945 50.5775542,279.206977 C56.698618,279.517829 59.1831815,274.274774 60.1945483,269.952065 C61.2060147,274.274774 63.6905782,279.517829 69.811642,279.206977 C75.9363893,278.895945 79.3194256,272.478468 78.9620276,266.081685 C78.6504243,260.481894 75.2988469,253.980686 71.1066375,247.976693 C64.8401256,239.004693 60.1945483,231.37371 60.1945483,231.37371 Z" id="path10068-1-2" fill="#D40000"></path>
                <path d="M8.10517051,37.5649569 C7.70068353,34.7963412 7.71093757,27.6393076 8.04145609,25.5221015 C9.06158362,19.0360149 11.535694,16.0678395 15.6801176,15.0992477 C19.7055745,14.1554761 25.3604279,15.2063041 26.6006689,20.6272088 L23.2356517,20.6920009 C21.4156096,17.0267624 16.8103516,18.005721 14.2158807,19.6008025 C12.1462573,20.8708271 11.2105514,26.1743086 11.6111558,26.5006614 C11.6111558,26.5006614 15.5253115,23.5976768 18.6112794,23.8116901 C25.2055223,24.4995827 27.9254309,30.226007 27.6949639,35.6325578 C27.4851046,42.1369856 25.4256357,47.338594 18.4358656,47.6844841 C11.7903526,47.4273094 8.74540083,43.7998496 8.10546917,37.5644585 L8.10517051,37.5649569 Z M24.4948079,35.8471691 C24.5306472,31.3346495 22.4853149,27.9526022 18.6109807,27.5818918 C14.7404295,27.2085897 10.8352337,30.9913511 11.105323,35.5912902 C11.3754124,40.2107667 13.1609094,44.096697 17.8557658,44.0757642 C22.9051332,44.0558282 24.4705168,39.0594611 24.4948079,35.8471691 Z" id="path23-5-2-7-3" fill="#D40000"></path>
                <path d="M215.352733,275.242438 C215.75722,278.011054 215.746866,285.168087 215.416447,287.285293 C214.39632,293.77138 211.922209,296.739555 207.777686,297.708147 C203.752229,298.651919 198.097376,297.601091 196.857135,292.180186 L200.222152,292.115394 C202.042294,295.780632 206.647552,294.801674 209.242023,293.206592 C211.311646,291.936568 212.247252,286.633086 211.846648,286.306733 C211.846648,286.306733 207.932492,289.209718 204.846524,288.995705 C198.252381,288.307812 195.532373,282.581388 195.76284,277.174837 C195.972699,270.670409 198.032168,265.468801 205.021938,265.122911 C211.667551,265.380085 214.712403,269.007545 215.352434,275.242936 L215.352733,275.242438 Z M198.962996,276.960226 C198.927157,281.472745 200.972489,284.854793 204.846923,285.225503 C208.717374,285.598805 212.62257,281.816044 212.352481,277.216105 C212.082491,272.596628 210.296994,268.710698 205.602138,268.731631 C200.55277,268.751567 198.987387,273.747934 198.962996,276.960226 Z" id="path23-6-5-1-7-1" fill="#D40000"></path>
            </g>
        </g>
    </g>
</svg>