<?xml version="1.0" encoding="UTF-8"?>
<svg width="225px" height="312px" viewBox="0 0 225 312" version="1.1" xmlns="http://www.w3.org/2000/svg" xmlns:xlink="http://www.w3.org/1999/xlink">
    <!-- Generator: Sketch 50.2 (55047) - http://www.bohemiancoding.com/sketch -->
    <title>g11305-8-4</title>
    <desc>Created with Sketch.</desc>
    <defs></defs>
    <g id="Page-1" stroke="none" stroke-width="1" fill="none" fill-rule="evenodd">
        <g id="Color_52_Faces_v.2.0" transform="translate(-1054.000000, -2769.000000)" fill-rule="nonzero">
            <g id="g11305-8-4" transform="translate(1054.660179, 2768.530683)">
                <g id="g9936-1-0" transform="translate(0.335894, 0.722083)" fill="#FFFFFF" stroke="#000000" stroke-width="0.99673417">
                    <rect id="rect9938-9-5" x="0.431107663" y="0.274688545" width="222.232247" height="310.813662" rx="10.677567"></rect>
                </g>
                <path d="M17.9074422,70.7462407 C17.9074422,70.7462407 15.6926694,67.5666637 12.7050626,63.8283397 C10.7063215,61.3266773 9.1084834,58.6178398 8.95984962,56.284597 C8.78951311,53.6192698 10.4023838,50.9453203 13.3223955,50.8157162 C16.2407129,50.6862018 17.4252037,52.8708016 17.9074422,54.6719319 C18.3896807,52.8708016 19.574271,50.6862018 22.4924908,50.8157162 C25.4125025,50.9453203 27.0254728,53.6192698 26.8550367,56.284597 C26.7065025,58.6178398 25.1085649,61.3266773 23.1099233,63.8283397 C20.122215,67.5666637 17.9074422,70.7462407 17.9074422,70.7462407 Z" id="path9970-5-6" fill="#D40000"></path>
                <path d="M205.859488,242.061145 C205.859488,242.061145 203.644715,245.240722 200.657106,248.979046 C198.658365,251.480708 197.060527,254.189546 196.911893,256.522789 C196.741557,259.188116 198.354428,261.862065 201.274439,261.99167 C204.192759,262.121184 205.37725,259.936584 205.859488,258.135454 C206.341727,259.936584 207.526317,262.121184 210.444537,261.99167 C213.364544,261.862065 214.977515,259.188116 214.807079,256.522789 C214.658544,254.189546 213.060607,251.480708 211.061969,248.979046 C208.074261,245.240722 205.859488,242.061145 205.859488,242.061145 Z" id="path9972-9-9" fill="#D40000"></path>
                <path d="M60.347662,81.4335459 C60.347662,81.4335459 55.7021843,73.8025632 49.4356724,64.8305636 C45.243463,58.82657 41.8918856,52.3253619 41.5802823,46.7255712 C41.2228843,40.328788 44.6059206,33.9113112 50.7306679,33.6002792 C56.8517317,33.2894268 59.3362952,38.5324822 60.347662,42.8551909 C61.3591284,38.5324822 63.8436919,33.2894268 69.9647557,33.6002792 C76.089503,33.9113112 79.4725393,40.328788 79.1151413,46.7255712 C78.803538,52.3253619 75.4519606,58.82657 71.2597512,64.8305636 C64.9932393,73.8025632 60.347662,81.4335459 60.347662,81.4335459 Z" id="path9978-0-4" fill="#D40000"></path>
                <path d="M163.41847,81.4335459 C163.41847,81.4335459 158.772992,73.8025632 152.50648,64.8305636 C148.314271,58.82657 144.962693,52.3253619 144.65109,46.7255712 C144.293692,40.328788 147.676728,33.9113112 153.801476,33.6002792 C159.922539,33.2894268 162.407103,38.5324822 163.41847,42.8551909 C164.429936,38.5324822 166.9145,33.2894268 173.035563,33.6002792 C179.160311,33.9113112 182.543347,40.328788 182.185949,46.7255712 C181.874346,52.3253619 178.522768,58.82657 174.330559,64.8305636 C168.064047,73.8025632 163.41847,81.4335459 163.41847,81.4335459 Z" id="path9984-9-5" fill="#D40000"></path>
                <path d="M111.883055,180.326856 C111.883055,180.326856 107.237577,172.695873 100.971065,163.723873 C96.7788579,157.71988 93.4272805,151.218672 93.1156772,145.618881 C92.7582792,139.222098 96.1413155,132.804621 102.266061,132.493589 C108.387125,132.182737 110.871688,137.425792 111.883055,141.748501 C112.894521,137.425792 115.379085,132.182737 121.500149,132.493589 C127.624896,132.804621 131.007932,139.222098 130.650534,145.618881 C130.338931,151.218672 126.987354,157.71988 122.795144,163.723873 C116.528632,172.695873 111.883055,180.326856 111.883055,180.326856 Z" id="path9986-7-3" fill="#D40000"></path>
                <path d="M163.41847,231.37371 C163.41847,231.37371 158.772992,239.004693 152.50648,247.976693 C148.314271,253.980686 144.962693,260.481894 144.65109,266.081685 C144.293692,272.478468 147.676728,278.895945 153.801476,279.206977 C159.922539,279.517829 162.407103,274.274774 163.41847,269.952065 C164.429936,274.274774 166.9145,279.517829 173.035563,279.206977 C179.160311,278.895945 182.543347,272.478468 182.185949,266.081685 C181.874346,260.481894 178.522768,253.980686 174.330559,247.976693 C168.064047,239.004693 163.41847,231.37371 163.41847,231.37371 Z" id="path9998-0-9" fill="#D40000"></path>
                <path d="M60.347662,231.37371 C60.347662,231.37371 55.7021843,239.004693 49.4356724,247.976693 C45.243463,253.980686 41.8918856,260.481894 41.5802823,266.081685 C41.2228843,272.478468 44.6059206,278.895945 50.7306679,279.206977 C56.8517317,279.517829 59.3362952,274.274774 60.347662,269.952065 C61.3591284,274.274774 63.8436919,279.517829 69.9647557,279.206977 C76.089503,278.895945 79.4725393,272.478468 79.1151413,266.081685 C78.803538,260.481894 75.4519606,253.980686 71.2597512,247.976693 C64.9932393,239.004693 60.347662,231.37371 60.347662,231.37371 Z" id="path10000-8-2" fill="#D40000"></path>
                <path d="M7.55095465,39.1687106 L10.7713201,39.1378097 C11.3856665,41.1233383 12.7449737,43.1413626 14.5907007,43.7013656 C19.8051282,44.9506567 23.1598913,41.9782948 24.26454,38.5517902 C25.6046334,34.3954277 24.2346739,28.5591558 20.6447648,26.4876033 C17.6701976,24.7697159 13.2505078,26.2186663 11.2206063,29.8932747 L8.96531512,28.4860903 L10.1760881,14.7902392 L24.9095489,14.7902392 L24.9095489,18.027551 L12.9702639,18.027551 L12.7808131,23.7332418 C15.3509928,21.8927478 19.3008884,21.9122851 21.8696744,23.2033422 C26.7347678,25.569948 28.9951362,30.9505819 28.05057,37.2920327 C26.7399446,43.5995922 23.849799,47.1736234 17.3310179,47.6840854 C10.0801183,47.7508711 7.52019253,42.6662871 7.55095465,39.169209 L7.55095465,39.1687106 Z" id="path21-9-5-1-8" fill="#D40000"></path>
                <path d="M216.213077,273.638654 L212.992711,273.669555 C212.378365,271.684027 211.019058,269.666002 209.173331,269.105999 C203.958903,267.856708 200.60414,270.82907 199.499491,274.255575 C198.159398,278.411937 199.529357,284.248109 203.119266,286.319762 C206.093834,288.037649 210.513523,286.588699 212.543425,282.91409 L214.798716,284.321275 L213.587943,298.017126 L198.854482,298.017126 L198.854482,294.779814 L210.793767,294.779814 L210.983218,289.074023 C208.413038,290.914617 204.463143,290.89508 201.894357,289.604023 C197.029263,287.237417 194.768895,281.856683 195.713461,275.515332 C197.024087,269.207773 199.914232,265.633741 206.433013,265.123279 C213.683913,265.056494 216.243839,270.141078 216.213077,273.638156 L216.213077,273.638654 Z" id="path21-3-0-6-3-8" fill="#D40000"></path>
            </g>
        </g>
    </g>
</svg>