<?xml version="1.0" encoding="UTF-8"?>
<svg width="224px" height="312px" viewBox="0 0 224 312" version="1.1" xmlns="http://www.w3.org/2000/svg" xmlns:xlink="http://www.w3.org/1999/xlink">
    <!-- Generator: Sketch 50.2 (55047) - http://www.bohemiancoding.com/sketch -->
    <title>g11425-5-5</title>
    <desc>Created with Sketch.</desc>
    <defs></defs>
    <g id="Page-1" stroke="none" stroke-width="1" fill="none" fill-rule="evenodd">
        <g id="Color_52_Faces_v.2.0" transform="translate(-2.000000, -2769.000000)" fill-rule="nonzero">
            <g id="g11425-5-5" transform="translate(1.134158, 2768.530683)">
                <g id="g9664-0-2" transform="translate(0.948528, 0.722083)" fill="#FFFFFF" stroke="#000000" stroke-width="0.99673417">
                    <rect id="rect9666-2-2" x="0.431107663" y="0.274688545" width="222.232247" height="310.813662" rx="10.677567"></rect>
                </g>
                <path d="M18.5201061,70.7462407 C18.5201061,70.7462407 16.3053332,67.5666637 13.3177265,63.8283397 C11.3189854,61.3266773 9.72114728,58.6178398 9.5725135,56.284597 C9.40217699,53.6192698 11.0150477,50.9453203 13.9350594,50.8157162 C16.8533768,50.6862018 18.0378676,52.8708016 18.5201061,54.6719319 C19.0023445,52.8708016 20.1869349,50.6862018 23.1051547,50.8157162 C26.0251664,50.9453203 27.6381367,53.6192698 27.4677006,56.284597 C27.3191664,58.6178398 25.7212287,61.3266773 23.7225872,63.8283397 C20.7348789,67.5666637 18.5201061,70.7462407 18.5201061,70.7462407 Z" id="path9698-0-0" fill="#D40000"></path>
                <path d="M206.472152,242.061145 C206.472152,242.061145 204.257379,245.240722 201.26977,248.979046 C199.271029,251.480708 197.673191,254.189546 197.524557,256.522789 C197.354221,259.188116 198.967092,261.862065 201.887103,261.99167 C204.805423,262.121184 205.989913,259.936584 206.472152,258.135454 C206.95439,259.936584 208.138981,262.121184 211.057201,261.99167 C213.977208,261.862065 215.590179,259.188116 215.419742,256.522789 C215.271208,254.189546 213.673271,251.480708 211.674633,248.979046 C208.686925,245.240722 206.472152,242.061145 206.472152,242.061145 Z" id="path9700-3-2" fill="#D40000"></path>
                <path d="M112.495719,180.326856 C112.495719,180.326856 107.850241,172.695873 101.583729,163.723873 C97.3915218,157.71988 94.0399444,151.218672 93.7283411,145.618881 C93.3709431,139.222098 96.7539794,132.804621 102.878725,132.493589 C108.999788,132.182737 111.484352,137.425792 112.495719,141.748501 C113.507185,137.425792 115.991749,132.182737 122.112813,132.493589 C128.23756,132.804621 131.620596,139.222098 131.263198,145.618881 C130.951595,151.218672 127.600017,157.71988 123.407808,163.723873 C117.141296,172.695873 112.495719,180.326856 112.495719,180.326856 Z" id="path9714-6-6" fill="#D40000"></path>
                <path d="M8.47163791,47.6846835 L8.47163791,44.8720091 L11.1519242,44.8720091 L16.8617313,14.7902392 L20.1115647,14.7902392 L26.4012726,44.8720091 L28.5656712,44.8720091 L28.5656712,47.6846835 L21.1905285,47.6846835 L21.1905285,44.8720091 L23.1809071,44.8720091 L22.3860698,40.262102 L14.9457194,40.262102 L14.3709954,44.8720091 L16.3612745,44.8720091 L16.3612745,47.6846835 L8.47163791,47.6846835 Z M21.7512154,36.9783393 L18.5167133,20.8776053 L15.4870928,36.9783393 L21.7512154,36.9783393 Z" id="path41-87-8-3-9" fill="#D40000"></path>
                <path d="M196.423698,265.122651 L196.423698,267.935326 L199.103984,267.935326 L204.813791,298.017096 L208.063625,298.017096 L214.353332,267.935326 L216.517731,267.935326 L216.517731,265.122651 L209.142588,265.122651 L209.142588,267.935326 L211.132967,267.935326 L210.33813,272.545133 L202.897779,272.545133 L202.323055,267.935326 L204.313334,267.935326 L204.313334,265.122651 L196.423698,265.122651 Z M209.703275,275.828996 L206.468773,291.92973 L203.439153,275.828996 L209.703275,275.828996 Z" id="path41-8-5-1-8-7" fill="#D40000"></path>
            </g>
        </g>
    </g>
</svg>