<?xml version="1.0" encoding="UTF-8"?>
<svg width="224px" height="312px" viewBox="0 0 224 312" version="1.1" xmlns="http://www.w3.org/2000/svg" xmlns:xlink="http://www.w3.org/1999/xlink">
    <!-- Generator: Sketch 50.2 (55047) - http://www.bohemiancoding.com/sketch -->
    <title>g11338-3-7</title>
    <desc>Created with Sketch.</desc>
    <defs></defs>
    <g id="Page-1" stroke="none" stroke-width="1" fill="none" fill-rule="evenodd">
        <g id="Color_52_Faces_v.2.0" transform="translate(-791.000000, -2769.000000)" fill-rule="nonzero">
            <g id="g11338-3-7" transform="translate(791.278619, 2768.530683)">
                <g id="g9868-8-1" transform="translate(0.489108, 0.722083)" fill="#FFFFFF" stroke="#000000" stroke-width="0.99673417">
                    <rect id="rect9870-7-0" x="0.431107663" y="0.274688545" width="222.232247" height="310.813662" rx="10.677567"></rect>
                </g>
                <path d="M18.0606554,70.7462407 C18.0606554,70.7432503 15.8458826,67.5666637 12.8582759,63.8283397 C10.8595347,61.3266773 9.26169666,58.6178398 9.11306287,56.284597 C8.94272637,53.6192698 10.5555971,50.9453203 13.4756088,50.8157162 C16.3939261,50.6862018 17.5784169,52.8708016 18.0606554,54.6719319 C18.5428939,52.8708016 19.7274843,50.6862018 22.645704,50.8157162 C25.5657158,50.9453203 27.178686,53.6192698 27.00825,56.284597 C26.8597157,58.6178398 25.2617781,61.3266773 23.2631365,63.8283397 C20.2754282,67.5666637 18.0625469,70.743649 18.0606554,70.7462407 Z" id="path9902-6-7" fill="#D40000"></path>
                <path d="M206.012701,242.061145 C206.012701,242.064136 203.797928,245.240722 200.81032,248.979046 C198.811579,251.480708 197.213741,254.189546 197.065107,256.522789 C196.89477,259.188116 198.507641,261.862065 201.427653,261.99167 C204.345972,262.121184 205.530463,259.936584 206.012701,258.135454 C206.49494,259.936584 207.67953,262.121184 210.59775,261.99167 C213.517758,261.862065 215.130728,259.188116 214.960292,256.522789 C214.811758,254.189546 213.21382,251.480708 211.215182,248.979046 C208.227474,245.240722 206.014593,242.063737 206.012701,242.061145 Z" id="path9904-6-0" fill="#D40000"></path>
                <path d="M60.5008753,81.4335459 C60.5008753,81.4275651 55.8553975,73.8025632 49.5888857,64.8305636 C45.3966762,58.82657 42.0450989,52.3253619 41.7334956,46.7255712 C41.3760975,40.328788 44.7591339,33.9113112 50.8838812,33.6002792 C57.004945,33.2894268 59.4895085,38.5324822 60.5008753,42.8551909 C61.5123416,38.5324822 63.9969052,33.2894268 70.117969,33.6002792 C76.2427162,33.9113112 79.6257526,40.328788 79.2683545,46.7255712 C78.9567512,52.3253619 75.6051739,58.82657 71.4129645,64.8305636 C65.1464526,73.8025632 60.5048574,81.4273259 60.5008753,81.4335459 Z" id="path9910-2-6" fill="#D40000"></path>
                <path d="M163.571683,81.4335459 C163.571683,81.4275651 158.926205,73.8025632 152.659693,64.8305636 C148.467484,58.82657 145.115907,52.3253619 144.804303,46.7255712 C144.446905,40.328788 147.829942,33.9113112 153.954689,33.6002792 C160.075753,33.2894268 162.560316,38.5324822 163.571683,42.8551909 C164.583149,38.5324822 167.067713,33.2894268 173.188777,33.6002792 C179.313524,33.9113112 182.69656,40.328788 182.339162,46.7255712 C182.027559,52.3253619 178.675982,58.82657 174.483772,64.8305636 C168.21726,73.8025632 163.575665,81.4273259 163.571683,81.4335459 Z" id="path9916-8-0" fill="#D40000"></path>
                <path d="M163.571683,231.37371 C163.571683,231.379691 158.926205,239.004693 152.659693,247.976693 C148.467484,253.980686 145.115907,260.481894 144.804303,266.081685 C144.446905,272.478468 147.829942,278.895945 153.954689,279.206977 C160.075753,279.517829 162.560316,274.274774 163.571683,269.952065 C164.583149,274.274774 167.067713,279.517829 173.188777,279.206977 C179.313524,278.895945 182.69656,272.478468 182.339162,266.081685 C182.027559,260.481894 178.675982,253.980686 174.483772,247.976693 C168.21726,239.004693 163.575665,231.37993 163.571683,231.37371 Z" id="path9930-7-9" fill="#D40000"></path>
                <path d="M60.5008753,231.37371 C60.5008753,231.379691 55.8553975,239.004693 49.5888857,247.976693 C45.3966762,253.980686 42.0450989,260.481894 41.7334956,266.081685 C41.3760975,272.478468 44.7591339,278.895945 50.8838812,279.206977 C57.004945,279.517829 59.4895085,274.274774 60.5008753,269.952065 C61.5123416,274.274774 63.9969052,279.517829 70.117969,279.206977 C76.2427162,278.895945 79.6257526,272.478468 79.2683545,266.081685 C78.9567512,260.481894 75.6051739,253.980686 71.4129645,247.976693 C65.1464526,239.004693 60.5048574,231.37993 60.5008753,231.37371 Z" id="path9932-9-8" fill="#D40000"></path>
                <path d="M18.2896211,47.6807959 L18.2896211,44.7753194 L20.9083832,44.7753194 L20.9083832,39.9826985 L7.80939625,39.9826985 L7.80939625,36.6009503 L21.9835639,14.7902392 L24.2989856,14.8022009 L24.2989856,36.6012494 L28.3090116,36.6012494 L28.3090116,39.9828979 L24.2989856,39.9828979 L24.2233247,44.7755188 L26.4183859,44.7755188 L26.4183859,47.6847831 L18.2895216,47.6847831 L18.2896211,47.6807959 Z M20.9083832,22.7752161 L11.9091202,36.6023458 L20.9083832,36.6023458 L20.9083832,22.7752161 Z" id="path19-3-8-2-9" fill="#D40000"></path>
                <path d="M205.780837,265.126639 L205.780837,268.032016 L203.162075,268.032016 L203.162075,272.824636 L216.261061,272.824636 L216.261061,276.206285 L202.086894,298.017195 L199.771472,298.005234 L199.771472,276.206086 L195.761446,276.206086 L195.761446,272.824437 L199.771472,272.824437 L199.847133,268.031816 L197.652072,268.031816 L197.652072,265.122552 L205.780936,265.122552 L205.780837,265.126639 Z M203.162075,290.032119 L212.161338,276.204989 L203.162075,276.204989 L203.162075,290.032119 Z" id="path19-4-46-0-1-9" fill="#D40000"></path>
            </g>
        </g>
    </g>
</svg>