<?xml version="1.0" encoding="UTF-8"?>
<svg width="224px" height="312px" viewBox="0 0 224 312" version="1.1" xmlns="http://www.w3.org/2000/svg" xmlns:xlink="http://www.w3.org/1999/xlink">
    <!-- Generator: Sketch 50.2 (55047) - http://www.bohemiancoding.com/sketch -->
    <title>g11234-8-5</title>
    <desc>Created with Sketch.</desc>
    <defs></defs>
    <g id="Page-1" stroke="none" stroke-width="1" fill="none" fill-rule="evenodd">
        <g id="Color_52_Faces_v.2.0" transform="translate(-1581.000000, -2769.000000)" fill-rule="nonzero">
            <g id="g11234-8-5" transform="translate(1581.423228, 2769.527464)">
                <rect id="rect10074-2-8" stroke="#000000" stroke-width="0.99673417" fill="#FFFFFF" x="0.460645268" y="-9.96801337e-06" width="222.232247" height="310.813662" rx="10.677567"></rect>
                <path d="M17.6011152,69.7494393 C17.6011152,69.7494393 15.3863424,66.5698624 12.3987356,62.8315384 C10.3999945,60.329876 8.80215644,57.6210385 8.65352265,55.2877957 C8.48318615,52.6224685 10.0960568,49.948519 13.0160686,49.8189149 C15.9343859,49.6894005 17.1188767,51.8740003 17.6011152,53.6751306 C18.0833537,51.8740003 19.267944,49.6894005 22.1861638,49.8189149 C25.1061756,49.948519 26.7191458,52.6224685 26.5487098,55.2877957 C26.4001755,57.6210385 24.8022379,60.329876 22.8035963,62.8315384 C19.815888,66.5698624 17.6011152,69.7494393 17.6011152,69.7494393 Z" id="path10106-2-3" fill="#D40000"></path>
                <path d="M205.553161,241.064344 C205.553161,241.064344 203.338388,244.243921 200.35078,247.982245 C198.352038,250.483907 196.7542,253.192745 196.605567,255.525987 C196.43523,258.191315 198.048101,260.865264 200.968112,260.994868 C203.886432,261.124383 205.070923,258.939783 205.553161,257.138653 C206.0354,258.939783 207.21999,261.124383 210.13821,260.994868 C213.058217,260.865264 214.671188,258.191315 214.500752,255.525987 C214.352217,253.192745 212.75428,250.483907 210.755642,247.982245 C207.767934,244.243921 205.553161,241.064344 205.553161,241.064344 Z" id="path10108-3-1" fill="#D40000"></path>
                <path d="M111.576733,129.883348 C111.576733,129.883348 106.931255,122.252364 100.664743,113.280366 C96.4725339,107.276368 93.1209566,100.77516 92.8093533,95.1753694 C92.4519552,88.7785862 95.8349916,82.3611094 101.959739,82.0500775 C108.080803,81.739225 110.565366,86.9822805 111.576733,91.3049892 C112.588199,86.9822805 115.072763,81.739225 121.193827,82.0500775 C127.318574,82.3611094 130.70161,88.7785862 130.344212,95.1753694 C130.032609,100.77516 126.681032,107.276368 122.488822,113.280366 C116.22231,122.252364 111.576733,129.883348 111.576733,129.883348 Z" id="path10110-3-5" fill="#D40000"></path>
                <path d="M60.0413351,80.4367446 C60.0413351,80.4367446 55.3958573,72.8057618 49.1293455,63.8337623 C44.937136,57.8297687 41.5855587,51.3285605 41.2739554,45.7287698 C40.9165573,39.3319866 44.2995937,32.9145098 50.4243409,32.6034779 C56.5454047,32.2926254 59.0299683,37.5356808 60.0413351,41.8583896 C61.0528014,37.5356808 63.5373649,32.2926254 69.6584287,32.6034779 C75.783176,32.9145098 79.1662124,39.3319866 78.8088143,45.7287698 C78.497211,51.3285605 75.1456337,57.8297687 70.9534242,63.8337623 C64.6869124,72.8057618 60.0413351,80.4367446 60.0413351,80.4367446 Z" id="path10114-8-3" fill="#D40000"></path>
                <path d="M163.112143,179.330054 C163.112143,179.330054 158.466665,171.699072 152.200153,162.727072 C148.007944,156.723079 144.656366,150.22187 144.344763,144.62208 C143.987365,138.225296 147.370401,131.80782 153.495149,131.496788 C159.616212,131.185935 162.100776,136.428991 163.112143,140.751699 C164.123609,136.428991 166.608173,131.185935 172.729236,131.496788 C178.853984,131.80782 182.23702,138.225296 181.879622,144.62208 C181.568019,150.22187 178.216441,156.723079 174.024232,162.727072 C167.75772,171.699072 163.112143,179.330054 163.112143,179.330054 Z" id="path10116-2-5" fill="#D40000"></path>
                <path d="M163.112143,80.4367446 C163.112143,80.4367446 158.466665,72.8057618 152.200153,63.8337623 C148.007944,57.8297687 144.656366,51.3285605 144.344763,45.7287698 C143.987365,39.3319866 147.370401,32.9145098 153.495149,32.6034779 C159.616212,32.2926254 162.100776,37.5356808 163.112143,41.8583896 C164.123609,37.5356808 166.608173,32.2926254 172.729236,32.6034779 C178.853984,32.9145098 182.23702,39.3319866 181.879622,45.7287698 C181.568019,51.3285605 178.216441,57.8297687 174.024232,63.8337623 C167.75772,72.8057618 163.112143,80.4367446 163.112143,80.4367446 Z" id="path10120-6-5" fill="#D40000"></path>
                <path d="M60.0413351,179.330054 C60.0413351,179.330054 55.3958573,171.699072 49.1293455,162.727082 C44.937136,156.723088 41.5855587,150.22188 41.2739554,144.62209 C40.9165573,138.225306 44.2995937,131.80783 50.4243409,131.496798 C56.5454047,131.185945 59.0299683,136.429001 60.0413351,140.751709 C61.0528014,136.429001 63.5373649,131.185945 69.6584287,131.496798 C75.783176,131.80783 79.1662124,138.225306 78.8088143,144.62209 C78.497211,150.22188 75.1456337,156.723088 70.9534242,162.727082 C64.6869124,171.699072 60.0413351,179.330054 60.0413351,179.330054 Z" id="path10124-1-1" fill="#D40000"></path>
                <path d="M163.112143,230.376909 C163.112143,230.376909 158.466665,238.007892 152.200153,246.979891 C148.007944,252.983885 144.656366,259.485093 144.344763,265.084884 C143.987365,271.481667 147.370401,277.899144 153.495149,278.210176 C159.616212,278.521028 162.100776,273.277973 163.112143,268.955264 C164.123609,273.277973 166.608173,278.521028 172.729236,278.210176 C178.853984,277.899144 182.23702,271.481667 181.879622,265.084884 C181.568019,259.485093 178.216441,252.983885 174.024232,246.979891 C167.75772,238.007892 163.112143,230.376909 163.112143,230.376909 Z" id="path10134-7-3" fill="#D40000"></path>
                <path d="M60.0413351,230.376909 C60.0413351,230.376909 55.3958573,238.007892 49.1293455,246.979891 C44.937136,252.983885 41.5855587,259.485093 41.2739554,265.084884 C40.9165573,271.481667 44.2995937,277.899144 50.4243409,278.210176 C56.5454047,278.521028 59.0299683,273.277973 60.0413351,268.955264 C61.0528014,273.277973 63.5373649,278.521028 69.6584287,278.210176 C75.783176,277.899144 79.1662124,271.481667 78.8088143,265.084884 C78.497211,259.485093 75.1456337,252.983885 70.9534242,246.979891 C64.6869124,238.007892 60.0413351,230.376909 60.0413351,230.376909 Z" id="path10136-5-7" fill="#D40000"></path>
                <path d="M12.5496492,46.6842936 C14.7102648,35.2476928 17.0102556,26.6618442 23.049088,17.3437452 L10.7744063,17.3437452 L10.7744063,21.3546745 L7.51561306,21.3546745 L7.51561306,13.7934379 L25.4694393,13.7934379 L27.6838139,17.3437452 C21.2699625,24.3541494 15.4000729,47.0158298 16.4394143,46.6842936 L12.5496492,46.6842936 Z" id="path25-43-2-3-9" fill="#D40000"></path>
                <path d="M210.601828,264.129449 C208.441212,275.56595 206.141221,284.151898 200.102389,293.469997 L212.377071,293.469997 L212.377071,289.458968 L215.635864,289.458968 L215.635864,297.020304 L197.682038,297.020304 L195.467663,293.469997 C201.881514,286.459593 207.751404,263.797912 206.712063,264.129449 L210.601828,264.129449 Z" id="path25-7-0-2-8-2" fill="#D40000"></path>
            </g>
        </g>
    </g>
</svg>