<?xml version="1.0" encoding="UTF-8"?>
<svg width="224px" height="312px" viewBox="0 0 224 312" version="1.1" xmlns="http://www.w3.org/2000/svg" xmlns:xlink="http://www.w3.org/1999/xlink">
    <!-- Generator: Sketch 50.2 (55047) - http://www.bohemiancoding.com/sketch -->
    <title>g11103-4-9</title>
    <desc>Created with Sketch.</desc>
    <defs></defs>
    <g id="Page-1" stroke="none" stroke-width="1" fill="none" fill-rule="evenodd">
        <g id="Color_52_Faces_v.2.0" transform="translate(-2371.000000, -2769.000000)" fill-rule="nonzero">
            <g id="g11103-4-9" transform="translate(2370.572045, 2768.530683)">
                <g id="g10276-9-9" transform="translate(0.565764, 0.722083)" fill="#FFFFFF" stroke="#000000" stroke-width="0.99673417">
                    <rect id="rect10278-0-6" x="0.431107663" y="0.274688545" width="222.232247" height="310.813662" rx="10.677567"></rect>
                </g>
                <path d="M60.5775317,147.362416 C60.5775317,147.362416 55.9320539,139.731433 49.6655421,130.759434 C45.4733327,124.75544 42.1217553,118.254232 41.810152,112.654441 C41.4527539,106.257657 44.8357903,99.8401804 50.9605376,99.5291485 C57.0816014,99.218296 59.5661649,104.461351 60.5775317,108.78406 C61.588998,104.461351 64.0735616,99.218296 70.1946254,99.5291485 C76.3193727,99.8401804 79.702409,106.257657 79.345011,112.654441 C79.0334076,118.254232 75.6818303,124.75544 71.4896209,130.759434 C65.223109,139.731433 60.5775317,147.362416 60.5775317,147.362416 Z" id="path10308-5-1" fill="#D40000"></path>
                <path d="M18.1373118,70.7462407 C18.1373118,70.7462407 15.922539,67.5666637 12.9349323,63.8283397 C10.9361911,61.3266773 9.33835306,58.6178398 9.18971928,56.284597 C9.01938277,53.6192698 10.6322535,50.9453203 13.5522652,50.8157162 C16.4705825,50.6862018 17.6550734,52.8708016 18.1373118,54.6719319 C18.6195503,52.8708016 19.8041407,50.6862018 22.7223604,50.8157162 C25.6423722,50.9453203 27.2553424,53.6192698 27.0849064,56.284597 C26.9363721,58.6178398 25.3384345,61.3266773 23.339793,63.8283397 C20.3520846,67.5666637 18.1373118,70.7462407 18.1373118,70.7462407 Z" id="path10310-7-8" fill="#D40000"></path>
                <path d="M206.089358,242.061145 C206.089358,242.061145 203.874585,245.240722 200.886976,248.979046 C198.888235,251.480708 197.290397,254.189546 197.141763,256.522789 C196.971427,259.188116 198.584297,261.862065 201.504309,261.99167 C204.422628,262.121184 205.607119,259.936584 206.089358,258.135454 C206.571596,259.936584 207.756187,262.121184 210.674406,261.99167 C213.594414,261.862065 215.207384,259.188116 215.036948,256.522789 C214.888414,254.189546 213.290476,251.480708 211.291839,248.979046 C208.304131,245.240722 206.089358,242.061145 206.089358,242.061145 Z" id="path10312-3-5" fill="#D40000"></path>
                <path d="M112.11293,123.937584 C112.11293,123.937584 107.467452,116.3066 101.20094,107.334601 C97.0087305,101.330608 93.6571532,94.8293996 93.3455499,89.2296089 C92.9881518,82.8328257 96.3711882,76.4153489 102.495935,76.104317 C108.616999,75.7934645 111.101563,81.0365199 112.11293,85.3592287 C113.124396,81.0365199 115.608959,75.7934645 121.730023,76.104317 C127.854771,76.4153489 131.237807,82.8328257 130.880409,89.2296089 C130.568806,94.8293996 127.217228,101.330608 123.025019,107.334601 C116.758507,116.3066 112.11293,123.937584 112.11293,123.937584 Z" id="path10314-8-8" fill="#D40000"></path>
                <path d="M60.5775317,81.4335459 C60.5775317,81.4335459 55.9320539,73.8025632 49.6655421,64.8305636 C45.4733327,58.82657 42.1217553,52.3253619 41.810152,46.7255712 C41.4527539,40.328788 44.8357903,33.9113112 50.9605376,33.6002792 C57.0816014,33.2894268 59.5661649,38.5324822 60.5775317,42.8551909 C61.588998,38.5324822 64.0735616,33.2894268 70.1946254,33.6002792 C76.3193727,33.9113112 79.702409,40.328788 79.345011,46.7255712 C79.0334076,52.3253619 75.6818303,58.82657 71.4896209,64.8305636 C65.223109,73.8025632 60.5775317,81.4335459 60.5775317,81.4335459 Z" id="path10318-3-7" fill="#D40000"></path>
                <path d="M163.648339,147.362416 C163.648339,147.362416 159.002862,139.731433 152.73635,130.759434 C148.54414,124.75544 145.192563,118.254232 144.88096,112.654441 C144.523562,106.257657 147.906598,99.8401804 154.031345,99.5291485 C160.152409,99.218296 162.636973,104.461351 163.648339,108.78406 C164.659806,104.461351 167.144369,99.218296 173.265433,99.5291485 C179.39018,99.8401804 182.773217,106.257657 182.415819,112.654441 C182.104215,118.254232 178.752638,124.75544 174.560429,130.759434 C168.293917,139.731433 163.648339,147.362416 163.648339,147.362416 Z" id="path10322-4-6" fill="#D40000"></path>
                <path d="M163.648339,81.4335459 C163.648339,81.4335459 159.002862,73.8025632 152.73635,64.8305636 C148.54414,58.82657 145.192563,52.3253619 144.88096,46.7255712 C144.523562,40.328788 147.906598,33.9113112 154.031345,33.6002792 C160.152409,33.2894268 162.636973,38.5324822 163.648339,42.8551909 C164.659806,38.5324822 167.144369,33.2894268 173.265433,33.6002792 C179.39018,33.9113112 182.773217,40.328788 182.415819,46.7255712 C182.104215,52.3253619 178.752638,58.82657 174.560429,64.8305636 C168.293917,73.8025632 163.648339,81.4335459 163.648339,81.4335459 Z" id="path10324-9-8" fill="#D40000"></path>
                <path d="M112.112931,188.869662 C112.112931,188.869662 107.467453,196.500644 101.200941,205.472654 C97.0087315,211.476647 93.6571542,217.977856 93.3455509,223.577636 C92.9881528,229.97442 96.3711892,236.391896 102.495936,236.702928 C108.617,237.013781 111.101564,231.770725 112.112931,227.448017 C113.124397,231.770725 115.60896,237.013781 121.730024,236.702928 C127.854772,236.391896 131.237808,229.97442 130.88041,223.577636 C130.568807,217.977856 127.217229,211.476647 123.02502,205.472654 C116.758508,196.500644 112.112931,188.869662 112.112931,188.869662 Z" id="path10332-8-6" fill="#D40000"></path>
                <path d="M163.648339,165.444831 C163.648339,165.444831 159.002862,173.075814 152.73635,182.047813 C148.54414,188.051807 145.192563,194.553015 144.88096,200.152806 C144.523562,206.549589 147.906598,212.967066 154.031345,213.278098 C160.152409,213.588951 162.636973,208.345895 163.648339,204.023186 C164.659806,208.345895 167.144369,213.588951 173.265433,213.278098 C179.39018,212.967066 182.773217,206.549589 182.415819,200.152806 C182.104215,194.553015 178.752638,188.051807 174.560429,182.047813 C168.293917,173.075814 163.648339,165.444831 163.648339,165.444831 Z" id="path10334-5-0" fill="#D40000"></path>
                <path d="M60.5775317,165.444831 C60.5775317,165.444831 55.9320539,173.075814 49.6655421,182.047813 C45.4733327,188.051807 42.1217553,194.553015 41.810152,200.152806 C41.4527539,206.549589 44.8357903,212.967066 50.9605376,213.278098 C57.0816014,213.588951 59.5661649,208.345895 60.5775317,204.023186 C61.588998,208.345895 64.0735616,213.588951 70.1946254,213.278098 C76.3193727,212.967066 79.702409,206.549589 79.345011,200.152806 C79.0334076,194.553015 75.6818303,188.051807 71.4896209,182.047813 C65.223109,173.075814 60.5775317,165.444831 60.5775317,165.444831 Z" id="path10336-3-5" fill="#D40000"></path>
                <path d="M163.648339,231.37371 C163.648339,231.37371 159.002862,239.004693 152.73635,247.976693 C148.54414,253.980686 145.192563,260.481894 144.88096,266.081685 C144.523562,272.478468 147.906598,278.895945 154.031345,279.206977 C160.152409,279.517829 162.636973,274.274774 163.648339,269.952065 C164.659806,274.274774 167.144369,279.517829 173.265433,279.206977 C179.39018,278.895945 182.773217,272.478468 182.415819,266.081685 C182.104215,260.481894 178.752638,253.980686 174.560429,247.976693 C168.293917,239.004693 163.648339,231.37371 163.648339,231.37371 Z" id="path10338-2-9" fill="#D40000"></path>
                <path d="M60.5775317,231.37371 C60.5775317,231.37371 55.9320539,239.004693 49.6655421,247.976693 C45.4733327,253.980686 42.1217553,260.481894 41.810152,266.081685 C41.4527539,272.478468 44.8357903,278.895945 50.9605376,279.206977 C57.0816014,279.517829 59.5661649,274.274774 60.5775317,269.952065 C61.588998,274.274774 64.0735616,279.517829 70.1946254,279.206977 C76.3193727,278.895945 79.702409,272.478468 79.345011,266.081685 C79.0334076,260.481894 75.6818303,253.980686 71.4896209,247.976693 C65.223109,239.004693 60.5775317,231.37371 60.5775317,231.37371 Z" id="path10340-9-7" fill="#D40000"></path>
                <g id="g7724-24-8-9-7" transform="translate(7.581717, 14.661569)" fill="#D40000">
                    <g id="g8345-9-7-5-1">
                        <polygon id="path31-8-2-9-8" points="0.580199395 33.0231286 0.580199395 0.129332426 3.76472552 0.129332426 3.76472552 33.0231286"></polygon>
                        <path d="M13.2043148,0.128684518 C10.1387555,0.128684518 7.6748991,2.93227261 7.6748991,6.41455939 L7.6748991,26.7379017 C7.6748991,30.2201984 10.1400497,33.0224807 13.2043148,33.0224807 L14.9936943,33.0224807 C18.0591542,33.0224807 20.5281873,30.2201984 20.5281873,26.7379017 L20.5281873,6.41455939 C20.5281873,2.93227261 18.05786,0.128684518 14.9936943,0.128684518 L13.2043148,0.128684518 Z M14.1296671,3.2389923 C15.9395548,3.2389923 17.3948318,4.62903429 17.3948318,6.3675711 L17.3948318,26.9597952 C17.3948318,28.698332 15.9395548,30.1014219 14.1296671,30.1014219 C12.3198791,30.1014219 10.8594252,28.698332 10.8594252,26.9597952 L10.8594252,6.3675711 C10.8594252,4.63034008 12.3198791,3.2389923 14.1296671,3.2389923 Z" id="path33-2-3-1-6"></path>
                    </g>
                </g>
                <g id="g7724-2-5-0-2-7" transform="translate(206.380449, 281.370701) rotate(-180.000000) translate(-206.380449, -281.370701) translate(195.429534, 263.927021)" fill="#D40000">
                    <g id="g8345-5-0-9-6-9">
                        <g id="g10963-5-1" transform="translate(0.689241, 0.668641)">
                            <polygon id="path31-1-3-2-1-5" points="0.580199395 33.0231286 0.580199395 0.129332426 3.76472552 0.129332426 3.76472552 33.0231286"></polygon>
                            <path d="M13.2043148,0.128684518 C10.1387555,0.128684518 7.6748991,2.93227261 7.6748991,6.41455939 L7.6748991,26.7379017 C7.6748991,30.2201984 10.1400497,33.0224807 13.2043148,33.0224807 L14.9936943,33.0224807 C18.0591542,33.0224807 20.5281873,30.2201984 20.5281873,26.7379017 L20.5281873,6.41455939 C20.5281873,2.93227261 18.05786,0.128684518 14.9936943,0.128684518 L13.2043148,0.128684518 Z M14.1296671,3.2389923 C15.9395548,3.2389923 17.3948318,4.62903429 17.3948318,6.3675711 L17.3948318,26.9597952 C17.3948318,28.698332 15.9395548,30.1014219 14.1296671,30.1014219 C12.3198791,30.1014219 10.8594252,28.698332 10.8594252,26.9597952 L10.8594252,6.3675711 C10.8594252,4.63034008 12.3198791,3.2389923 14.1296671,3.2389923 Z" id="path33-5-5-3-3-1"></path>
                        </g>
                    </g>
                </g>
            </g>
        </g>
    </g>
</svg>