<?xml version="1.0" encoding="UTF-8"?>
<svg width="224px" height="312px" viewBox="0 0 224 312" version="1.1" xmlns="http://www.w3.org/2000/svg" xmlns:xlink="http://www.w3.org/1999/xlink">
    <!-- Generator: Sketch 50.2 (55047) - http://www.bohemiancoding.com/sketch -->
    <title>g11398-8-7</title>
    <desc>Created with Sketch.</desc>
    <defs></defs>
    <g id="Page-1" stroke="none" stroke-width="1" fill="none" fill-rule="evenodd">
        <g id="Color_52_Faces_v.2.0" transform="translate(-265.000000, -2769.000000)" fill-rule="nonzero">
            <g id="g11398-8-7" transform="translate(264.515629, 2768.530683)">
                <g id="g9732-9-3" transform="translate(0.795405, 0.722083)" fill="#FFFFFF" stroke="#000000" stroke-width="0.99673417">
                    <rect id="rect9734-4-5" x="0.431107663" y="0.274688545" width="222.232247" height="310.813662" rx="10.677567"></rect>
                </g>
                <path d="M18.3669824,70.7462407 C18.3669824,70.7462407 16.1522096,67.5666637 13.1646028,63.8283397 C11.1658617,61.3266773 9.56802362,58.6178398 9.41938984,56.284597 C9.24905333,53.6192698 10.861924,50.9453203 13.7819358,50.8157162 C16.7002531,50.6862018 17.8847439,52.8708016 18.3669824,54.6719319 C18.8492209,52.8708016 20.0338112,50.6862018 22.952031,50.8157162 C25.8720428,50.9453203 27.485013,53.6192698 27.3145769,56.284597 C27.1660427,58.6178398 25.5681051,61.3266773 23.5694635,63.8283397 C20.5817552,67.5666637 18.3669824,70.7462407 18.3669824,70.7462407 Z" id="path9766-0-8" fill="#D40000"></path>
                <path d="M206.319028,242.061145 C206.319028,242.061145 204.104255,245.240722 201.116647,248.979046 C199.117906,251.480708 197.520068,254.189546 197.371434,256.522789 C197.201097,259.188116 198.813968,261.862065 201.73398,261.99167 C204.652299,262.121184 205.83679,259.936584 206.319028,258.135454 C206.801267,259.936584 207.985857,262.121184 210.904077,261.99167 C213.824085,261.862065 215.437055,259.188116 215.266619,256.522789 C215.118085,254.189546 213.520147,251.480708 211.521509,248.979046 C208.533801,245.240722 206.319028,242.061145 206.319028,242.061145 Z" id="path9768-3-3" fill="#D40000"></path>
                <path d="M112.342605,81.4335459 C112.342605,81.4335459 107.697127,73.8025632 101.430616,64.8305636 C97.2384061,58.82657 93.8868287,52.3253619 93.5752254,46.7255712 C93.2178274,40.328788 96.6008637,33.9113112 102.725611,33.6002792 C108.846675,33.2894268 111.331238,38.5324822 112.342605,42.8551909 C113.354072,38.5324822 115.838635,33.2894268 121.959699,33.6002792 C128.084446,33.9113112 131.467482,40.328788 131.110084,46.7255712 C130.798481,52.3253619 127.446904,58.82657 123.254694,64.8305636 C116.988182,73.8025632 112.342605,81.4335459 112.342605,81.4335459 Z" id="path9772-1-7" fill="#D40000"></path>
                <path d="M112.342605,231.37371 C112.342605,231.37371 107.697127,239.004693 101.430616,247.976693 C97.2384091,253.980686 93.8868317,260.481894 93.5752284,266.081685 C93.2178304,272.478468 96.6008667,278.895945 102.725611,279.206977 C108.846675,279.517829 111.331238,274.274774 112.342605,269.952065 C113.354072,274.274774 115.838635,279.517829 121.959699,279.206977 C128.084446,278.895945 131.467482,272.478468 131.110084,266.081685 C130.798481,260.481894 127.446904,253.980686 123.254694,247.976693 C116.988182,239.004693 112.342605,231.37371 112.342605,231.37371 Z" id="path9786-2-1" fill="#D40000"></path>
                <path d="M9.01549022,47.6142096 L9.17557269,45.5857189 C9.68110675,39.317533 11.0262773,37.2029187 18.6560786,30.6594163 C22.3602754,27.487395 23.574931,25.9223172 23.745168,24.1066436 C24.2302935,19.8238866 20.4454581,18.4872757 17.9803076,18.4676387 C14.7855274,18.4387315 11.170929,20.3851855 12.8962954,24.9094674 L9.31116493,25.9837202 C8.59059471,21.7635624 9.33207122,17.8045665 12.6864361,16.0476045 C17.1662564,13.7567556 22.9106087,14.6548736 25.8110083,18.2640919 C27.7603708,20.6855217 28.2057744,24.0361698 27.1600615,26.6585547 C24.1048557,33.3574584 13.7411088,36.3049003 12.8860414,44.0559279 L24.3403004,44.0559279 L24.3403004,39.7404758 L27.7155716,39.7404758 L27.7155716,47.6846835 L9.01549022,47.6139106 L9.01549022,47.6142096 Z" id="path15-34-0-0-4" fill="#D40000"></path>
                <path d="M215.667631,265.193135 L215.507549,267.221626 C215.002015,273.489712 213.656844,275.604327 206.027043,282.147929 C202.322846,285.31985 201.108191,286.884928 200.937954,288.700701 C200.452828,292.983458 204.237663,294.320069 206.702814,294.339706 C209.897594,294.368613 213.512193,292.422159 211.786826,287.897878 L215.371957,286.823625 C216.092527,291.043683 215.35105,295.002778 211.996686,296.75974 C207.516865,299.050589 201.772513,298.152471 198.872113,294.543253 C196.922751,292.121923 196.477347,288.771175 197.52306,286.14879 C200.578266,279.449886 210.942013,276.502445 211.79708,268.751417 L200.342821,268.751417 L200.342821,273.066869 L196.96755,273.066869 L196.96755,265.122661 L215.667631,265.193434 L215.667631,265.193135 Z" id="path15-5-4-5-2-7" fill="#D40000"></path>
            </g>
        </g>
    </g>
</svg>