<?xml version="1.0" encoding="UTF-8"?>
<svg width="224px" height="312px" viewBox="0 0 224 312" version="1.1" xmlns="http://www.w3.org/2000/svg" xmlns:xlink="http://www.w3.org/1999/xlink">
    <!-- Generator: Sketch 50.2 (55047) - http://www.bohemiancoding.com/sketch -->
    <title>g11195-3-7</title>
    <desc>Created with Sketch.</desc>
    <defs></defs>
    <g id="Page-1" stroke="none" stroke-width="1" fill="none" fill-rule="evenodd">
        <g id="Color_52_Faces_v.2.0" transform="translate(-1844.000000, -2769.000000)" fill-rule="nonzero">
            <g id="g11195-3-7" transform="translate(1843.809128, 2768.530683)">
                <g id="g10140-6-7" transform="translate(0.871992, 0.722083)" fill="#FFFFFF" stroke="#000000" stroke-width="0.99673417">
                    <rect id="rect10142-4-2" x="0.431107663" y="0.274688545" width="222.232247" height="310.813662" rx="10.677567"></rect>
                </g>
                <path d="M18.4435392,70.7462407 C18.4435392,70.7462407 16.2287664,67.5666637 13.2411597,63.8283397 C11.2424185,61.3266773 9.64458047,58.6178398 9.49594669,56.284597 C9.32561018,53.6192698 10.9384809,50.9453203 13.8584926,50.8157162 C16.77681,50.6862018 17.9613008,52.8708016 18.4435392,54.6719319 C18.9257777,52.8708016 20.1103681,50.6862018 23.0285879,50.8157162 C25.9485996,50.9453203 27.5615698,53.6192698 27.3911338,56.284597 C27.2425996,58.6178398 25.6446619,61.3266773 23.6460204,63.8283397 C20.6583121,67.5666637 18.4435392,70.7462407 18.4435392,70.7462407 Z" id="path10174-9-0" fill="#D40000"></path>
                <path d="M206.395585,242.061145 C206.395585,242.064136 204.180812,245.240722 201.193204,248.979046 C199.194462,251.480708 197.596624,254.189546 197.447991,256.522789 C197.277654,259.188116 198.890525,261.862065 201.810537,261.99167 C204.728856,262.121184 205.913347,259.936584 206.395585,258.135454 C206.877824,259.936584 208.062414,262.121184 210.980634,261.99167 C213.900641,261.862065 215.513612,259.188116 215.343176,256.522789 C215.194641,254.189546 213.596704,251.480708 211.598066,248.979046 C208.610358,245.240722 206.397477,242.063737 206.395585,242.061145 Z" id="path10176-9-9" fill="#D40000"></path>
                <path d="M112.419108,130.880146 C112.419108,130.880146 107.77363,123.249163 101.507119,114.277163 C97.3149092,108.27317 93.9633318,101.771961 93.6517285,96.1721708 C93.2943305,89.7753876 96.6773668,83.3579108 102.802114,83.0468789 C108.923178,82.7360264 111.407741,87.9790818 112.419108,92.3017905 C113.430575,87.9790818 115.915138,82.7360264 122.036202,83.0468789 C128.160949,83.3579108 131.543986,89.7753876 131.186587,96.1721708 C130.874984,101.771961 127.523407,108.27317 123.331197,114.277163 C117.064686,123.249163 112.419108,130.880146 112.419108,130.880146 Z" id="path10178-8-4" fill="#D40000"></path>
                <path d="M60.8837591,81.4335459 C60.8837591,81.4335459 56.2382813,73.8025632 49.9717695,64.8305636 C45.7795601,58.82657 42.4279827,52.3253619 42.1163794,46.7255712 C41.7589813,40.328788 45.1420177,33.9113112 51.266765,33.6002792 C57.3878288,33.2894268 59.8723923,38.5324822 60.8837591,42.8551909 C61.8952254,38.5324822 64.379789,33.2894268 70.5008528,33.6002792 C76.6256001,33.9113112 80.0086364,40.328788 79.6512384,46.7255712 C79.339635,52.3253619 75.9880577,58.82657 71.7958483,64.8305636 C65.5293364,73.8025632 60.8837591,81.4335459 60.8837591,81.4335459 Z" id="path10182-1-9" fill="#D40000"></path>
                <path d="M163.954567,180.326856 C163.954567,180.326856 159.309089,172.695873 153.042577,163.723873 C148.850368,157.71988 145.49879,151.218672 145.187187,145.618881 C144.829789,139.222098 148.212825,132.804621 154.337573,132.493589 C160.458637,132.182737 162.9432,137.425792 163.954567,141.748501 C164.966033,137.425792 167.450597,132.182737 173.571661,132.493589 C179.696408,132.804621 183.079444,139.222098 182.722046,145.618881 C182.410443,151.218672 179.058865,157.71988 174.866656,163.723873 C168.600144,172.695873 163.954567,180.326856 163.954567,180.326856 Z" id="path10184-9-1" fill="#D40000"></path>
                <path d="M163.954567,81.4335459 C163.954567,81.4335459 159.309089,73.8025632 153.042577,64.8305636 C148.850368,58.82657 145.49879,52.3253619 145.187187,46.7255712 C144.829789,40.328788 148.212825,33.9113112 154.337573,33.6002792 C160.458637,33.2894268 162.9432,38.5324822 163.954567,42.8551909 C164.966033,38.5324822 167.450597,33.2894268 173.571661,33.6002792 C179.696408,33.9113112 183.079444,40.328788 182.722046,46.7255712 C182.410443,52.3253619 179.058865,58.82657 174.866656,64.8305636 C168.600144,73.8025632 163.954567,81.4335459 163.954567,81.4335459 Z" id="path10188-5-4" fill="#D40000"></path>
                <path d="M60.8837591,180.326856 C60.8837591,180.326856 56.2382813,172.695873 49.9717695,163.723883 C45.7795601,157.71989 42.4279827,151.218682 42.1163794,145.618891 C41.7589813,139.222108 45.1420177,132.804631 51.266765,132.493599 C57.3878288,132.182747 59.8723923,137.425802 60.8837591,141.748511 C61.8952254,137.425802 64.379789,132.182747 70.5008528,132.493599 C76.6256001,132.804631 80.0086364,139.222108 79.6512384,145.618891 C79.339635,151.218682 75.9880577,157.71989 71.7958483,163.723883 C65.5293364,172.695873 60.8837591,180.326856 60.8837591,180.326856 Z" id="path10192-3-6" fill="#D40000"></path>
                <path d="M112.419108,181.9271 C112.419108,181.9271 107.77373,189.558082 101.507119,198.530092 C97.3150087,204.534086 93.9633318,211.035294 93.6518281,216.635074 C93.29443,223.031858 96.6773668,229.449334 102.802114,229.760366 C108.923277,230.071219 111.407841,224.828163 112.419108,220.505455 C113.430674,224.828163 115.915138,230.071219 122.036301,229.760366 C128.161049,229.449334 131.543986,223.031858 131.186587,216.635074 C130.875084,211.035294 127.523506,204.534086 123.331297,198.530092 C117.064785,189.558082 112.419108,181.9271 112.419108,181.9271 Z" id="path10196-7-3" fill="#D40000"></path>
                <path d="M163.954567,231.37371 C163.954567,231.37371 159.309089,239.004693 153.042577,247.976693 C148.850368,253.980686 145.49879,260.481894 145.187187,266.081685 C144.829789,272.478468 148.212825,278.895945 154.337573,279.206977 C160.458637,279.517829 162.9432,274.274774 163.954567,269.952065 C164.966033,274.274774 167.450597,279.517829 173.571661,279.206977 C179.696408,278.895945 183.079444,272.478468 182.722046,266.081685 C182.410443,260.481894 179.058865,253.980686 174.866656,247.976693 C168.600144,239.004693 163.954567,231.37371 163.954567,231.37371 Z" id="path10202-2-8" fill="#D40000"></path>
                <path d="M60.8837591,231.37371 C60.8837591,231.37371 56.2382813,239.004693 49.9717695,247.976693 C45.7795601,253.980686 42.4279827,260.481894 42.1163794,266.081685 C41.7589813,272.478468 45.1420177,278.895945 51.266765,279.206977 C57.3878288,279.517829 59.8723923,274.274774 60.8837591,269.952065 C61.8952254,274.274774 64.379789,279.517829 70.5008528,279.206977 C76.6256001,278.895945 80.0086364,272.478468 79.6512384,266.081685 C79.339635,260.481894 75.9880577,253.980686 71.7958483,247.976693 C65.5293364,239.004693 60.8837591,231.37371 60.8837591,231.37371 Z" id="path10204-9-4" fill="#D40000"></path>
                <path d="M7.77027161,38.049502 C7.92637193,33.6335724 9.52122339,31.9771876 12.6609503,29.6667018 C10.1560778,27.857607 9.10011093,25.1907647 9.31514708,22.9208487 C9.83093518,17.4241871 14.070134,14.6765042 18.6959001,14.7939274 C23.3254492,14.9166337 27.3098899,18.5911424 27.6208959,22.5854251 C27.8909853,26.0575832 26.8606038,27.733605 24.4005305,29.559745 C27.320144,32.0280245 29.1849853,33.6492222 29.115895,37.9985655 C29.0472029,42.3479088 25.3515677,47.5235007 18.9108367,47.681394 C12.4702053,47.8392874 7.61018915,42.465332 7.77027161,38.049502 Z M25.7496832,38.0654509 C26.0248498,34.0672807 22.4947726,31.3704347 18.5102323,31.3312604 C14.6307213,31.2893947 11.1607745,34.605055 11.1607745,38.1946363 C11.1607745,42.0492671 15.6751399,44.1442445 18.5908709,44.153415 C22.1350848,44.1693639 25.5102564,41.5075056 25.7496832,38.0654509 Z M24.4747976,23.7630462 C24.5504584,20.3993401 21.4502544,17.985785 18.250397,18.082375 C15.4051501,18.1700935 12.3959382,20.3418246 12.3908609,23.1560938 C12.3908609,26.6791885 15.8160085,28.4387422 18.7406993,28.5066244 C21.3953007,28.5664325 24.4146671,26.3071822 24.4747976,23.7630462 Z" id="path27-00-0-7-4" fill="#D40000"></path>
                <path d="M195.722321,274.757972 C195.878422,279.173902 197.473273,280.830287 200.613,283.140773 C198.108128,284.949867 197.052161,287.61661 197.267197,289.886626 C197.782985,295.383287 202.022184,298.13097 206.64795,298.013447 C211.277499,297.890741 215.26194,294.216332 215.572946,290.222049 C215.843035,286.749891 214.812654,285.07387 212.35258,283.247729 C215.272194,280.77945 217.137035,279.158252 217.067945,274.808909 C216.999253,270.459566 213.303618,265.283974 206.862887,265.12608 C200.422255,264.968087 195.562239,270.342143 195.722321,274.757972 Z M213.701733,274.742024 C213.9769,278.740194 210.446822,281.43704 206.462282,281.476214 C202.582771,281.51808 199.112824,278.20242 199.112824,274.612838 C199.112824,270.758207 203.62719,268.66323 206.542921,268.654059 C210.087135,268.638111 213.462306,271.299969 213.701733,274.742024 Z M212.426847,289.044428 C212.502508,292.408134 209.402304,294.82169 206.202447,294.725099 C203.3572,294.637381 200.347988,292.46565 200.342911,289.651381 C200.342911,286.128286 203.768058,284.368732 206.692749,284.30085 C209.347351,284.241042 212.366717,286.500292 212.426847,289.044428 Z" id="path27-0-1-0-8-9" fill="#D40000"></path>
            </g>
        </g>
    </g>
</svg>