<?xml version="1.0" encoding="UTF-8"?>
<svg width="224px" height="312px" viewBox="0 0 224 312" version="1.1" xmlns="http://www.w3.org/2000/svg" xmlns:xlink="http://www.w3.org/1999/xlink">
    <!-- Generator: Sketch 50.2 (55047) - http://www.bohemiancoding.com/sketch -->
    <title>g11369-4-9</title>
    <desc>Created with Sketch.</desc>
    <defs></defs>
    <g id="Page-1" stroke="none" stroke-width="1" fill="none" fill-rule="evenodd">
        <g id="Color_52_Faces_v.2.0" transform="translate(-528.000000, -2769.000000)" fill-rule="nonzero">
            <g id="g11369-4-9" transform="translate(527.897079, 2768.530683)">
                <g id="g9800-8-2" transform="translate(0.642301, 0.722083)" fill="#FFFFFF" stroke="#000000" stroke-width="0.99673417">
                    <rect id="rect9802-4-3" x="0.431107663" y="0.274688545" width="222.232247" height="310.813662" rx="10.677567"></rect>
                </g>
                <path d="M18.2138687,70.7462407 C18.2138687,70.7462407 15.9990959,67.5666637 13.0114891,63.8283397 C11.012748,61.3266773 9.41490992,58.6178398 9.26627613,56.284597 C9.09593962,53.6192698 10.7088103,50.9453203 13.6288221,50.8157162 C16.5471394,50.6862018 17.7316302,52.8708016 18.2138687,54.6719319 C18.6961072,52.8708016 19.8806975,50.6862018 22.7989173,50.8157162 C25.718929,50.9453203 27.3318993,53.6192698 27.1614632,56.284597 C27.012929,58.6178398 25.4149914,61.3266773 23.4163498,63.8283397 C20.4286415,67.5666637 18.2138687,70.7462407 18.2138687,70.7462407 Z" id="path9834-5-2" fill="#D40000"></path>
                <path d="M206.165915,242.061145 C206.165915,242.061145 203.951142,245.240722 200.963533,248.979046 C198.964792,251.480708 197.366954,254.189546 197.21832,256.522789 C197.047984,259.188116 198.660854,261.862065 201.580866,261.99167 C204.499185,262.121184 205.683676,259.936584 206.165915,258.135454 C206.648153,259.936584 207.832743,262.121184 210.750963,261.99167 C213.670971,261.862065 215.283941,259.188116 215.113505,256.522789 C214.964971,254.189546 213.367033,251.480708 211.368396,248.979046 C208.380687,245.240722 206.165915,242.061145 206.165915,242.061145 Z" id="path9836-5-8" fill="#D40000"></path>
                <path d="M112.189491,81.4335459 C112.189491,81.4335459 107.544014,73.8025632 101.277502,64.8305636 C97.0852924,58.82657 93.733715,52.3253619 93.4221117,46.7255712 C93.0647137,40.328788 96.44775,33.9113112 102.572497,33.6002792 C108.693561,33.2894268 111.178125,38.5324822 112.189491,42.8551909 C113.200958,38.5324822 115.685521,33.2894268 121.806585,33.6002792 C127.931332,33.9113112 131.314369,40.328788 130.956971,46.7255712 C130.645367,52.3253619 127.29379,58.82657 123.101581,64.8305636 C116.835069,73.8025632 112.189491,81.4335459 112.189491,81.4335459 Z" id="path9840-3-6" fill="#D40000"></path>
                <path d="M112.189481,180.326856 C112.189481,180.326856 107.544004,172.695873 101.277492,163.723873 C97.0852844,157.71988 93.7337071,151.218672 93.4221037,145.618881 C93.0647057,139.222098 96.447742,132.804621 102.572487,132.493589 C108.693551,132.182737 111.178115,137.425792 112.189481,141.748501 C113.200948,137.425792 115.685511,132.182737 121.806575,132.493589 C127.931322,132.804621 131.314359,139.222098 130.956961,145.618881 C130.645357,151.218672 127.29378,157.71988 123.101571,163.723873 C116.835059,172.695873 112.189481,180.326856 112.189481,180.326856 Z" id="path9850-2-3" fill="#D40000"></path>
                <path d="M112.189491,231.37371 C112.189491,231.37371 107.544014,239.004693 101.277502,247.976693 C97.0852954,253.980686 93.733718,260.481894 93.4221147,266.081685 C93.0647166,272.478468 96.447753,278.895945 102.572497,279.206977 C108.693561,279.517829 111.178125,274.274774 112.189491,269.952065 C113.200958,274.274774 115.685521,279.517829 121.806585,279.206977 C127.931332,278.895945 131.314369,272.478468 130.956971,266.081685 C130.645367,260.481894 127.29379,253.980686 123.101581,247.976693 C116.835069,239.004693 112.189491,231.37371 112.189491,231.37371 Z" id="path9854-8-0" fill="#D40000"></path>
                <path d="M7.55015822,40.4742213 L10.0794214,38.611698 C12.2744826,42.1906135 14.7293791,44.5477496 18.4847465,44.143148 C24.1190919,43.7554919 26.4537275,37.841669 25.2749113,33.3856679 C24.1345228,29.3877968 19.4690347,27.4404457 15.7597606,29.5718063 C14.8842848,30.0769852 14.039571,30.4893619 13.8744113,30.4893619 C13.4853551,30.4893619 12.6047024,28.7351909 12.7250629,28.200108 C15.2145046,24.5597895 21.2597084,18.1825536 21.2597084,18.1825536 L11.8149423,18.1825536 L11.8149423,22.4532492 L8.19018943,22.4532492 L8.19018943,14.7903389 L26.6495498,14.7903389 L26.6495498,17.3902959 C26.6495498,17.3902959 21.7038178,22.5263148 20.069344,25.3389891 C24.0948008,25.4865157 27.3394574,28.0408191 28.5042366,32.0791604 C29.1838902,34.2053377 28.8792556,39.068532 27.9896431,41.1647056 C26.5037035,44.6586936 22.4448961,47.4936963 18.7344274,47.656773 C12.50485,48.0757286 9.20006292,43.7059509 7.55015822,40.4742213 Z" id="path17-2-9-8-4" fill="#D40000"></path>
                <path d="M216.826726,272.333213 L214.297463,274.195737 C212.102402,270.616821 209.647505,268.259585 205.892138,268.664287 C200.257792,269.051943 197.923157,274.965766 199.101973,279.421767 C200.242361,283.419638 204.90785,285.366989 208.617124,283.235628 C209.492599,282.730449 210.337313,282.318073 210.502473,282.318073 C210.891529,282.318073 211.772182,284.072244 211.651821,284.607327 C209.16238,288.247645 203.117176,294.624881 203.117176,294.624881 L212.561942,294.624881 L212.561942,290.354185 L216.186695,290.354185 L216.186695,298.017096 L197.727334,298.017096 L197.727334,295.417139 C197.727334,295.417139 202.673066,290.28112 204.30754,287.468346 C200.282083,287.320919 197.037427,284.766615 195.872648,280.728274 C195.192994,278.602097 195.497629,273.738903 196.387241,271.642729 C197.873181,268.148741 201.931988,265.313738 205.642457,265.150662 C211.872034,264.731706 215.176821,269.101484 216.826726,272.333213 Z" id="path17-5-3-9-1-3" fill="#D40000"></path>
            </g>
        </g>
    </g>
</svg>