<?xml version="1.0" encoding="UTF-8"?>
<svg width="225px" height="312px" viewBox="0 0 225 312" version="1.1" xmlns="http://www.w3.org/2000/svg" xmlns:xlink="http://www.w3.org/1999/xlink">
    <!-- Generator: Sketch 50.2 (55047) - http://www.bohemiancoding.com/sketch -->
    <title>g11153-5-1</title>
    <desc>Created with Sketch.</desc>
    <defs></defs>
    <g id="Page-1" stroke="none" stroke-width="1" fill="none" fill-rule="evenodd">
        <g id="Color_52_Faces_v.2.0" transform="translate(-2107.000000, -2769.000000)" fill-rule="nonzero">
            <g id="g11153-5-1" transform="translate(2107.190591, 2768.530683)">
                <g id="g10208-4-1" transform="translate(0.718878, 0.722083)" fill="#FFFFFF" stroke="#000000" stroke-width="0.99673417">
                    <rect id="rect10210-5-4" x="0.431107663" y="0.274688545" width="222.232247" height="310.813662" rx="10.677567"></rect>
                </g>
                <path d="M60.7306454,147.362416 C60.7306454,147.362416 56.0851676,139.731433 49.8186558,130.759434 C45.6264464,124.75544 42.274869,118.254232 41.9632657,112.654441 C41.6058676,106.257657 44.988904,99.8401804 51.1136513,99.5291485 C57.2347151,99.218296 59.7192786,104.461351 60.7306454,108.78406 C61.7421117,104.461351 64.2266753,99.218296 70.3477391,99.5291485 C76.4724864,99.8401804 79.8555227,106.257657 79.4981247,112.654441 C79.1865213,118.254232 75.834944,124.75544 71.6427346,130.759434 C65.3762227,139.731433 60.7306454,147.362416 60.7306454,147.362416 Z" id="path10240-7-9" fill="#D40000"></path>
                <path d="M18.2904255,70.7462407 C18.2904255,70.7432503 16.0756527,67.5666637 13.088046,63.8283397 C11.0893048,61.3266773 9.49146677,58.6178398 9.34283298,56.284597 C9.17249648,53.6192698 10.7853672,50.9453203 13.7053789,50.8157162 C16.6236963,50.6862018 17.8081871,52.8708016 18.2904255,54.6719319 C18.772664,52.8708016 19.9572544,50.6862018 22.8754742,50.8157162 C25.7954859,50.9453203 27.4084561,53.6192698 27.2380201,56.284597 C27.0894859,58.6178398 25.4915482,61.3266773 23.4929067,63.8283397 C20.5051983,67.5666637 18.2923171,70.743649 18.2904255,70.7462407 Z" id="path10242-3-8" fill="#D40000"></path>
                <path d="M206.242471,242.061145 C206.242471,242.061145 204.027699,245.240722 201.04009,248.979046 C199.041349,251.480708 197.443511,254.189546 197.294877,256.522789 C197.12454,259.188116 198.737411,261.862065 201.657423,261.99167 C204.575742,262.121184 205.760233,259.936584 206.242471,258.135454 C206.72471,259.936584 207.9093,262.121184 210.82752,261.99167 C213.747528,261.862065 215.360498,259.188116 215.190062,256.522789 C215.041528,254.189546 213.44359,251.480708 211.444953,248.979046 C208.457244,245.240722 206.242471,242.061145 206.242471,242.061145 Z" id="path10244-4-5" fill="#D40000"></path>
                <path d="M60.7306454,81.4335459 C60.7306454,81.4335459 56.0851676,73.8025632 49.8186558,64.8305636 C45.6264464,58.82657 42.274869,52.3253619 41.9632657,46.7255712 C41.6058676,40.328788 44.988904,33.9113112 51.1136513,33.6002792 C57.2347151,33.2894268 59.7192786,38.5324822 60.7306454,42.8551909 C61.7421117,38.5324822 64.2266753,33.2894268 70.3477391,33.6002792 C76.4724864,33.9113112 79.8555227,40.328788 79.4981247,46.7255712 C79.1865213,52.3253619 75.834944,58.82657 71.6427346,64.8305636 C65.3762227,73.8025632 60.7306454,81.4335459 60.7306454,81.4335459 Z" id="path10250-9-0" fill="#D40000"></path>
                <path d="M163.801453,147.362416 C163.801453,147.362416 159.155975,139.731433 152.889464,130.759434 C148.697254,124.75544 145.345677,118.254232 145.034073,112.654441 C144.676675,106.257657 148.059712,99.8401804 154.184459,99.5291485 C160.305523,99.218296 162.790086,104.461351 163.801453,108.78406 C164.812919,104.461351 167.297483,99.218296 173.418547,99.5291485 C179.543294,99.8401804 182.92633,106.257657 182.568932,112.654441 C182.257329,118.254232 178.905752,124.75544 174.713542,130.759434 C168.44703,139.731433 163.801453,147.362416 163.801453,147.362416 Z" id="path10254-7-3" fill="#D40000"></path>
                <path d="M163.801453,81.4335459 C163.801453,81.4335459 159.155975,73.8025632 152.889464,64.8305636 C148.697254,58.82657 145.345677,52.3253619 145.034073,46.7255712 C144.676675,40.328788 148.059712,33.9113112 154.184459,33.6002792 C160.305523,33.2894268 162.790086,38.5324822 163.801453,42.8551909 C164.812919,38.5324822 167.297483,33.2894268 173.418547,33.6002792 C179.543294,33.9113112 182.92633,40.328788 182.568932,46.7255712 C182.257329,52.3253619 178.905752,58.82657 174.713542,64.8305636 C168.44703,73.8025632 163.801453,81.4335459 163.801453,81.4335459 Z" id="path10256-4-7" fill="#D40000"></path>
                <path d="M112.266038,180.326856 C112.266038,180.326856 107.620561,172.695873 101.354049,163.723873 C97.1618413,157.71988 93.8102639,151.218672 93.4986606,145.618881 C93.1412626,139.222098 96.5242989,132.804621 102.649044,132.493589 C108.770108,132.182737 111.254672,137.425792 112.266038,141.748501 C113.277505,137.425792 115.762068,132.182737 121.883132,132.493589 C128.007879,132.804621 131.390916,139.222098 131.033518,145.618881 C130.721914,151.218672 127.370337,157.71988 123.178127,163.723873 C116.911616,172.695873 112.266038,180.326856 112.266038,180.326856 Z" id="path10258-5-9" fill="#D40000"></path>
                <path d="M163.801453,165.444831 C163.801453,165.444831 159.155975,173.075814 152.889464,182.047813 C148.697254,188.051807 145.345677,194.553015 145.034073,200.152806 C144.676675,206.549589 148.059712,212.967066 154.184459,213.278098 C160.305523,213.588951 162.790086,208.345895 163.801453,204.023186 C164.812919,208.345895 167.297483,213.588951 173.418547,213.278098 C179.543294,212.967066 182.92633,206.549589 182.568932,200.152806 C182.257329,194.553015 178.905752,188.051807 174.713542,182.047813 C168.44703,173.075814 163.801453,165.444831 163.801453,165.444831 Z" id="path10266-8-9" fill="#D40000"></path>
                <path d="M60.7306454,165.444831 C60.7306454,165.444831 56.0851676,173.075814 49.8186558,182.047813 C45.6264464,188.051807 42.274869,194.553015 41.9632657,200.152806 C41.6058676,206.549589 44.988904,212.967066 51.1136513,213.278098 C57.2347151,213.588951 59.7192786,208.345895 60.7306454,204.023186 C61.7421117,208.345895 64.2266753,213.588951 70.3477391,213.278098 C76.4724864,212.967066 79.8555227,206.549589 79.4981247,200.152806 C79.1865213,194.553015 75.834944,188.051807 71.6427346,182.047813 C65.3762227,173.075814 60.7306454,165.444831 60.7306454,165.444831 Z" id="path10268-2-7" fill="#D40000"></path>
                <path d="M163.801453,231.37371 C163.801453,231.37371 159.155975,239.004693 152.889464,247.976693 C148.697254,253.980686 145.345677,260.481894 145.034073,266.081685 C144.676675,272.478468 148.059712,278.895945 154.184459,279.206977 C160.305523,279.517829 162.790086,274.274774 163.801453,269.952065 C164.812919,274.274774 167.297483,279.517829 173.418547,279.206977 C179.543294,278.895945 182.92633,272.478468 182.568932,266.081685 C182.257329,260.481894 178.905752,253.980686 174.713542,247.976693 C168.44703,239.004693 163.801453,231.37371 163.801453,231.37371 Z" id="path10270-1-4" fill="#D40000"></path>
                <path d="M60.7306454,231.37371 C60.7306454,231.37371 56.0851676,239.004693 49.8186558,247.976693 C45.6264464,253.980686 42.274869,260.481894 41.9632657,266.081685 C41.6058676,272.478468 44.988904,278.895945 51.1136513,279.206977 C57.2347151,279.517829 59.7192786,274.274774 60.7306454,269.952065 C61.7421117,274.274774 64.2266753,279.517829 70.3477391,279.206977 C76.4724864,278.895945 79.8555227,272.478468 79.4981247,266.081685 C79.1865213,260.481894 75.834944,253.980686 71.6427346,247.976693 C65.3762227,239.004693 60.7306454,231.37371 60.7306454,231.37371 Z" id="path10272-0-7" fill="#D40000"></path>
                <path d="M9.11175872,41.3436314 L12.117088,40.3894932 C13.2523993,43.4227597 15.5422356,44.320778 17.9664696,44.126302 C22.3157749,43.7791161 23.7607979,38.9106387 24.0859405,34.6073476 C22.3912366,36.4072718 19.8454475,37.3209399 17.6759717,37.2282374 C10.7411553,36.8562311 8.96591244,31.298665 8.90189936,25.4813323 C8.71244853,20.576372 10.7373723,17.0235726 14.2111021,15.3920082 C16.0516523,14.5658593 20.2652658,14.5658593 22.11607,15.5447182 C26.3655228,17.7897142 27.9411604,21.6674707 27.6557398,30.9266587 C27.6557398,38.5439155 26.0403802,47.4154474 17.885831,47.6086275 C13.1769375,48.2612334 9.59688426,44.5910108 9.11175872,41.3436314 Z M20.9167457,32.996716 C22.3311062,32.1000932 23.1272377,31.2581948 23.7620921,29.9986366 C24.2817628,28.9636578 24.4622538,28.4232918 24.3124254,26.2827606 C23.9271523,20.7603815 21.0371062,17.6252419 16.8427066,18.2465482 C14.5028942,18.5989175 13.2230309,19.9094122 12.4883241,22.3461928 C11.1327999,26.8531303 12.8530891,32.1249136 16.0734546,33.3387186 C17.5223602,33.889551 19.7622206,33.731558 20.9167457,32.996716 Z" id="path29-5-8-5-4" fill="#D40000"></path>
                <path d="M215.41814,271.463723 L212.41281,272.417862 C211.277499,269.384595 208.987663,268.486577 206.563429,268.681053 C202.214124,269.028239 200.7691,273.896716 200.443958,278.200007 C202.138662,276.400083 204.684451,275.486415 206.853927,275.579117 C213.788743,275.951124 215.563986,281.50869 215.627999,287.326023 C215.81745,292.230983 213.792526,295.783782 210.318796,297.415347 C208.478246,298.241496 204.264633,298.241496 202.413828,297.262637 C198.164475,295.017641 196.588838,291.139884 196.874258,281.880696 C196.874258,274.263439 198.489518,265.391907 206.644067,265.198727 C211.352961,264.546122 214.933014,268.216344 215.41814,271.463723 Z M203.613153,279.810639 C202.198792,280.707262 201.402661,281.54916 200.767806,282.808718 C200.248136,283.843697 200.067744,284.384063 200.217473,286.524594 C200.602746,292.046973 203.492792,295.182113 207.687192,294.560807 C210.027004,294.208437 211.306867,292.897943 212.041574,290.461162 C213.397099,285.954225 211.676809,280.682441 208.456444,279.468636 C207.007538,278.917804 204.767678,279.075797 203.613153,279.810639 Z" id="path29-6-2-3-6-6" fill="#D40000"></path>
            </g>
        </g>
    </g>
</svg>