<?xml version="1.0" encoding="UTF-8"?>
<svg width="224px" height="313px" viewBox="0 0 224 313" version="1.1" xmlns="http://www.w3.org/2000/svg" xmlns:xlink="http://www.w3.org/1999/xlink">
    <!-- Generator: Sketch 50.2 (55047) - http://www.bohemiancoding.com/sketch -->
    <title>g8409-3-3</title>
    <desc>Created with Sketch.</desc>
    <defs></defs>
    <g id="Page-1" stroke="none" stroke-width="1" fill="none" fill-rule="evenodd">
        <g id="Color_52_Faces_v.2.0" transform="translate(-2.000000, -3120.000000)" fill-rule="nonzero">
            <g id="g8409-3-3" transform="translate(1.908270, 3120.749208)">
                <rect id="rect6355-6-85-62-9-7" stroke="#000000" stroke-width="0.99673417" fill="#FFFFFF" x="0.60553583" y="0.589907033" width="222.232247" height="310.813662" rx="10.677567"></rect>
                <path d="M17.7460078,50.4033295 C13.4546428,55.867934 8.86302361,59.012603 8.78676542,63.2759124 C8.76088144,64.6564324 9.59703359,67.0028729 12.2152978,67.4520016 C13.9139839,67.7420409 16.2527012,66.5143904 16.3015821,64.0202937 C16.2916267,63.5237371 16.8903431,63.5366457 16.8847681,64.2170424 C16.805125,66.1843694 16.1073526,68.4748693 14.9352065,70.3393563 C16.8091072,70.3393563 18.6829083,70.3393563 20.556809,70.3393563 C19.3846629,68.4748693 18.6871891,66.1843694 18.6072475,64.2170424 C18.5972921,63.5366457 19.1979,63.5237371 19.1904335,64.0202937 C19.2392148,66.5143904 21.5780316,67.7420409 23.2767177,67.4520016 C25.8949819,67.0028729 26.7308354,64.6564324 26.7052501,63.2759124 C26.6285937,59.012603 22.0372732,55.867934 17.7460078,50.4033295 Z" id="path153-0-1-2-5-5-5-3-4" fill="#000000"></path>
                <path d="M205.698058,261.590287 C201.406693,256.125682 196.815073,252.981013 196.738815,248.717704 C196.712931,247.337184 197.549083,244.990743 200.167348,244.541614 C201.866034,244.251575 204.204751,245.479226 204.253632,247.973322 C204.243677,248.469879 204.842393,248.45697 204.836818,247.776574 C204.757175,245.809247 204.059402,243.518747 202.887256,241.65426 C204.761157,241.65426 206.634958,241.65426 208.508859,241.65426 C207.336713,243.518747 206.639239,245.809247 206.559297,247.776574 C206.549342,248.45697 207.14995,248.469879 207.142483,247.973322 C207.191265,245.479226 209.530081,244.251575 211.228768,244.541614 C213.847032,244.990743 214.682885,247.337184 214.6573,248.717704 C214.580644,252.981013 209.989323,256.125682 205.698058,261.590287 Z" id="path153-0-1-2-5-6-5-9-1-9" fill="#000000"></path>
                <path d="M111.721664,132.073506 C102.536833,145.188541 92.7091832,152.735772 92.5459151,162.967699 C92.4911605,166.280967 94.2802413,171.912416 99.8841233,172.990317 C103.519827,173.686413 108.52549,170.740058 108.630022,164.754226 C108.614093,163.5625 109.890273,163.593471 109.878327,165.226431 C109.707094,169.948 108.214385,175.4452 105.70563,179.91997 C109.716353,179.91997 113.726976,179.91997 117.737699,179.91997 C115.228944,175.4452 113.736235,169.948 113.565002,165.226431 C113.553056,163.593471 114.829235,163.5625 114.813307,164.754226 C114.917838,170.740058 119.923502,173.686413 123.559205,172.990317 C129.163087,171.912416 130.952168,166.280967 130.897414,162.967699 C130.734145,152.735772 120.906496,145.188541 111.721664,132.073506 Z" id="path153-6-3-1-6-92-7-2-9-8" fill="#000000"></path>
                <path d="M7.69753763,47.277849 L7.69753763,44.4651746 L10.3778239,44.4651746 L16.087631,14.3834047 L19.3374644,14.3834047 L25.6271723,44.4651746 L27.7915709,44.4651746 L27.7915709,47.277849 L20.4164282,47.277849 L20.4164282,44.4651746 L22.4068068,44.4651746 L21.6119695,39.8552675 L14.1716191,39.8552675 L13.5968952,44.4651746 L15.5871742,44.4651746 L15.5871742,47.277849 L7.69753763,47.277849 Z M20.9771151,36.5714051 L17.742613,20.4706712 L14.7129925,36.5714051 L20.9771151,36.5714051 Z" id="path41-4-9-2" fill="#000000"></path>
                <path d="M195.649587,264.715767 L195.649587,267.528441 L198.329874,267.528441 L204.039681,297.610211 L207.289504,297.610211 L213.579212,267.528441 L215.743611,267.528441 L215.743611,264.715767 L208.368468,264.715767 L208.368468,267.528441 L210.358847,267.528441 L209.564009,272.138349 L202.123669,272.138349 L201.548945,267.528441 L203.539224,267.528441 L203.539224,264.715767 L195.649587,264.715767 Z M208.929155,275.422211 L205.694653,291.522945 L202.665042,275.422211 L208.929155,275.422211 Z" id="path41-4-2-4-0" fill="#000000"></path>
            </g>
        </g>
    </g>
</svg>