<?xml version="1.0" encoding="UTF-8"?>
<svg width="224px" height="313px" viewBox="0 0 224 313" version="1.1" xmlns="http://www.w3.org/2000/svg" xmlns:xlink="http://www.w3.org/1999/xlink">
    <!-- Generator: Sketch 50.2 (55047) - http://www.bohemiancoding.com/sketch -->
    <title>g8497-6-8</title>
    <desc>Created with Sketch.</desc>
    <defs></defs>
    <g id="Page-1" stroke="none" stroke-width="1" fill="none" fill-rule="evenodd">
        <g id="Color_52_Faces_v.2.0" transform="translate(-1581.000000, -3120.000000)" fill-rule="nonzero">
            <g id="g8497-6-8" transform="translate(1581.642780, 3120.749208)">
                <rect id="rect7056-4-2" stroke="#000000" stroke-width="0.99673417" fill="#FFFFFF" x="0.241119241" y="0.589907033" width="222.232247" height="310.813662" rx="10.677567"></rect>
                <path d="M59.8219624,33.1801973 C50.6371312,46.2952321 40.8094813,53.8424636 40.6462131,64.0743901 C40.5914585,67.3876581 42.3805394,73.0191072 47.9844213,74.0970083 C51.6201251,74.7931046 56.6257884,71.8467492 56.7303199,65.8609173 C56.7143913,64.6691915 57.9905711,64.7001621 57.9786247,66.333122 C57.8073922,71.0546909 56.3146829,76.5518908 53.8059278,81.0266616 C57.8166507,81.0266616 61.827274,81.0266616 65.8379969,81.0266616 C63.3292418,76.5518908 61.8365325,71.0546909 61.6653,66.333122 C61.6533536,64.7001621 62.9295334,64.6691915 62.9136048,65.8609173 C63.0181363,71.8467492 68.0237996,74.7931046 71.6595034,74.0970083 C77.2633853,73.0191072 79.0524662,67.3876581 78.9977116,64.0743901 C78.8344434,53.8424636 69.0067935,46.2952321 59.8219624,33.1801973 Z" id="path7086-8-0" fill="#000000"></path>
                <path d="M17.3816907,50.4033295 C13.0903257,55.867934 8.49870658,59.012603 8.42244839,63.2759124 C8.39656441,64.6564324 9.23271655,67.0028729 11.8509808,67.4520016 C13.5496669,67.7420409 15.8883841,66.5143904 15.937265,64.0202937 C15.9273096,63.5237371 16.526026,63.5366457 16.520451,64.2170424 C16.440808,66.1843694 15.7430356,68.4748693 14.5708895,70.3393563 C16.4447902,70.3393563 18.3185913,70.3393563 20.192492,70.3393563 C19.0203458,68.4748693 18.3228721,66.1843694 18.2429304,64.2170424 C18.232975,63.5366457 18.833583,63.5237371 18.8261164,64.0202937 C18.8748978,66.5143904 21.2137146,67.7420409 22.9124006,67.4520016 C25.5306649,67.0028729 26.3665184,64.6564324 26.3409331,63.2759124 C26.2642767,59.012603 21.6729562,55.867934 17.3816907,50.4033295 Z" id="path7088-9-3" fill="#000000"></path>
                <path d="M205.333741,261.590287 C201.042376,256.125682 196.450756,252.981013 196.374498,248.717704 C196.348614,247.337184 197.184766,244.990743 199.803031,244.541614 C201.501717,244.251575 203.840434,245.479226 203.889315,247.973322 C203.879359,248.469879 204.478076,248.45697 204.472501,247.776574 C204.392858,245.809247 203.695085,243.518747 202.522939,241.65426 C204.39684,241.65426 206.270641,241.65426 208.144542,241.65426 C206.972396,243.518747 206.274922,245.809247 206.19498,247.776574 C206.185025,248.45697 206.785633,248.469879 206.778166,247.973322 C206.826948,245.479226 209.165764,244.251575 210.86445,244.541614 C213.482715,244.990743 214.318568,247.337184 214.292983,248.717704 C214.216327,252.981013 209.625006,256.125682 205.333741,261.590287 Z" id="path7092-7-0" fill="#000000"></path>
                <path d="M162.892772,33.1801973 C153.707941,46.2952321 143.880291,53.8424636 143.717023,64.0743901 C143.662268,67.3876581 145.451349,73.0191072 151.055231,74.0970083 C154.690935,74.7931046 159.696598,71.8467492 159.80113,65.8609173 C159.785201,64.6691915 161.061381,64.7001621 161.049434,66.333122 C160.878202,71.0546909 159.385493,76.5518908 156.876738,81.0266616 C160.88746,81.0266616 164.898084,81.0266616 168.908807,81.0266616 C166.400052,76.5518908 164.907342,71.0546909 164.73611,66.333122 C164.724163,64.7001621 166.000343,64.6691915 165.984415,65.8609173 C166.088946,71.8467492 171.094609,74.7931046 174.730313,74.0970083 C180.334195,73.0191072 182.123276,67.3876581 182.068521,64.0743901 C181.905253,53.8424636 172.077603,46.2952321 162.892772,33.1801973 Z" id="path7094-3-5" fill="#000000"></path>
                <path d="M111.357367,82.6267969 C102.172536,95.7418317 92.3448861,103.289063 92.1816179,113.52099 C92.1268634,116.834258 93.9159442,122.465707 99.5198262,123.543608 C103.15553,124.239704 108.161193,121.293349 108.265725,115.307517 C108.249796,114.115791 109.525976,114.146762 109.51403,115.779722 C109.342797,120.50129 107.850088,125.99849 105.341333,130.473261 C109.352056,130.473261 113.362679,130.473261 117.373402,130.473261 C114.864647,125.99849 113.371937,120.50129 113.200705,115.779722 C113.188758,114.146762 114.464938,114.115791 114.44901,115.307517 C114.553541,121.293349 119.559204,124.239704 123.194908,123.543608 C128.79879,122.465707 130.587871,116.834258 130.533117,113.52099 C130.369848,103.289063 120.542198,95.7418317 111.357367,82.6267969 Z" id="path7098-7-3" fill="#000000"></path>
                <path d="M59.8219624,132.073506 C50.6371312,145.188541 40.8094813,152.735772 40.6462131,162.967699 C40.5914585,166.280967 42.3805394,171.912416 47.9844213,172.990317 C51.6201251,173.686413 56.6257884,170.740058 56.7303199,164.754226 C56.7143913,163.5625 57.9905711,163.593471 57.9786247,165.226431 C57.8073922,169.948 56.3146829,175.4452 53.8059278,179.91997 C57.8166507,179.91997 61.827274,179.91997 65.8379969,179.91997 C63.3292418,175.4452 61.8365325,169.948 61.6653,165.226431 C61.6533536,163.593471 62.9295334,163.5625 62.9136048,164.754226 C63.0181363,170.740058 68.0237996,173.686413 71.6595034,172.990317 C77.2633853,171.912416 79.0524662,166.280967 78.9977116,162.967699 C78.8344434,152.735772 69.0067935,145.188541 59.8219624,132.073506 Z" id="path7105-0-7" fill="#000000"></path>
                <path d="M59.8219624,278.813289 C50.6371312,265.698254 40.8094813,258.151023 40.6462131,247.919096 C40.5914585,244.605828 42.3805394,238.974379 47.9844213,237.896478 C51.6201251,237.200382 56.6257884,240.146737 56.7303199,246.132569 C56.7143913,247.324295 57.9905711,247.293324 57.9786247,245.660364 C57.8073922,240.938796 56.3146829,235.441596 53.8059278,230.966825 C57.8166507,230.966825 61.827274,230.966825 65.8379969,230.966825 C63.3292418,235.441596 61.8365325,240.938796 61.6653,245.660364 C61.6533536,247.293324 62.9295334,247.324295 62.9136048,246.132569 C63.0181363,240.146737 68.0237996,237.200382 71.6595034,237.896478 C77.2633853,238.974379 79.0524662,244.605828 78.9977116,247.919096 C78.8344434,258.151023 69.0067935,265.698254 59.8219624,278.813289 Z" id="path7107-6-3" fill="#000000"></path>
                <path d="M162.892772,278.813289 C153.707941,265.698254 143.880291,258.151023 143.717023,247.919096 C143.662268,244.605828 145.451349,238.974379 151.055231,237.896478 C154.690935,237.200382 159.696598,240.146737 159.80113,246.132569 C159.785201,247.324295 161.061381,247.293324 161.049434,245.660364 C160.878202,240.938796 159.385493,235.441596 156.876738,230.966825 C160.88746,230.966825 164.898084,230.966825 168.908807,230.966825 C166.400052,235.441596 164.907342,240.938796 164.73611,245.660364 C164.724163,247.293324 166.000343,247.324295 165.984415,246.132569 C166.088946,240.146737 171.094609,237.200382 174.730313,237.896478 C180.334195,238.974379 182.123276,244.605828 182.068521,247.919096 C181.905253,258.151023 172.077603,265.698254 162.892772,278.813289 Z" id="path7109-5-0" fill="#000000"></path>
                <path d="M162.892772,132.073506 C153.707941,145.188541 143.880291,152.735772 143.717023,162.967699 C143.662268,166.280967 145.451349,171.912416 151.055231,172.990317 C154.690935,173.686413 159.696598,170.740058 159.80113,164.754226 C159.785201,163.5625 161.061381,163.593471 161.049434,165.226431 C160.878202,169.948 159.385493,175.4452 156.876738,179.91997 C160.88746,179.91997 164.898084,179.91997 168.908807,179.91997 C166.400052,175.4452 164.907342,169.948 164.73611,165.226431 C164.724163,163.593471 166.000343,163.5625 165.984415,164.754226 C166.088946,170.740058 171.094609,173.686413 174.730313,172.990317 C180.334195,171.912416 182.123276,166.280967 182.068521,162.967699 C181.905253,152.735772 172.077603,145.188541 162.892772,132.073506 Z" id="path7119-1-9" fill="#000000"></path>
                <path d="M12.3301331,47.2742605 C14.4907487,35.8376597 16.7907395,27.251811 22.8295719,17.9336124 L10.5548902,17.9336124 L10.5548902,21.9446413 L7.29609699,21.9446413 L7.29609699,14.3834047 L25.2499233,14.3834047 L27.4642978,17.9336124 C21.0504464,24.9441162 15.1805568,47.6056969 16.2198982,47.2742605 L12.3301331,47.2742605 Z" id="path25-4-6-4" fill="#000000"></path>
                <path d="M210.382312,264.719356 C208.221696,276.155956 205.921606,284.741805 199.882873,294.060004 L212.157554,294.060004 L212.157554,290.048975 L215.416348,290.048975 L215.416348,297.610211 L197.462521,297.610211 L195.248147,294.060004 C201.661998,287.0495 207.531888,264.387919 206.492447,264.719356 L210.382312,264.719356 Z" id="path25-4-1-9-1" fill="#000000"></path>
            </g>
        </g>
    </g>
</svg>