<?xml version="1.0" encoding="UTF-8"?>
<svg width="224px" height="313px" viewBox="0 0 224 313" version="1.1" xmlns="http://www.w3.org/2000/svg" xmlns:xlink="http://www.w3.org/1999/xlink">
    <!-- Generator: Sketch 50.2 (55047) - http://www.bohemiancoding.com/sketch -->
    <title>g8417-9-8</title>
    <desc>Created with Sketch.</desc>
    <defs></defs>
    <g id="Page-1" stroke="none" stroke-width="1" fill="none" fill-rule="evenodd">
        <g id="Color_52_Faces_v.2.0" transform="translate(-265.000000, -3120.000000)" fill-rule="nonzero">
            <g id="g8417-9-8" transform="translate(265.031403, 3120.749208)">
                <rect id="rect6716-2-0" stroke="#000000" stroke-width="0.99673417" fill="#FFFFFF" x="0.710744259" y="0.589907033" width="222.232247" height="310.813662" rx="10.677567"></rect>
                <path d="M17.8512361,50.4033295 C13.5598711,55.867934 8.96825195,59.012603 8.89199376,63.2759124 C8.86610978,64.6564324 9.70226193,67.0028729 12.3205262,67.4520016 C14.0192122,67.7420409 16.3579295,66.5143904 16.4068104,64.0202937 C16.396855,63.5237371 16.9955714,63.5366457 16.9899964,64.2170424 C16.9103534,66.1843694 16.212581,68.4748693 15.0404348,70.3393563 C16.9143355,70.3393563 18.7881367,70.3393563 20.6620374,70.3393563 C19.4898912,68.4748693 18.7924175,66.1843694 18.7124758,64.2170424 C18.7025204,63.5366457 19.3031283,63.5237371 19.2956618,64.0202937 C19.3444432,66.5143904 21.68326,67.7420409 23.381946,67.4520016 C26.0002103,67.0028729 26.8360638,64.6564324 26.8104784,63.2759124 C26.733822,59.012603 22.1425015,55.867934 17.8512361,50.4033295 Z" id="path6748-4-0" fill="#000000"></path>
                <path d="M205.803286,261.590287 C201.511921,256.125682 196.920302,252.981013 196.844044,248.717704 C196.81816,247.337184 197.654312,244.990743 200.272576,244.541614 C201.971262,244.251575 204.309979,245.479226 204.35886,247.973322 C204.348905,248.469879 204.947621,248.45697 204.942046,247.776574 C204.862403,245.809247 204.164631,243.518747 202.992485,241.65426 C204.866385,241.65426 206.740187,241.65426 208.614087,241.65426 C207.441941,243.518747 206.744467,245.809247 206.664526,247.776574 C206.65457,248.45697 207.255178,248.469879 207.247712,247.973322 C207.296493,245.479226 209.63531,244.251575 211.333996,244.541614 C213.95226,244.990743 214.788114,247.337184 214.762528,248.717704 C214.685872,252.981013 210.094551,256.125682 205.803286,261.590287 Z" id="path6752-9-1" fill="#000000"></path>
                <path d="M111.826893,33.1801973 C102.642061,46.2952321 92.8144116,53.8424636 92.6511434,64.0743901 C92.5963888,67.3876581 94.3854697,73.0191072 99.9893516,74.0970083 C103.625055,74.7931046 108.630719,71.8467492 108.73525,65.8609173 C108.719322,64.6691915 109.995501,64.7001621 109.983555,66.333122 C109.812323,71.0546909 108.319613,76.5518908 105.810858,81.0266616 C109.821581,81.0266616 113.832204,81.0266616 117.842927,81.0266616 C115.334172,76.5518908 113.841463,71.0546909 113.67023,66.333122 C113.658284,64.7001621 114.934464,64.6691915 114.918535,65.8609173 C115.023067,71.8467492 120.02873,74.7931046 123.664434,74.0970083 C129.268316,73.0191072 131.057397,67.3876581 131.002642,64.0743901 C130.839374,53.8424636 121.011724,46.2952321 111.826893,33.1801973 Z" id="path6760-2-4" fill="#000000"></path>
                <path d="M111.826893,278.813289 C102.642061,265.698254 92.8144116,258.151023 92.6511434,247.919096 C92.5963888,244.605828 94.3854697,238.974379 99.9893516,237.896478 C103.625055,237.200382 108.630719,240.146737 108.73525,246.132569 C108.719322,247.324295 109.995501,247.293324 109.983555,245.660364 C109.812323,240.938796 108.319613,235.441596 105.810858,230.966825 C109.821581,230.966825 113.832204,230.966825 117.842927,230.966825 C115.334172,235.441596 113.841463,240.938796 113.67023,245.660364 C113.658284,247.293324 114.934464,247.324295 114.918535,246.132569 C115.023067,240.146737 120.02873,237.200382 123.664434,237.896478 C129.268316,238.974379 131.057397,244.605828 131.002642,247.919096 C130.839374,258.151023 121.011724,265.698254 111.826893,278.813289 Z" id="path6774-6-2" fill="#000000"></path>
                <path d="M8.49974194,47.2072754 L8.65982441,45.1788844 C9.16535847,38.9106985 10.5105291,36.7960842 18.1403303,30.2524821 C21.8445271,27.0805605 23.0591827,25.5154827 23.2294197,23.6998091 C23.7145452,19.4170522 19.9297098,18.0803416 17.4645593,18.0608042 C14.2697791,18.031897 10.6551807,19.978351 12.3805472,24.5025332 L8.79541665,25.576786 C8.07484643,21.3567279 8.81632294,17.397732 12.1706878,15.64077 C16.6505081,13.3499211 22.3948604,14.2479394 25.29526,17.8571577 C27.2446225,20.2784879 27.6900261,23.6293353 26.6443132,26.2517202 C23.5891075,32.9506239 13.2253605,35.8979661 12.3702931,43.6489937 L23.8245521,43.6489937 L23.8245521,39.3336413 L27.1998233,39.3336413 L27.1998233,47.277849 L8.49974194,47.2070761 L8.49974194,47.2072754 Z" id="path15-3-8-9" fill="#000000"></path>
                <path d="M215.151873,264.786341 L214.991791,266.814732 C214.486257,273.082918 213.141086,275.197532 205.511285,281.741134 C201.807088,284.913056 200.592432,286.478133 200.422195,288.293807 C199.93707,292.576564 203.721905,293.913275 206.187056,293.932812 C209.381836,293.961719 212.996434,292.015265 211.271068,287.491083 L214.856198,286.41683 C215.576769,290.636888 214.835292,294.595884 211.480927,296.352846 C207.001107,298.643695 201.256755,297.745677 198.356355,294.136458 C196.406993,291.715128 195.961589,288.364281 197.007302,285.741896 C200.062508,279.042992 210.426255,276.09565 211.281322,268.344622 L199.827063,268.344622 L199.827063,272.659975 L196.451792,272.659975 L196.451792,264.715767 L215.151873,264.78654 L215.151873,264.786341 Z" id="path15-3-5-1-4" fill="#000000"></path>
            </g>
        </g>
    </g>
</svg>