<?xml version="1.0" encoding="UTF-8"?>
<svg width="224px" height="313px" viewBox="0 0 224 313" version="1.1" xmlns="http://www.w3.org/2000/svg" xmlns:xlink="http://www.w3.org/1999/xlink">
    <!-- Generator: Sketch 50.2 (55047) - http://www.bohemiancoding.com/sketch -->
    <title>g8511-1-4</title>
    <desc>Created with Sketch.</desc>
    <defs></defs>
    <g id="Page-1" stroke="none" stroke-width="1" fill="none" fill-rule="evenodd">
        <g id="Color_52_Faces_v.2.0" transform="translate(-1844.000000, -3120.000000)" fill-rule="nonzero">
            <g id="g8511-1-4" transform="translate(1844.765886, 3120.749208)">
                <rect id="rect7125-2-7" stroke="#000000" stroke-width="0.99673417" fill="#FFFFFF" x="0.34634758" y="0.589907033" width="222.232247" height="310.813662" rx="10.677567"></rect>
                <path d="M59.9269916,33.1801973 C50.7421604,46.2952321 40.9145105,53.8424636 40.7512423,64.0743901 C40.6964877,67.3876581 42.4855686,73.0191072 48.0894505,74.0970083 C51.7251544,74.7931046 56.7308177,71.8467492 56.8353491,65.8609173 C56.8194205,64.6691915 58.0956004,64.7001621 58.0836539,66.333122 C57.9124214,71.0546909 56.4197121,76.5518908 53.910957,81.0266616 C57.9216799,81.0266616 61.9323033,81.0266616 65.9430261,81.0266616 C63.434271,76.5518908 61.9415618,71.0546909 61.7703293,66.333122 C61.7583828,64.7001621 63.0345626,64.6691915 63.018634,65.8609173 C63.1231655,71.8467492 68.1288288,74.7931046 71.7645326,74.0970083 C77.3684146,73.0191072 79.1574954,67.3876581 79.1027409,64.0743901 C78.9394727,53.8424636 69.1118228,46.2952321 59.9269916,33.1801973 Z" id="path7155-4-0" fill="#000000"></path>
                <path d="M17.48672,50.4033295 C13.195355,55.867934 8.60373581,59.012603 8.52747762,63.2759124 C8.50159364,64.6564324 9.33774579,67.0028729 11.95601,67.4520016 C13.6546961,67.7420409 15.9934133,66.5143904 16.0422942,64.0202937 C16.0323389,63.5237371 16.6310553,63.5366457 16.6254803,64.2170424 C16.5458372,66.1843694 15.8480648,68.4748693 14.6759187,70.3393563 C16.5498194,70.3393563 18.4236205,70.3393563 20.2975212,70.3393563 C19.1253751,68.4748693 18.4279013,66.1843694 18.3479597,64.2170424 C18.3380043,63.5366457 18.9386122,63.5237371 18.9311457,64.0202937 C18.979927,66.5143904 21.3187438,67.7420409 23.0174299,67.4520016 C25.6356941,67.0028729 26.4715476,64.6564324 26.4459623,63.2759124 C26.3693059,59.012603 21.7779854,55.867934 17.48672,50.4033295 Z" id="path7157-2-9" fill="#000000"></path>
                <path d="M205.43877,261.590287 C201.147405,256.125682 196.555786,252.981013 196.479527,248.717704 C196.453643,247.337184 197.289796,244.990743 199.90806,244.541614 C201.606746,244.251575 203.945463,245.479226 203.994344,247.973322 C203.984389,248.469879 204.583105,248.45697 204.57753,247.776574 C204.497887,245.809247 203.800115,243.518747 202.627969,241.65426 C204.501869,241.65426 206.37567,241.65426 208.249571,241.65426 C207.077425,243.518747 206.379951,245.809247 206.30001,247.776574 C206.290054,248.45697 206.890662,248.469879 206.883196,247.973322 C206.931977,245.479226 209.270794,244.251575 210.96948,244.541614 C213.587744,244.990743 214.423597,247.337184 214.398012,248.717704 C214.321356,252.981013 209.730035,256.125682 205.43877,261.590287 Z" id="path7162-7-0" fill="#000000"></path>
                <path d="M162.997801,33.1801973 C153.81297,46.2952321 143.98532,53.8424636 143.822052,64.0743901 C143.767297,67.3876581 145.556378,73.0191072 151.16026,74.0970083 C154.795964,74.7931046 159.801627,71.8467492 159.906159,65.8609173 C159.89023,64.6691915 161.16641,64.7001621 161.154464,66.333122 C160.983231,71.0546909 159.490522,76.5518908 156.981767,81.0266616 C160.99249,81.0266616 165.003113,81.0266616 169.013836,81.0266616 C166.505081,76.5518908 165.012371,71.0546909 164.841139,66.333122 C164.829193,64.7001621 166.105372,64.6691915 166.089444,65.8609173 C166.193975,71.8467492 171.199639,74.7931046 174.835342,74.0970083 C180.439224,73.0191072 182.228305,67.3876581 182.173551,64.0743901 C182.010282,53.8424636 172.182632,46.2952321 162.997801,33.1801973 Z" id="path7164-8-3" fill="#000000"></path>
                <path d="M111.462396,82.6267969 C102.277565,95.7418317 92.4499153,103.289063 92.2866472,113.52099 C92.2318926,116.834258 94.0209735,122.465707 99.6248554,123.543608 C103.260559,124.239704 108.266223,121.293349 108.370754,115.307517 C108.354825,114.115791 109.631005,114.146762 109.619059,115.779722 C109.447826,120.50129 107.955117,125.99849 105.446362,130.473261 C109.457085,130.473261 113.467708,130.473261 117.478431,130.473261 C114.969676,125.99849 113.476967,120.50129 113.305734,115.779722 C113.293788,114.146762 114.569968,114.115791 114.554039,115.307517 C114.65857,121.293349 119.664234,124.239704 123.299937,123.543608 C128.903819,122.465707 130.6929,116.834258 130.638146,113.52099 C130.474878,103.289063 120.647228,95.7418317 111.462396,82.6267969 Z" id="path7168-3-2" fill="#000000"></path>
                <path d="M59.9269916,132.073506 C50.7421604,145.188541 40.9145105,152.735772 40.7512423,162.967699 C40.6964877,166.280967 42.4855686,171.912416 48.0894505,172.990317 C51.7251544,173.686413 56.7308177,170.740058 56.8353491,164.754226 C56.8194205,163.5625 58.0956004,163.593471 58.0836539,165.226431 C57.9124214,169.948 56.4197121,175.4452 53.910957,179.91997 C57.9216799,179.91997 61.9323033,179.91997 65.9430261,179.91997 C63.434271,175.4452 61.9415618,169.948 61.7703293,165.226431 C61.7583828,163.593471 63.0345626,163.5625 63.018634,164.754226 C63.1231655,170.740058 68.1288288,173.686413 71.7645326,172.990317 C77.3684146,171.912416 79.1574954,166.280967 79.1027409,162.967699 C78.9394727,152.735772 69.1118228,145.188541 59.9269916,132.073506 Z" id="path7174-5-0" fill="#000000"></path>
                <path d="M59.9269916,278.813289 C50.7421604,265.698254 40.9145105,258.151023 40.7512423,247.919096 C40.6964877,244.605828 42.4855686,238.974379 48.0894505,237.896478 C51.7251544,237.200382 56.7308177,240.146737 56.8353491,246.132569 C56.8194205,247.324295 58.0956004,247.293324 58.0836539,245.660364 C57.9124214,240.938796 56.4197121,235.441596 53.910957,230.966825 C57.9216799,230.966825 61.9323033,230.966825 65.9430261,230.966825 C63.434271,235.441596 61.9415618,240.938796 61.7703293,245.660364 C61.7583828,247.293324 63.0345626,247.324295 63.018634,246.132569 C63.1231655,240.146737 68.1288288,237.200382 71.7645326,237.896478 C77.3684146,238.974379 79.1574954,244.605828 79.1027409,247.919096 C78.9394727,258.151023 69.1118228,265.698254 59.9269916,278.813289 Z" id="path7176-7-0" fill="#000000"></path>
                <path d="M162.997801,278.813289 C153.81297,265.698254 143.98532,258.151023 143.822052,247.919096 C143.767297,244.605828 145.556378,238.974379 151.16026,237.896478 C154.795964,237.200382 159.801627,240.146737 159.906159,246.132569 C159.89023,247.324295 161.16641,247.293324 161.154464,245.660364 C160.983231,240.938796 159.490522,235.441596 156.981767,230.966825 C160.99249,230.966825 165.003113,230.966825 169.013836,230.966825 C166.505081,235.441596 165.012371,240.938796 164.841139,245.660364 C164.829193,247.293324 166.105372,247.324295 166.089444,246.132569 C166.193975,240.146737 171.199639,237.200382 174.835342,237.896478 C180.439224,238.974379 182.228305,244.605828 182.173551,247.919096 C182.010282,258.151023 172.182632,265.698254 162.997801,278.813289 Z" id="path7178-9-4" fill="#000000"></path>
                <path d="M111.462396,229.36669 C102.277565,216.251655 92.4499153,208.704423 92.2866472,198.472497 C92.2318926,195.159229 94.0209735,189.52778 99.6248554,188.449879 C103.260559,187.753782 108.266223,190.700138 108.370754,196.68597 C108.354825,197.877695 109.631005,197.846725 109.619059,196.213765 C109.447826,191.492196 107.955117,185.994996 105.446362,181.520215 C109.457085,181.520215 113.467708,181.520215 117.478431,181.520215 C114.969676,185.994996 113.476967,191.492196 113.305734,196.213765 C113.293788,197.846725 114.569968,197.877695 114.554039,196.68597 C114.65857,190.700138 119.664234,187.753782 123.299937,188.449879 C128.903819,189.52778 130.6929,195.159229 130.638146,198.472497 C130.474878,208.704423 120.647228,216.251655 111.462396,229.36669 Z" id="path7180-5-1" fill="#000000"></path>
                <path d="M162.997801,132.073506 C153.81297,145.188541 143.98532,152.735772 143.822052,162.967699 C143.767297,166.280967 145.556378,171.912416 151.16026,172.990317 C154.795964,173.686413 159.801627,170.740058 159.906159,164.754226 C159.89023,163.5625 161.16641,163.593471 161.154464,165.226431 C160.983231,169.948 159.490522,175.4452 156.981767,179.91997 C160.99249,179.91997 165.003113,179.91997 169.013836,179.91997 C166.505081,175.4452 165.012371,169.948 164.841139,165.226431 C164.829193,163.593471 166.105372,163.5625 166.089444,164.754226 C166.193975,170.740058 171.199639,173.686413 174.835342,172.990317 C180.439224,171.912416 182.228305,166.280967 182.173551,162.967699 C182.010282,152.735772 172.182632,145.188541 162.997801,132.073506 Z" id="path7189-7-7" fill="#000000"></path>
                <path d="M6.81346029,37.6424781 C6.96956061,33.2266482 8.56441207,31.5701637 11.704139,29.2597776 C9.19926649,27.4505832 8.14329961,24.7838405 8.35833576,22.5139245 C8.87412386,17.0171632 13.1133227,14.2694803 17.7390888,14.3870032 C22.3686379,14.5097094 26.3530786,18.1841185 26.6640846,22.1784012 C26.934174,25.6505593 25.9037924,27.3265811 23.4437191,29.1527211 C26.3633327,31.6211003 28.228174,33.242298 28.1590836,37.5915416 C28.0903915,41.9408849 24.3947563,47.1164768 17.9540254,47.2744698 C11.513394,47.4323631 6.65337782,42.0584078 6.81346029,37.6424781 Z M24.7928719,37.658427 C25.0680385,33.6602568 21.5379612,30.9635104 17.553421,30.9243361 C13.67391,30.8824705 10.2039632,34.1980311 10.2039632,37.7877121 C10.2039632,41.6422432 14.7183286,43.7373203 17.6340595,43.7464908 C21.1782735,43.7624396 24.5534451,41.1005813 24.7928719,37.658427 Z M23.5179862,23.356122 C23.5936471,19.9923162 20.493443,17.5787611 17.2935856,17.6753511 C14.4483388,17.7630697 11.4391268,19.9349004 11.4340496,22.7491696 C11.4340496,26.2721646 14.8591972,28.0317183 17.783888,28.0996005 C20.4384894,28.1594086 23.4578558,25.9001584 23.5179862,23.356122 Z" id="path27-43-30-7" fill="#000000"></path>
                <path d="M194.765411,274.351138 C194.921511,278.766968 196.516462,280.423452 199.656189,282.733839 C197.151316,284.543033 196.095349,287.209776 196.310386,289.479692 C196.826174,294.976453 201.065373,297.724136 205.691139,297.606613 C210.320688,297.483907 214.305128,293.809498 214.616134,289.815215 C214.886224,286.343057 213.855842,284.667035 211.395769,282.840895 C214.315383,280.372516 216.180224,278.751318 216.111133,274.402075 C216.042441,270.052731 212.346806,264.877139 205.906075,264.719146 C199.465444,264.561253 194.605428,269.935208 194.76551,274.351138 L194.765411,274.351138 Z M212.744822,274.335189 C213.019989,278.333359 209.489912,281.030106 205.505371,281.06928 C201.62586,281.111146 198.155913,277.795585 198.155913,274.205904 C198.155913,270.351373 202.670279,268.256296 205.586109,268.247125 C209.130224,268.231176 212.505495,270.893035 212.744922,274.335189 L212.744822,274.335189 Z M211.469937,288.637494 C211.545597,292.0013 208.445393,294.414855 205.245536,294.318265 C202.400289,294.230546 199.391077,292.058716 199.386,289.244446 C199.386,285.721452 202.811148,283.961898 205.735838,283.894016 C208.39044,283.834208 211.409806,286.093458 211.469937,288.637494 Z" id="path27-43-3-4-8" fill="#000000"></path>
            </g>
        </g>
    </g>
</svg>