<?xml version="1.0" encoding="UTF-8"?>
<svg width="224px" height="313px" viewBox="0 0 224 313" version="1.1" xmlns="http://www.w3.org/2000/svg" xmlns:xlink="http://www.w3.org/1999/xlink">
    <!-- Generator: Sketch 50.2 (55047) - http://www.bohemiancoding.com/sketch -->
    <title>g8484-9-4</title>
    <desc>Created with Sketch.</desc>
    <defs></defs>
    <g id="Page-1" stroke="none" stroke-width="1" fill="none" fill-rule="evenodd">
        <g id="Color_52_Faces_v.2.0" transform="translate(-1318.000000, -3120.000000)" fill-rule="nonzero">
            <g id="g8484-9-4" transform="translate(1318.519555, 3120.749208)">
                <rect id="rect6988-1-0" stroke="#000000" stroke-width="0.99673417" fill="#FFFFFF" x="0.135990455" y="0.589907033" width="222.232247" height="310.813662" rx="10.677567"></rect>
                <path d="M59.7166345,33.1801973 C50.5318033,46.2952321 40.7041534,53.8424636 40.5408852,64.0743901 C40.4861306,67.3876581 42.2752115,73.0191072 47.8790934,74.0970083 C51.5147972,74.7931046 56.5204605,71.8467492 56.624992,65.8609173 C56.6090634,64.6691915 57.8852432,64.7001621 57.8732968,66.333122 C57.7020643,71.0546909 56.209355,76.5518908 53.7005999,81.0266616 C57.7113228,81.0266616 61.7219461,81.0266616 65.732669,81.0266616 C63.2239139,76.5518908 61.7312046,71.0546909 61.5599721,66.333122 C61.5480257,64.7001621 62.8242055,64.6691915 62.8082769,65.8609173 C62.9128084,71.8467492 67.9184717,74.7931046 71.5541755,74.0970083 C77.1580574,73.0191072 78.9471383,67.3876581 78.8923837,64.0743901 C78.7291156,53.8424636 68.9014656,46.2952321 59.7166345,33.1801973 Z" id="path7018-7-4" fill="#000000"></path>
                <path d="M17.2763628,50.4033295 C12.9849979,55.867934 8.39337869,59.012603 8.3171205,63.2759124 C8.29123651,64.6564324 9.12738866,67.0028729 11.7456529,67.4520016 C13.444339,67.7420409 15.7830562,66.5143904 15.8319371,64.0202937 C15.8219817,63.5237371 16.4206981,63.5366457 16.4151231,64.2170424 C16.3354801,66.1843694 15.6377077,68.4748693 14.4655616,70.3393563 C16.3394623,70.3393563 18.2132634,70.3393563 20.0871641,70.3393563 C18.915018,68.4748693 18.2175442,66.1843694 18.1376025,64.2170424 C18.1276472,63.5366457 18.7282551,63.5237371 18.7207885,64.0202937 C18.7695699,66.5143904 21.1083867,67.7420409 22.8070727,67.4520016 C25.425337,67.0028729 26.2611905,64.6564324 26.2356052,63.2759124 C26.1589488,59.012603 21.5676283,55.867934 17.2763628,50.4033295 Z" id="path7020-0-8" fill="#000000"></path>
                <path d="M205.228413,261.590287 C200.937048,256.125682 196.345429,252.981013 196.26917,248.717704 C196.243286,247.337184 197.079439,244.990743 199.697703,244.541614 C201.396389,244.251575 203.735106,245.479226 203.783987,247.973322 C203.774032,248.469879 204.372748,248.45697 204.367173,247.776574 C204.28753,245.809247 203.589758,243.518747 202.417611,241.65426 C204.291512,241.65426 206.165313,241.65426 208.039214,241.65426 C206.867068,243.518747 206.169594,245.809247 206.089652,247.776574 C206.079697,248.45697 206.680305,248.469879 206.672838,247.973322 C206.72162,245.479226 209.060437,244.251575 210.759123,244.541614 C213.377387,244.990743 214.21324,247.337184 214.187655,248.717704 C214.110999,252.981013 209.519678,256.125682 205.228413,261.590287 Z" id="path7024-7-1" fill="#000000"></path>
                <path d="M162.787444,33.1801973 C153.602613,46.2952321 143.774963,53.8424636 143.611695,64.0743901 C143.55694,67.3876581 145.346021,73.0191072 150.949903,74.0970083 C154.585607,74.7931046 159.59127,71.8467492 159.695802,65.8609173 C159.679873,64.6691915 160.956053,64.7001621 160.944107,66.333122 C160.772874,71.0546909 159.280165,76.5518908 156.77141,81.0266616 C160.782133,81.0266616 164.792756,81.0266616 168.803479,81.0266616 C166.294724,76.5518908 164.802014,71.0546909 164.630782,66.333122 C164.618835,64.7001621 165.895015,64.6691915 165.879087,65.8609173 C165.983618,71.8467492 170.989281,74.7931046 174.624985,74.0970083 C180.228867,73.0191072 182.017948,67.3876581 181.963193,64.0743901 C181.799925,53.8424636 171.972275,46.2952321 162.787444,33.1801973 Z" id="path7026-2-6" fill="#000000"></path>
                <path d="M59.7166345,132.073506 C50.5318033,145.188541 40.7041534,152.735772 40.5408852,162.967699 C40.4861306,166.280967 42.2752115,171.912416 47.8790934,172.990317 C51.5147972,173.686413 56.5204605,170.740058 56.624992,164.754226 C56.6090634,163.5625 57.8852432,163.593471 57.8732968,165.226431 C57.7020643,169.948 56.209355,175.4452 53.7005999,179.91997 C57.7113228,179.91997 61.7219461,179.91997 65.732669,179.91997 C63.2239139,175.4452 61.7312046,169.948 61.5599721,165.226431 C61.5480257,163.593471 62.8242055,163.5625 62.8082769,164.754226 C62.9128084,170.740058 67.9184717,173.686413 71.5541755,172.990317 C77.1580574,171.912416 78.9471383,166.280967 78.8923837,162.967699 C78.7291156,152.735772 68.9014656,145.188541 59.7166345,132.073506 Z" id="path7036-9-6" fill="#000000"></path>
                <path d="M59.7166345,278.813289 C50.5318033,265.698254 40.7041534,258.151023 40.5408852,247.919096 C40.4861306,244.605828 42.2752115,238.974379 47.8790934,237.896478 C51.5147972,237.200382 56.5204605,240.146737 56.624992,246.132569 C56.6090634,247.324295 57.8852432,247.293324 57.8732968,245.660364 C57.7020643,240.938796 56.209355,235.441596 53.7005999,230.966825 C57.7113228,230.966825 61.7219461,230.966825 65.732669,230.966825 C63.2239139,235.441596 61.7312046,240.938796 61.5599721,245.660364 C61.5480257,247.293324 62.8242055,247.324295 62.8082769,246.132569 C62.9128084,240.146737 67.9184717,237.200382 71.5541755,237.896478 C77.1580574,238.974379 78.9471383,244.605828 78.8923837,247.919096 C78.7291156,258.151023 68.9014656,265.698254 59.7166345,278.813289 Z" id="path7038-9-6" fill="#000000"></path>
                <path d="M162.787444,278.813289 C153.602613,265.698254 143.774963,258.151023 143.611695,247.919096 C143.55694,244.605828 145.346021,238.974379 150.949903,237.896478 C154.585607,237.200382 159.59127,240.146737 159.695802,246.132569 C159.679873,247.324295 160.956053,247.293324 160.944107,245.660364 C160.772874,240.938796 159.280165,235.441596 156.77141,230.966825 C160.782133,230.966825 164.792756,230.966825 168.803479,230.966825 C166.294724,235.441596 164.802014,240.938796 164.630782,245.660364 C164.618835,247.293324 165.895015,247.324295 165.879087,246.132569 C165.983618,240.146737 170.989281,237.200382 174.624985,237.896478 C180.228867,238.974379 182.017948,244.605828 181.963193,247.919096 C181.799925,258.151023 171.972275,265.698254 162.787444,278.813289 Z" id="path7040-0-9" fill="#000000"></path>
                <path d="M162.787444,132.073506 C153.602613,145.188541 143.774963,152.735772 143.611695,162.967699 C143.55694,166.280967 145.346021,171.912416 150.949903,172.990317 C154.585607,173.686413 159.59127,170.740058 159.695802,164.754226 C159.679873,163.5625 160.956053,163.593471 160.944107,165.226431 C160.772874,169.948 159.280165,175.4452 156.77141,179.91997 C160.782133,179.91997 164.792756,179.91997 168.803479,179.91997 C166.294724,175.4452 164.802014,169.948 164.630782,165.226431 C164.618835,163.593471 165.895015,163.5625 165.879087,164.754226 C165.983618,170.740058 170.989281,173.686413 174.624985,172.990317 C180.228867,171.912416 182.017948,166.280967 181.963193,162.967699 C181.799925,152.735772 171.972275,145.188541 162.787444,132.073506 Z" id="path7050-2-9" fill="#000000"></path>
                <path d="M7.62721284,37.1574944 C7.22272586,34.3889784 7.2329799,27.2319448 7.56349843,25.1147387 C8.58362595,18.6286521 11.0577363,15.660377 15.20216,14.6917852 C19.2276168,13.7481133 24.8824703,14.7988416 26.1227112,20.219846 L22.7576941,20.2856349 C20.937652,16.6202967 16.3323939,17.5992553 13.737923,19.1943368 C11.6682996,20.4644611 10.7325937,25.7679426 11.1331981,26.0941957 C11.1331981,26.0941957 15.0473538,23.1912112 18.1333217,23.4053241 C24.7275646,24.0932167 27.4474733,29.8195414 27.2170063,35.2261918 C27.0071469,41.7305199 24.947678,46.9321284 17.957908,47.2781181 C11.3123949,47.0209434 8.26744316,43.3934836 7.6275115,37.1579928 L7.62721284,37.1574944 Z M24.0168502,35.4397067 C24.0526896,30.9272867 22.0073573,27.5452394 18.1330231,27.174529 C14.2624719,26.8012269 10.357276,30.5839883 10.6273654,35.1838278 C10.8974548,39.8034039 12.6829517,43.6892346 17.3778081,43.6684014 C22.4271755,43.6484654 23.9925591,38.6520983 24.0168502,35.4397067 Z" id="path23-1-9-8" fill="#000000"></path>
                <path d="M214.874676,274.836122 C215.279163,277.604638 215.268909,284.761671 214.93839,286.878877 C213.918263,293.364964 211.444152,296.333239 207.299729,297.301831 C203.274272,298.245503 197.619418,297.194774 196.379177,291.77377 L199.744194,291.707981 C201.564236,295.373319 206.169495,294.394361 208.763965,292.799279 C210.833589,291.529155 211.769295,286.225673 211.36869,285.89942 C211.36869,285.89942 207.454535,288.802405 204.368567,288.588292 C197.774324,287.900399 195.054415,282.174075 195.284882,276.767424 C195.494742,270.263096 197.55421,265.061488 204.54398,264.715498 C211.189494,264.972673 214.234445,268.600133 214.874377,274.835623 L214.874676,274.836122 Z M198.485038,276.553909 C198.449199,281.066329 200.494531,284.448377 204.368865,284.819087 C208.239417,285.192389 212.144612,281.409628 211.874523,276.809788 C211.604334,272.190212 209.818837,268.304382 205.12408,268.325215 C200.074713,268.345151 198.509329,273.341518 198.485038,276.553909 Z" id="path23-1-5-6-4" fill="#000000"></path>
            </g>
        </g>
    </g>
</svg>