<?xml version="1.0" encoding="UTF-8"?>
<svg width="224px" height="313px" viewBox="0 0 224 313" version="1.1" xmlns="http://www.w3.org/2000/svg" xmlns:xlink="http://www.w3.org/1999/xlink">
    <!-- Generator: Sketch 50.2 (55047) - http://www.bohemiancoding.com/sketch -->
    <title>g8436-8-0</title>
    <desc>Created with Sketch.</desc>
    <defs></defs>
    <g id="Page-1" stroke="none" stroke-width="1" fill="none" fill-rule="evenodd">
        <g id="Color_52_Faces_v.2.0" transform="translate(-791.000000, -3120.000000)" fill-rule="nonzero">
            <g id="g8436-8-0" transform="translate(791.277796, 3120.749208)">
                <g id="g8473-4-9">
                    <rect id="rect6852-0-4" stroke="#000000" stroke-width="0.99673417" fill="#FFFFFF" x="0.921071517" y="0.589907033" width="222.232247" height="310.813662" rx="10.677567"></rect>
                    <path d="M60.5018151,33.1801973 C51.3169839,46.2952321 41.489334,53.8424636 41.3260658,64.0743901 C41.2713112,67.3876581 43.0603921,73.0191072 48.664274,74.0970083 C52.2999778,74.7931046 57.3056412,71.8467492 57.4101726,65.8609173 C57.394244,64.6691915 58.6704238,64.7001621 58.6584774,66.333122 C58.4872449,71.0546909 56.9945356,76.5518908 54.4857805,81.0266616 C58.4965034,81.0266616 62.5071267,81.0266616 66.5178496,81.0266616 C64.0090945,76.5518908 62.5163852,71.0546909 62.3451528,66.333122 C62.3332063,64.7001621 63.6093861,64.6691915 63.5934575,65.8609173 C63.697989,71.8467492 68.7036523,74.7931046 72.3393561,74.0970083 C77.9432381,73.0191072 79.7323189,67.3876581 79.6775644,64.0743901 C79.5142962,53.8424636 69.6866463,46.2952321 60.5018151,33.1801973 Z" id="path6882-1-0" fill="#000000"></path>
                    <path d="M18.0615434,50.4033295 C13.7701785,55.867934 9.1785593,59.012603 9.10230111,63.2759124 C9.07641713,64.6564324 9.91256928,67.0028729 12.5308335,67.4520016 C14.2295196,67.7420409 16.5682368,66.5143904 16.6171177,64.0202937 C16.6071624,63.5237371 17.2058788,63.5366457 17.2003037,64.2170424 C17.1206607,66.1843694 16.4228883,68.4748693 15.2507422,70.3393563 C17.1246429,70.3393563 18.998444,70.3393563 20.8723447,70.3393563 C19.7001986,68.4748693 19.0027248,66.1843694 18.9227831,64.2170424 C18.9128278,63.5366457 19.5134357,63.5237371 19.5059692,64.0202937 C19.5547505,66.5143904 21.8935673,67.7420409 23.5922534,67.4520016 C26.2105176,67.0028729 27.0463711,64.6564324 27.0207858,63.2759124 C26.9441294,59.012603 22.3528089,55.867934 18.0615434,50.4033295 Z" id="path6884-6-5" fill="#000000"></path>
                    <path d="M206.013593,261.590287 C201.722228,256.125682 197.130609,252.981013 197.054351,248.717704 C197.028467,247.337184 197.864619,244.990743 200.482883,244.541614 C202.181569,244.251575 204.520287,245.479226 204.569168,247.973322 C204.559212,248.469879 205.157929,248.45697 205.152354,247.776574 C205.072711,245.809247 204.374938,243.518747 203.202792,241.65426 C205.076693,241.65426 206.950494,241.65426 208.824395,241.65426 C207.652248,243.518747 206.954775,245.809247 206.874833,247.776574 C206.864878,248.45697 207.465486,248.469879 207.458019,247.973322 C207.5068,245.479226 209.845617,244.251575 211.544303,244.541614 C214.162567,244.990743 214.998421,247.337184 214.972836,248.717704 C214.896179,252.981013 210.304859,256.125682 206.013593,261.590287 Z" id="path6888-1-5" fill="#000000"></path>
                    <path d="M163.572625,33.1801973 C154.387794,46.2952321 144.560144,53.8424636 144.396876,64.0743901 C144.342121,67.3876581 146.131202,73.0191072 151.735084,74.0970083 C155.370788,74.7931046 160.376451,71.8467492 160.480982,65.8609173 C160.465054,64.6691915 161.741234,64.7001621 161.729287,66.333122 C161.558055,71.0546909 160.065345,76.5518908 157.55659,81.0266616 C161.567313,81.0266616 165.577936,81.0266616 169.588659,81.0266616 C167.079904,76.5518908 165.587195,71.0546909 165.415962,66.333122 C165.404016,64.7001621 166.680196,64.6691915 166.664267,65.8609173 C166.768799,71.8467492 171.774462,74.7931046 175.410166,74.0970083 C181.014048,73.0191072 182.803129,67.3876581 182.748374,64.0743901 C182.585106,53.8424636 172.757456,46.2952321 163.572625,33.1801973 Z" id="path6890-4-9" fill="#000000"></path>
                    <path d="M60.5018151,278.813289 C51.3169839,265.698254 41.489334,258.151023 41.3260658,247.919096 C41.2713112,244.605828 43.0603921,238.974379 48.664274,237.896478 C52.2999778,237.200382 57.3056412,240.146737 57.4101726,246.132569 C57.394244,247.324295 58.6704238,247.293324 58.6584774,245.660364 C58.4872449,240.938796 56.9945356,235.441596 54.4857805,230.966825 C58.4965034,230.966825 62.5071267,230.966825 66.5178496,230.966825 C64.0090945,235.441596 62.5163852,240.938796 62.3451528,245.660364 C62.3332063,247.293324 63.6093861,247.324295 63.5934575,246.132569 C63.697989,240.146737 68.7036523,237.200382 72.3393561,237.896478 C77.9432381,238.974379 79.7323189,244.605828 79.6775644,247.919096 C79.5142962,258.151023 69.6866463,265.698254 60.5018151,278.813289 Z" id="path6902-7-5" fill="#000000"></path>
                    <path d="M163.572625,278.813289 C154.387794,265.698254 144.560144,258.151023 144.396876,247.919096 C144.342121,244.605828 146.131202,238.974379 151.735084,237.896478 C155.370788,237.200382 160.376451,240.146737 160.480982,246.132569 C160.465054,247.324295 161.741234,247.293324 161.729287,245.660364 C161.558055,240.938796 160.065345,235.441596 157.55659,230.966825 C161.567313,230.966825 165.577936,230.966825 169.588659,230.966825 C167.079904,235.441596 165.587195,240.938796 165.415962,245.660364 C165.404016,247.293324 166.680196,247.324295 166.664267,246.132569 C166.768799,240.146737 171.774462,237.200382 175.410166,237.896478 C181.014048,238.974379 182.803129,244.605828 182.748374,247.919096 C182.585106,258.151023 172.757456,265.698254 163.572625,278.813289 Z" id="path6904-9-7" fill="#000000"></path>
                    <path d="M18.2905171,47.2737621 L18.2905171,44.3684849 L20.9092792,44.3684849 L20.9092792,39.575864 L7.81029223,39.575864 L7.81029223,36.1941158 L21.9844599,14.3833051 L24.2998816,14.3952667 L24.2998816,36.1943152 L28.3099076,36.1943152 L28.3099076,39.5760634 L24.2998816,39.5760634 L24.2242207,44.3686843 L26.4192819,44.3686843 L26.4192819,47.2779486 L18.2904176,47.2779486 L18.2905171,47.2737621 Z M20.9092792,22.3683816 L11.9100162,36.1954117 L20.9092792,36.1954117 L20.9092792,22.3683816 Z" id="path19-08-0-9" fill="#000000"></path>
                    <path d="M205.783126,264.719854 L205.783126,267.625131 L203.164364,267.625131 L203.164364,272.417752 L216.263351,272.417752 L216.263351,275.7995 L202.089184,297.610311 L199.773762,297.598349 L199.773762,275.799301 L195.763736,275.799301 L195.763736,272.417553 L199.773762,272.417553 L199.849423,267.624932 L197.654362,267.624932 L197.654362,264.715667 L205.783226,264.715667 L205.783126,264.719854 Z M203.164364,289.625235 L212.163627,275.798204 L203.164364,275.798204 L203.164364,289.625235 Z" id="path19-08-1-1-4" fill="#000000"></path>
                </g>
            </g>
        </g>
    </g>
</svg>