<?xml version="1.0" encoding="UTF-8"?>
<svg width="225px" height="313px" viewBox="0 0 225 313" version="1.1" xmlns="http://www.w3.org/2000/svg" xmlns:xlink="http://www.w3.org/1999/xlink">
    <!-- Generator: Sketch 50.2 (55047) - http://www.bohemiancoding.com/sketch -->
    <title>g8447-5-9</title>
    <desc>Created with Sketch.</desc>
    <defs></defs>
    <g id="Page-1" stroke="none" stroke-width="1" fill="none" fill-rule="evenodd">
        <g id="Color_52_Faces_v.2.0" transform="translate(-1054.000000, -3120.000000)" fill-rule="nonzero">
            <g id="g8447-5-9" transform="translate(1054.400922, 3119.752365)">
                <g id="g8459-0-4" transform="translate(111.789032, 156.990898) rotate(-180.000000) translate(-111.789032, -156.990898) translate(0.288805, 0.991488)">
                    <rect id="rect6920-5-5" stroke="#000000" stroke-width="0.99673417" fill="#FFFFFF" x="0.0307621162" y="0.589907033" width="222.232247" height="310.813662" rx="10.677567"></rect>
                    <path d="M59.6114061,33.1801973 C50.4265749,46.2952321 40.598925,53.8424636 40.4356568,64.0743901 C40.3809023,67.3876581 42.1699831,73.0191072 47.7738651,74.0970083 C51.4095689,74.7931046 56.4152322,71.8467492 56.5197637,65.8609173 C56.5038351,64.6691915 57.7800149,64.7001621 57.7680684,66.333122 C57.5968359,71.0546909 56.1041267,76.5518908 53.5953716,81.0266616 C57.6060944,81.0266616 61.6167178,81.0266616 65.6274407,81.0266616 C63.1186856,76.5518908 61.6259763,71.0546909 61.4547438,66.333122 C61.4427973,64.7001621 62.7189772,64.6691915 62.7030486,65.8609173 C62.80758,71.8467492 67.8132433,74.7931046 71.4489472,74.0970083 C77.0528291,73.0191072 78.84191,67.3876581 78.7871554,64.0743901 C78.6238872,53.8424636 68.7962373,46.2952321 59.6114061,33.1801973 Z" id="path6950-9-9" fill="#000000"></path>
                    <path d="M17.1711345,50.4033295 C12.8797695,55.867934 8.28815035,59.012603 8.21189216,63.2759124 C8.18600817,64.6564324 9.02216032,67.0028729 11.6404246,67.4520016 C13.3391106,67.7420409 15.6778279,66.5143904 15.7267088,64.0202937 C15.7167534,63.5237371 16.3154698,63.5366457 16.3098948,64.2170424 C16.2302518,66.1843694 15.5324794,68.4748693 14.3603332,70.3393563 C16.2342339,70.3393563 18.1080351,70.3393563 19.9819357,70.3393563 C18.8097896,68.4748693 18.1123159,66.1843694 18.0323742,64.2170424 C18.0224188,63.5366457 18.6230267,63.5237371 18.6155602,64.0202937 C18.6643415,66.5143904 21.0031584,67.7420409 22.7018444,67.4520016 C25.3201087,67.0028729 26.1559622,64.6564324 26.1303768,63.2759124 C26.0537204,59.012603 21.4623999,55.867934 17.1711345,50.4033295 Z" id="path6952-6-0" fill="#000000"></path>
                    <path d="M205.123184,261.590287 C200.831819,256.125682 196.2402,252.981013 196.163942,248.717704 C196.138058,247.337184 196.97421,244.990743 199.592474,244.541614 C201.29116,244.251575 203.629878,245.479226 203.678759,247.973322 C203.668803,248.469879 204.26752,248.45697 204.261945,247.776574 C204.182302,245.809247 203.484529,243.518747 202.312383,241.65426 C204.186284,241.65426 206.060085,241.65426 207.933986,241.65426 C206.761839,243.518747 206.064366,245.809247 205.984424,247.776574 C205.974469,248.45697 206.575077,248.469879 206.56761,247.973322 C206.616391,245.479226 208.955208,244.251575 210.653894,244.541614 C213.272159,244.990743 214.108012,247.337184 214.082427,248.717704 C214.00577,252.981013 209.41445,256.125682 205.123184,261.590287 Z" id="path6956-5-0" fill="#000000"></path>
                    <path d="M162.682216,33.1801973 C153.497385,46.2952321 143.669735,53.8424636 143.506467,64.0743901 C143.451712,67.3876581 145.240793,73.0191072 150.844675,74.0970083 C154.480379,74.7931046 159.486042,71.8467492 159.590573,65.8609173 C159.574645,64.6691915 160.850825,64.7001621 160.838878,66.333122 C160.667646,71.0546909 159.174936,76.5518908 156.666181,81.0266616 C160.676904,81.0266616 164.687528,81.0266616 168.69825,81.0266616 C166.189495,76.5518908 164.696786,71.0546909 164.525554,66.333122 C164.513607,64.7001621 165.789787,64.6691915 165.773858,65.8609173 C165.87839,71.8467492 170.884053,74.7931046 174.519757,74.0970083 C180.123639,73.0191072 181.91272,67.3876581 181.857965,64.0743901 C181.694697,53.8424636 171.867047,46.2952321 162.682216,33.1801973 Z" id="path6958-4-1" fill="#000000"></path>
                    <path d="M59.6114061,278.813289 C50.4265749,265.698254 40.598925,258.151023 40.4356568,247.919096 C40.3809023,244.605828 42.1699831,238.974379 47.7738651,237.896478 C51.4095689,237.200382 56.4152322,240.146737 56.5197637,246.132569 C56.5038351,247.324295 57.7800149,247.293324 57.7680684,245.660364 C57.5968359,240.938796 56.1041267,235.441596 53.5953716,230.966825 C57.6060944,230.966825 61.6167178,230.966825 65.6274407,230.966825 C63.1186856,235.441596 61.6259763,240.938796 61.4547438,245.660364 C61.4427973,247.293324 62.7189772,247.324295 62.7030486,246.132569 C62.80758,240.146737 67.8132433,237.200382 71.4489472,237.896478 C77.0528291,238.974379 78.84191,244.605828 78.7871554,247.919096 C78.6238872,258.151023 68.7962373,265.698254 59.6114061,278.813289 Z" id="path6970-5-5" fill="#000000"></path>
                    <path d="M162.682216,278.813289 C153.497385,265.698254 143.669735,258.151023 143.506467,247.919096 C143.451712,244.605828 145.240793,238.974379 150.844675,237.896478 C154.480379,237.200382 159.486042,240.146737 159.590573,246.132569 C159.574645,247.324295 160.850825,247.293324 160.838878,245.660364 C160.667646,240.938796 159.174936,235.441596 156.666181,230.966825 C160.676904,230.966825 164.687528,230.966825 168.69825,230.966825 C166.189495,235.441596 164.696786,240.938796 164.525554,245.660364 C164.513607,247.293324 165.789787,247.324295 165.773858,246.132569 C165.87839,240.146737 170.884053,237.200382 174.519757,237.896478 C180.123639,238.974379 181.91272,244.605828 181.857965,247.919096 C181.694697,258.151023 171.867047,265.698254 162.682216,278.813289 Z" id="path6972-5-8" fill="#000000"></path>
                    <path d="M111.146811,132.073506 C101.96198,145.188541 92.1343299,152.735772 91.9710617,162.967699 C91.9163071,166.280967 93.705388,171.912416 99.3092699,172.990317 C102.944974,173.686413 107.950637,170.740058 108.055169,164.754226 C108.03924,163.5625 109.31542,163.593471 109.303473,165.226431 C109.132241,169.948 107.639532,175.4452 105.130776,179.91997 C109.141499,179.91997 113.152123,179.91997 117.162846,179.91997 C114.65409,175.4452 113.161381,169.948 112.990149,165.226431 C112.978202,163.593471 114.254382,163.5625 114.238453,164.754226 C114.342985,170.740058 119.348648,173.686413 122.984352,172.990317 C128.588234,171.912416 130.377315,166.280967 130.32256,162.967699 C130.159292,152.735772 120.331642,145.188541 111.146811,132.073506 Z" id="path6980-6-3" fill="#000000"></path>
                    <path d="M6.81465494,38.761896 L10.0350204,38.7309952 C10.6493668,40.7164241 12.008674,42.7345481 13.854401,43.2945511 C19.0688285,44.5437425 22.4235916,41.5714803 23.5282403,38.144876 C24.8683336,33.9886131 23.4983742,28.1523413 19.9084651,26.080689 C16.9338978,24.3629013 12.5142081,25.8118517 10.4843066,29.4863605 L8.22901541,28.0791761 L9.4397884,14.3834247 L24.1732492,14.3834247 L24.1732492,17.6207364 L12.2339642,17.6207364 L12.0445133,23.3264273 C14.6146931,21.4858336 18.5645887,21.5054706 21.1333747,22.796428 C25.9984681,25.1630337 28.2588365,30.5437674 27.3142703,36.8852181 C26.0036449,43.192678 23.1134993,46.7668089 16.5947181,47.2771711 C9.34381857,47.3439568 6.78389282,42.2593729 6.81465494,38.7622947 L6.81465494,38.761896 Z" id="path21-4-5-5" fill="#000000"></path>
                    <path d="M215.476777,273.23172 L212.256411,273.262621 C211.642065,271.277192 210.282758,269.259068 208.437031,268.699065 C203.222603,267.449874 199.86784,270.422136 198.763191,273.84874 C197.423098,278.005003 198.793058,283.841275 202.382967,285.912927 C205.357534,287.630715 209.777224,286.181764 211.807125,282.507256 L214.062416,283.91444 L212.851643,297.610191 L198.118183,297.610191 L198.118183,294.37288 L210.057468,294.37288 L210.246918,288.667189 C207.676739,290.507783 203.726843,290.488146 201.158057,289.197188 C196.292964,286.830582 194.032595,281.449849 194.977161,275.108398 C196.287787,268.800938 199.177933,265.226807 205.696714,264.716445 C212.947613,264.649659 215.507539,269.734243 215.476777,273.231321 L215.476777,273.23172 Z" id="path21-4-9-2-8" fill="#000000"></path>
                </g>
            </g>
        </g>
    </g>
</svg>