<?xml version="1.0" encoding="UTF-8"?>
<svg width="224px" height="313px" viewBox="0 0 224 313" version="1.1" xmlns="http://www.w3.org/2000/svg" xmlns:xlink="http://www.w3.org/1999/xlink">
    <!-- Generator: Sketch 50.2 (55047) - http://www.bohemiancoding.com/sketch -->
    <title>g8542-3-6</title>
    <desc>Created with Sketch.</desc>
    <defs></defs>
    <g id="Page-1" stroke="none" stroke-width="1" fill="none" fill-rule="evenodd">
        <g id="Color_52_Faces_v.2.0" transform="translate(-2371.000000, -3120.000000)" fill-rule="nonzero">
            <g id="g8542-3-6" transform="translate(2371.012377, 3120.749178)">
                <g id="g8587-4-9" transform="translate(-0.000041, 0.000030)">
                    <rect id="rect7263-6-4" stroke="#000000" stroke-width="0.99673417" fill="#FFFFFF" x="0.55660515" y="0.589907033" width="222.232247" height="310.813662" rx="10.677567"></rect>
                    <path d="M60.1372492,33.1801973 C50.952418,46.2952321 41.1247681,53.8424636 40.9614999,64.0743901 C40.9067453,67.3876581 42.6958262,73.0191072 48.2997081,74.0970083 C51.9354119,74.7931046 56.9410752,71.8467492 57.0456067,65.8609173 C57.0296781,64.6691915 58.3058579,64.7001621 58.2939115,66.333122 C58.122679,71.0546909 56.6299697,76.5518908 54.1212146,81.0266616 C58.1319375,81.0266616 62.1425608,81.0266616 66.1532837,81.0266616 C63.6445286,76.5518908 62.1518193,71.0546909 61.9805868,66.333122 C61.9686404,64.7001621 63.2448202,64.6691915 63.2288916,65.8609173 C63.3334231,71.8467492 68.3390864,74.7931046 71.9747902,74.0970083 C77.5786721,73.0191072 79.367753,67.3876581 79.3129984,64.0743901 C79.1497302,53.8424636 69.3220803,46.2952321 60.1372492,33.1801973 Z" id="path7293-3-2" fill="#000000"></path>
                    <path d="M17.6969775,50.4033295 C13.4056125,55.867934 8.81399338,59.012603 8.73773519,63.2759124 C8.71185121,64.6564324 9.54800336,67.0028729 12.1662676,67.4520016 C13.8649537,67.7420409 16.2036709,66.5143904 16.2525518,64.0202937 C16.2425964,63.5237371 16.8413128,63.5366457 16.8357378,64.2170424 C16.7560948,66.1843694 16.0583224,68.4748693 14.8861763,70.3393563 C16.760077,70.3393563 18.6338781,70.3393563 20.5077788,70.3393563 C19.3356326,68.4748693 18.6381589,66.1843694 18.5582172,64.2170424 C18.5482618,63.5366457 19.1488698,63.5237371 19.1414032,64.0202937 C19.1901846,66.5143904 21.5290014,67.7420409 23.2276874,67.4520016 C25.8459517,67.0028729 26.6818052,64.6564324 26.6562199,63.2759124 C26.5795635,59.012603 21.988243,55.867934 17.6969775,50.4033295 Z" id="path7295-4-8" fill="#000000"></path>
                    <path d="M60.1372492,212.88441 C50.952418,199.769375 41.1247681,192.222144 40.9614999,181.990217 C40.9067453,178.676949 42.6958262,173.0455 48.2997081,171.967599 C51.9354119,171.271503 56.9410752,174.217858 57.0456067,180.20369 C57.0296781,181.395416 58.3058579,181.364445 58.2939115,179.731485 C58.122679,175.009916 56.6299697,169.512717 54.1212146,165.037946 C58.1319375,165.037946 62.1425608,165.037946 66.1532837,165.037946 C63.6445286,169.512717 62.1518193,175.009916 61.9805868,179.731485 C61.9686404,181.364445 63.2448202,181.395416 63.2288916,180.20369 C63.3334231,174.217858 68.3390864,171.271503 71.9747902,171.967599 C77.5786721,173.0455 79.367753,178.676949 79.3129984,181.990217 C79.1497302,192.222144 69.3220803,199.769375 60.1372492,212.88441 Z" id="path7297-5-1" fill="#000000"></path>
                    <path d="M205.649027,261.590287 C201.357662,256.125682 196.766043,252.981013 196.689785,248.717704 C196.663901,247.337184 197.500053,244.990743 200.118317,244.541614 C201.817004,244.251575 204.155721,245.479226 204.204602,247.973322 C204.194646,248.469879 204.793363,248.45697 204.787788,247.776574 C204.708145,245.809247 204.010372,243.518747 202.838226,241.65426 C204.712127,241.65426 206.585928,241.65426 208.459829,241.65426 C207.287683,243.518747 206.590209,245.809247 206.510267,247.776574 C206.500312,248.45697 207.10092,248.469879 207.093453,247.973322 C207.142234,245.479226 209.481051,244.251575 211.179737,244.541614 C213.798002,244.990743 214.633855,247.337184 214.60827,248.717704 C214.531613,252.981013 209.940293,256.125682 205.649027,261.590287 Z" id="path7299-3-5" fill="#000000"></path>
                    <path d="M163.208059,33.1801973 C154.023228,46.2952321 144.195578,53.8424636 144.03231,64.0743901 C143.977555,67.3876581 145.766636,73.0191072 151.370518,74.0970083 C155.006222,74.7931046 160.011885,71.8467492 160.116416,65.8609173 C160.100488,64.6691915 161.376668,64.7001621 161.364721,66.333122 C161.193489,71.0546909 159.700779,76.5518908 157.192024,81.0266616 C161.202747,81.0266616 165.213371,81.0266616 169.224093,81.0266616 C166.715338,76.5518908 165.222629,71.0546909 165.051397,66.333122 C165.03945,64.7001621 166.31563,64.6691915 166.299701,65.8609173 C166.404233,71.8467492 171.409896,74.7931046 175.0456,74.0970083 C180.649482,73.0191072 182.438563,67.3876581 182.383808,64.0743901 C182.22054,53.8424636 172.39289,46.2952321 163.208059,33.1801973 Z" id="path7301-4-0" fill="#000000"></path>
                    <path d="M60.1372492,99.1090665 C50.952418,112.224101 41.1247681,119.771333 40.9614999,130.003259 C40.9067453,133.316527 42.6958262,138.947976 48.2997081,140.025878 C51.9354119,140.721974 56.9410752,137.775618 57.0456067,131.789787 C57.0296781,130.598061 58.3058579,130.629031 58.2939115,132.261991 C58.122679,136.98356 56.6299697,142.48076 54.1212146,146.955531 C58.1319375,146.955531 62.1425608,146.955531 66.1532837,146.955531 C63.6445286,142.48076 62.1518193,136.98356 61.9805868,132.261991 C61.9686404,130.629031 63.2448202,130.598061 63.2288916,131.789787 C63.3334231,137.775618 68.3390864,140.721974 71.9747902,140.025878 C77.5786721,138.947976 79.367753,133.316527 79.3129984,130.003259 C79.1497302,119.771333 69.3220803,112.224101 60.1372492,99.1090665 Z" id="path7303-7-8" fill="#000000"></path>
                    <path d="M111.672654,75.684235 C102.487823,88.7992699 92.6601729,96.3465014 92.4969047,106.578428 C92.4421502,109.891696 94.231231,115.523145 99.835113,116.601046 C103.470817,117.297142 108.47648,114.350787 108.581012,108.364955 C108.565083,107.173229 109.841263,107.2042 109.829316,108.83716 C109.658084,113.558729 108.165375,119.055929 105.656619,123.530699 C109.667342,123.530699 113.677966,123.530699 117.688689,123.530699 C115.179933,119.055929 113.687224,113.558729 113.515992,108.83716 C113.504045,107.2042 114.780225,107.173229 114.764296,108.364955 C114.868828,114.350787 119.874491,117.297142 123.510195,116.601046 C129.114077,115.523145 130.903158,109.891696 130.848403,106.578428 C130.685135,96.3465014 120.857485,88.7992699 111.672654,75.684235 Z" id="path7305-6-7" fill="#000000"></path>
                    <path d="M163.208059,99.1090665 C154.023228,112.224101 144.195578,119.771333 144.03231,130.003259 C143.977555,133.316527 145.766636,138.947976 151.370518,140.025878 C155.006222,140.721974 160.011885,137.775618 160.116416,131.789787 C160.100488,130.598061 161.376668,130.629031 161.364721,132.261991 C161.193489,136.98356 159.700779,142.48076 157.192024,146.955531 C161.202747,146.955531 165.213371,146.955531 169.224093,146.955531 C166.715338,142.48076 165.222629,136.98356 165.051397,132.261991 C165.03945,130.629031 166.31563,130.598061 166.299701,131.789787 C166.404233,137.775618 171.409896,140.721974 175.0456,140.025878 C180.649482,138.947976 182.438563,133.316527 182.383808,130.003259 C182.22054,119.771333 172.39289,112.224101 163.208059,99.1090665 Z" id="path7309-8-5" fill="#000000"></path>
                    <path d="M60.1372492,278.813289 C50.952418,265.698254 41.1247681,258.151023 40.9614999,247.919096 C40.9067453,244.605828 42.6958262,238.974379 48.2997081,237.896478 C51.9354119,237.200382 56.9410752,240.146737 57.0456067,246.132569 C57.0296781,247.324295 58.3058579,247.293324 58.2939115,245.660364 C58.122679,240.938796 56.6299697,235.441596 54.1212146,230.966825 C58.1319375,230.966825 62.1425608,230.966825 66.1532837,230.966825 C63.6445286,235.441596 62.1518193,240.938796 61.9805868,245.660364 C61.9686404,247.293324 63.2448202,247.324295 63.2288916,246.132569 C63.3334231,240.146737 68.3390864,237.200382 71.9747902,237.896478 C77.5786721,238.974379 79.367753,244.605828 79.3129984,247.919096 C79.1497302,258.151023 69.3220803,265.698254 60.1372492,278.813289 Z" id="path7313-6-8" fill="#000000"></path>
                    <path d="M163.208059,278.813289 C154.023228,265.698254 144.195578,258.151023 144.03231,247.919096 C143.977555,244.605828 145.766636,238.974379 151.370518,237.896478 C155.006222,237.200382 160.011885,240.146737 160.116416,246.132569 C160.100488,247.324295 161.376668,247.293324 161.364721,245.660364 C161.193489,240.938796 159.700779,235.441596 157.192024,230.966825 C161.202747,230.966825 165.213371,230.966825 169.224093,230.966825 C166.715338,235.441596 165.222629,240.938796 165.051397,245.660364 C165.03945,247.293324 166.31563,247.324295 166.299701,246.132569 C166.404233,240.146737 171.409896,237.200382 175.0456,237.896478 C180.649482,238.974379 182.438563,244.605828 182.383808,247.919096 C182.22054,258.151023 172.39289,265.698254 163.208059,278.813289 Z" id="path7315-7-3" fill="#000000"></path>
                    <path d="M111.672654,236.309252 C102.487823,223.194217 92.6601729,215.646985 92.4969047,205.415059 C92.4421502,202.101791 94.231231,196.470342 99.835113,195.39244 C103.470817,194.696344 108.47648,197.6427 108.581012,203.628531 C108.565083,204.820257 109.841263,204.789287 109.829316,203.156327 C109.658084,198.434758 108.165375,192.937558 105.656619,188.462777 C109.667342,188.462777 113.677966,188.462777 117.688689,188.462777 C115.179933,192.937558 113.687224,198.434758 113.515992,203.156327 C113.504045,204.789287 114.780225,204.820257 114.764296,203.628531 C114.868828,197.6427 119.874491,194.696344 123.510195,195.39244 C129.114077,196.470342 130.903158,202.101791 130.848403,205.415059 C130.685135,215.646985 120.857485,223.194217 111.672654,236.309252 Z" id="path7317-0-2" fill="#000000"></path>
                    <path d="M163.208059,212.88441 C154.023228,199.769385 144.195578,192.222154 144.03231,181.990227 C143.977555,178.676959 145.766636,173.04551 151.370518,171.967609 C155.006222,171.271513 160.011885,174.217868 160.116416,180.2037 C160.100488,181.395426 161.376668,181.364455 161.364721,179.731495 C161.193489,175.009926 159.700779,169.512717 157.192024,165.037946 C161.202747,165.037946 165.213371,165.037946 169.224093,165.037946 C166.715338,169.512717 165.222629,175.009926 165.051397,179.731495 C165.03945,181.364455 166.31563,181.395426 166.299701,180.2037 C166.404233,174.217868 171.409896,171.271513 175.0456,171.967609 C180.649482,173.04551 182.438563,178.676959 182.383808,181.990227 C182.22054,192.222154 172.39289,199.769385 163.208059,212.88441 Z" id="path7319-5-6" fill="#000000"></path>
                    <polygon id="path31-5-4-7" fill="#000000" points="7.72149027 47.277839 7.72149027 14.3840427 10.9060164 14.3840427 10.9060164 47.277839"></polygon>
                    <path d="M20.3456057,14.3833948 C17.2800463,14.3833948 14.81619,17.1869883 14.81619,20.6692739 L14.81619,40.9926178 C14.81619,44.4749134 17.2813405,47.2771911 20.3456057,47.2771911 L22.1349852,47.2771911 C25.200445,47.2771911 27.6694782,44.4749134 27.6694782,40.9926178 L27.6694782,20.6692739 C27.6694782,17.1869883 25.1991508,14.3833948 22.1349852,14.3833948 L20.3456057,14.3833948 Z M21.270958,17.493704 C23.0808456,17.493704 24.5361227,18.8837535 24.5361227,20.6222847 L24.5361227,41.2145058 C24.5361227,42.9530469 23.0808456,44.3561345 21.270958,44.3561345 C19.46117,44.3561345 18.0007161,42.9530469 18.0007161,41.2145058 L18.0007161,20.6222847 C18.0007161,18.8850593 19.46117,17.493704 21.270958,17.493704 Z" id="path33-4-6-8" fill="#000000"></path>
                    <g id="g8583-6-9" transform="translate(205.716525, 281.097978) scale(-1, 1) translate(-205.716525, -281.097978) translate(195.263379, 264.152355)" fill="#000000">
                        <polygon id="path31-5-5-6-7" points="0.54814308 0.563412053 0.54814308 33.4572084 3.7326692 33.4572084 3.7326692 0.563412053"></polygon>
                        <path d="M13.1722585,33.4578563 C10.1066991,33.4578563 7.64284278,30.6542628 7.64284278,27.1719772 L7.64284278,6.84863325 C7.64284278,3.36633768 10.1079933,0.564059974 13.1722585,0.564059974 L14.961638,0.564059974 C18.0270978,0.564059974 20.496131,3.36633768 20.496131,6.84863325 L20.496131,27.1719772 C20.496131,30.6542628 18.0258036,33.4578563 14.961638,33.4578563 L13.1722585,33.4578563 Z M14.0976108,30.347547 C15.9074984,30.347547 17.3627755,28.9574976 17.3627755,27.2189664 L17.3627755,6.62674528 C17.3627755,4.88820412 15.9074984,3.48511653 14.0976108,3.48511653 C12.2878228,3.48511653 10.8273689,4.88820412 10.8273689,6.62674528 L10.8273689,27.2189664 C10.8273689,28.9561918 12.2878228,30.347547 14.0976108,30.347547 Z" id="path33-4-3-7-9"></path>
                    </g>
                </g>
            </g>
        </g>
    </g>
</svg>