<?xml version="1.0" encoding="UTF-8"?>
<svg width="224px" height="313px" viewBox="0 0 224 313" version="1.1" xmlns="http://www.w3.org/2000/svg" xmlns:xlink="http://www.w3.org/1999/xlink">
    <!-- Generator: Sketch 50.2 (55047) - http://www.bohemiancoding.com/sketch -->
    <title>g8426-7-4</title>
    <desc>Created with Sketch.</desc>
    <defs></defs>
    <g id="Page-1" stroke="none" stroke-width="1" fill="none" fill-rule="evenodd">
        <g id="Color_52_Faces_v.2.0" transform="translate(-528.000000, -3120.000000)" fill-rule="nonzero">
            <g id="g8426-7-4" transform="translate(528.154630, 3120.749208)">
                <rect id="rect6784-5-9" stroke="#000000" stroke-width="0.99673417" fill="#FFFFFF" x="0.815863089" y="0.589907033" width="222.232247" height="310.813662" rx="10.677567"></rect>
                <path d="M17.9563151,50.4033295 C13.6649402,55.867934 9.07332101,59.012603 8.99706282,63.2759124 C8.97117883,64.6564324 9.80733098,67.0028729 12.4255952,67.4520016 C14.1242813,67.7420409 16.4629985,66.5143904 16.5118794,64.0202937 C16.5019241,63.5237371 17.1006405,63.5366457 17.0950655,64.2170424 C17.0154224,66.1843694 16.31765,68.4748693 15.1455039,70.3393563 C17.0194046,70.3393563 18.8932157,70.3393563 20.7671164,70.3393563 C19.5949702,68.4748693 18.8974965,66.1843694 18.8175548,64.2170424 C18.8075994,63.5366457 19.4082073,63.5237371 19.4007408,64.0202937 C19.4495222,66.5143904 21.788339,67.7420409 23.487025,67.4520016 C26.1052893,67.0028729 26.9411428,64.6564324 26.9155574,63.2759124 C26.838901,59.012603 22.2475805,55.867934 17.9563151,50.4033295 Z" id="path6816-2-4" fill="#000000"></path>
                <path d="M205.908365,261.590287 C201.617,256.125682 197.025381,252.981013 196.949123,248.717704 C196.923239,247.337184 197.759391,244.990743 200.377655,244.541614 C202.076341,244.251575 204.415058,245.479226 204.463939,247.973322 C204.453984,248.469879 205.0527,248.45697 205.047125,247.776574 C204.967482,245.809247 204.26971,243.518747 203.097564,241.65426 C204.971464,241.65426 206.845266,241.65426 208.719166,241.65426 C207.54702,243.518747 206.849546,245.809247 206.769605,247.776574 C206.759649,248.45697 207.360257,248.469879 207.352791,247.973322 C207.401572,245.479226 209.740389,244.251575 211.439075,244.541614 C214.057339,244.990743 214.893193,247.337184 214.867607,248.717704 C214.790951,252.981013 210.19963,256.125682 205.908365,261.590287 Z" id="path6820-0-2" fill="#000000"></path>
                <path d="M111.931992,33.1801973 C102.74716,46.2952321 92.9195105,53.8424636 92.7562423,64.0743901 C92.7014877,67.3876581 94.4905686,73.0191072 100.094451,74.0970083 C103.730154,74.7931046 108.735818,71.8467492 108.840349,65.8609173 C108.824421,64.6691915 110.1006,64.7001621 110.088654,66.333122 C109.917421,71.0546909 108.424712,76.5518908 105.915957,81.0266616 C109.92668,81.0266616 113.937303,81.0266616 117.948026,81.0266616 C115.439271,76.5518908 113.946562,71.0546909 113.775329,66.333122 C113.763383,64.7001621 115.039563,64.6691915 115.023634,65.8609173 C115.128166,71.8467492 120.133829,74.7931046 123.769533,74.0970083 C129.373415,73.0191072 131.162495,67.3876581 131.107741,64.0743901 C130.944473,53.8424636 121.116823,46.2952321 111.931992,33.1801973 Z" id="path6828-8-3" fill="#000000"></path>
                <path d="M111.931992,278.813289 C102.74716,265.698254 92.9195105,258.151023 92.7562423,247.919096 C92.7014877,244.605828 94.4905686,238.974379 100.094451,237.896478 C103.730154,237.200382 108.735818,240.146737 108.840349,246.132569 C108.824421,247.324295 110.1006,247.293324 110.088654,245.660364 C109.917421,240.938796 108.424712,235.441596 105.915957,230.966825 C109.92668,230.966825 113.937303,230.966825 117.948026,230.966825 C115.439271,235.441596 113.946562,240.938796 113.775329,245.660364 C113.763383,247.293324 115.039563,247.324295 115.023634,246.132569 C115.128166,240.146737 120.133829,237.200382 123.769533,237.896478 C129.373415,238.974379 131.162495,244.605828 131.107741,247.919096 C130.944473,258.151023 121.116823,265.698254 111.931992,278.813289 Z" id="path6842-0-7" fill="#000000"></path>
                <path d="M111.931992,132.073506 C102.74716,145.188541 92.9195105,152.735772 92.7562423,162.967699 C92.7014877,166.280967 94.4905686,171.912416 100.094451,172.990317 C103.730154,173.686413 108.735818,170.740058 108.840349,164.754226 C108.824421,163.5625 110.1006,163.593471 110.088654,165.226431 C109.917421,169.948 108.424712,175.4452 105.915957,179.91997 C109.92668,179.91997 113.937303,179.91997 117.948026,179.91997 C115.439271,175.4452 113.946562,169.948 113.775329,165.226431 C113.763383,163.593471 115.039563,163.5625 115.023634,164.754226 C115.128166,170.740058 120.133829,173.686413 123.769533,172.990317 C129.373415,171.912416 131.162495,166.280967 131.107741,162.967699 C130.944473,152.735772 121.116823,145.188541 111.931992,132.073506 Z" id="path6844-7-0" fill="#000000"></path>
                <path d="M7.29262256,40.0672871 L9.82188574,38.2046641 C12.0169469,41.7835797 14.4718434,44.1408155 18.2272009,43.7362138 C23.8615463,43.3485578 26.1961819,37.4346351 25.0173656,32.9786341 C23.8769772,28.9808626 19.2114891,27.0334118 15.502225,29.1648721 C14.6267491,29.6699514 13.7820353,30.0824278 13.6168756,30.0824278 C13.2278195,30.0824278 12.3471668,28.3282568 12.4675273,27.7930741 C14.956969,24.1528553 21.0021628,17.7756194 21.0021628,17.7756194 L11.5574067,17.7756194 L11.5574067,22.0462154 L7.93265378,22.0462154 L7.93265378,14.3834047 L26.3920041,14.3834047 L26.3920041,16.9833617 C26.3920041,16.9833617 21.4462722,22.1192809 19.8117983,24.9320549 C23.8372552,25.0794818 27.0819118,27.6337853 28.246691,31.6721265 C28.9263446,33.7983038 28.62171,38.6614982 27.7320975,40.7576717 C26.2461579,44.2517595 22.1873505,47.0866625 18.4768818,47.2498388 C12.2473143,47.6687944 8.94252726,43.2989171 7.29262256,40.0672871 Z" id="path17-9-11-4" fill="#000000"></path>
                <path d="M216.56918,271.926329 L214.039917,273.788952 C211.844856,270.210036 209.38996,267.852801 205.634592,268.257402 C200.000247,268.645058 197.665611,274.558981 198.844427,279.014982 C199.984816,283.012754 204.650304,284.960204 208.359578,282.828744 C209.235054,282.323665 210.079768,281.911188 210.244927,281.911188 C210.633984,281.911188 211.514636,283.665359 211.394276,284.200542 C208.904834,287.840761 202.85963,294.217997 202.85963,294.217997 L212.304396,294.217997 L212.304396,289.947401 L215.929149,289.947401 L215.929149,297.610211 L197.469789,297.610211 L197.469789,295.010254 C197.469789,295.010254 202.415521,289.874335 204.049995,287.061561 C200.024538,286.914134 196.779881,284.359831 195.615102,280.32149 C194.935448,278.195312 195.240083,273.332118 196.129696,271.235944 C197.615635,267.741857 201.674443,264.906954 205.384911,264.743777 C211.614489,264.324822 214.919276,268.694699 216.56918,271.926329 Z" id="path17-9-1-0-8" fill="#000000"></path>
            </g>
        </g>
    </g>
</svg>