<?xml version="1.0" encoding="UTF-8"?>
<svg width="225px" height="313px" viewBox="0 0 225 313" version="1.1" xmlns="http://www.w3.org/2000/svg" xmlns:xlink="http://www.w3.org/1999/xlink">
    <!-- Generator: Sketch 50.2 (55047) - http://www.bohemiancoding.com/sketch -->
    <title>g8526-6-2</title>
    <desc>Created with Sketch.</desc>
    <defs></defs>
    <g id="Page-1" stroke="none" stroke-width="1" fill="none" fill-rule="evenodd">
        <g id="Color_52_Faces_v.2.0" transform="translate(-2107.000000, -3120.000000)" fill-rule="nonzero">
            <g id="g8526-6-2" transform="translate(2107.889231, 3120.749208)">
                <rect id="rect7195-8-7" stroke="#000000" stroke-width="0.99673417" fill="#FFFFFF" x="0.451376811" y="0.589907033" width="222.232247" height="310.813662" rx="10.677567"></rect>
                <path d="M60.0321204,33.1801973 C50.8472892,46.2952321 41.0196393,53.8424636 40.8563711,64.0743901 C40.8016165,67.3876581 42.5906974,73.0191072 48.1945793,74.0970083 C51.8302831,74.7931046 56.8359465,71.8467492 56.9404779,65.8609173 C56.9245493,64.6691915 58.2007291,64.7001621 58.1887827,66.333122 C58.0175502,71.0546909 56.5248409,76.5518908 54.0160858,81.0266616 C58.0268087,81.0266616 62.037432,81.0266616 66.0481549,81.0266616 C63.5393998,76.5518908 62.0466905,71.0546909 61.875458,66.333122 C61.8635116,64.7001621 63.1396914,64.6691915 63.1237628,65.8609173 C63.2282943,71.8467492 68.2339576,74.7931046 71.8696614,74.0970083 C77.4735434,73.0191072 79.2626242,67.3876581 79.2078697,64.0743901 C79.0446015,53.8424636 69.2169516,46.2952321 60.0321204,33.1801973 Z" id="path7225-5-2" fill="#000000"></path>
                <path d="M17.5918487,50.4033295 C13.3004838,55.867934 8.7088646,59.012603 8.6326064,63.2759124 C8.60672242,64.6564324 9.44287457,67.0028729 12.0611388,67.4520016 C13.7598249,67.7420409 16.0985421,66.5143904 16.147423,64.0202937 C16.1374677,63.5237371 16.7361841,63.5366457 16.730609,64.2170424 C16.650966,66.1843694 15.9531936,68.4748693 14.7810475,70.3393563 C16.6549482,70.3393563 18.5287493,70.3393563 20.40265,70.3393563 C19.2305039,68.4748693 18.5330301,66.1843694 18.4530884,64.2170424 C18.4431331,63.5366457 19.043741,63.5237371 19.0362744,64.0202937 C19.0850558,66.5143904 21.4238726,67.7420409 23.1225587,67.4520016 C25.7408229,67.0028729 26.5766764,64.6564324 26.5510911,63.2759124 C26.4744347,59.012603 21.8831142,55.867934 17.5918487,50.4033295 Z" id="path7227-2-8" fill="#000000"></path>
                <path d="M60.0321204,212.88441 C50.8472892,199.769375 41.0196393,192.222144 40.8563711,181.990217 C40.8016165,178.676949 42.5906974,173.0455 48.1945793,171.967599 C51.8302831,171.271503 56.8359465,174.217858 56.9404779,180.20369 C56.9245493,181.395416 58.2007291,181.364445 58.1887827,179.731485 C58.0175502,175.009916 56.5248409,169.512717 54.0160858,165.037946 C58.0268087,165.037946 62.037432,165.037946 66.0481549,165.037946 C63.5393998,169.512717 62.0466905,175.009916 61.875458,179.731485 C61.8635116,181.364445 63.1396914,181.395416 63.1237628,180.20369 C63.2282943,174.217858 68.2339576,171.271503 71.8696614,171.967599 C77.4735434,173.0455 79.2626242,178.676949 79.2078697,181.990217 C79.0446015,192.222144 69.2169516,199.769375 60.0321204,212.88441 Z" id="path7229-4-8" fill="#000000"></path>
                <path d="M205.543899,261.590287 C201.252534,256.125682 196.660914,252.981013 196.584656,248.717704 C196.558772,247.337184 197.394924,244.990743 200.013189,244.541614 C201.711875,244.251575 204.050592,245.479226 204.099473,247.973322 C204.089518,248.469879 204.688234,248.45697 204.682659,247.776574 C204.603016,245.809247 203.905243,243.518747 202.733097,241.65426 C204.606998,241.65426 206.480799,241.65426 208.3547,241.65426 C207.182554,243.518747 206.48508,245.809247 206.405138,247.776574 C206.395183,248.45697 206.995791,248.469879 206.988324,247.973322 C207.037106,245.479226 209.375922,244.251575 211.074609,244.541614 C213.692873,244.990743 214.528726,247.337184 214.503141,248.717704 C214.426485,252.981013 209.835164,256.125682 205.543899,261.590287 Z" id="path7231-7-8" fill="#000000"></path>
                <path d="M163.10293,33.1801973 C153.918099,46.2952321 144.090449,53.8424636 143.927181,64.0743901 C143.872426,67.3876581 145.661507,73.0191072 151.265389,74.0970083 C154.901093,74.7931046 159.906756,71.8467492 160.011288,65.8609173 C159.995359,64.6691915 161.271539,64.7001621 161.259592,66.333122 C161.08836,71.0546909 159.595651,76.5518908 157.086896,81.0266616 C161.097618,81.0266616 165.108242,81.0266616 169.118965,81.0266616 C166.61021,76.5518908 165.1175,71.0546909 164.946268,66.333122 C164.934321,64.7001621 166.210501,64.6691915 166.194573,65.8609173 C166.299104,71.8467492 171.304767,74.7931046 174.940471,74.0970083 C180.544353,73.0191072 182.333434,67.3876581 182.278679,64.0743901 C182.115411,53.8424636 172.287761,46.2952321 163.10293,33.1801973 Z" id="path7233-8-9" fill="#000000"></path>
                <path d="M60.0321204,99.1090665 C50.8472892,112.224101 41.0196393,119.771333 40.8563711,130.003259 C40.8016165,133.316527 42.5906974,138.947976 48.1945793,140.025878 C51.8302831,140.721974 56.8359465,137.775618 56.9404779,131.789787 C56.9245493,130.598061 58.2007291,130.629031 58.1887827,132.261991 C58.0175502,136.98356 56.5248409,142.48076 54.0160858,146.955531 C58.0268087,146.955531 62.037432,146.955531 66.0481549,146.955531 C63.5393998,142.48076 62.0466905,136.98356 61.875458,132.261991 C61.8635116,130.629031 63.1396914,130.598061 63.1237628,131.789787 C63.2282943,137.775618 68.2339576,140.721974 71.8696614,140.025878 C77.4735434,138.947976 79.2626242,133.316527 79.2078697,130.003259 C79.0446015,119.771333 69.2169516,112.224101 60.0321204,99.1090665 Z" id="path7235-9-4" fill="#000000"></path>
                <path d="M163.10293,99.1090665 C153.918099,112.224101 144.090449,119.771333 143.927181,130.003259 C143.872426,133.316527 145.661507,138.947976 151.265389,140.025878 C154.901093,140.721974 159.906756,137.775618 160.011288,131.789787 C159.995359,130.598061 161.271539,130.629031 161.259592,132.261991 C161.08836,136.98356 159.595651,142.48076 157.086896,146.955531 C161.097618,146.955531 165.108242,146.955531 169.118965,146.955531 C166.61021,142.48076 165.1175,136.98356 164.946268,132.261991 C164.934321,130.629031 166.210501,130.598061 166.194573,131.789787 C166.299104,137.775618 171.304767,140.721974 174.940471,140.025878 C180.544353,138.947976 182.333434,133.316527 182.278679,130.003259 C182.115411,119.771333 172.287761,112.224101 163.10293,99.1090665 Z" id="path7241-7-2" fill="#000000"></path>
                <path d="M60.0321204,278.813289 C50.8472892,265.698254 41.0196393,258.151023 40.8563711,247.919096 C40.8016165,244.605828 42.5906974,238.974379 48.1945793,237.896478 C51.8302831,237.200382 56.8359465,240.146737 56.9404779,246.132569 C56.9245493,247.324295 58.2007291,247.293324 58.1887827,245.660364 C58.0175502,240.938796 56.5248409,235.441596 54.0160858,230.966825 C58.0268087,230.966825 62.037432,230.966825 66.0481549,230.966825 C63.5393998,235.441596 62.0466905,240.938796 61.875458,245.660364 C61.8635116,247.293324 63.1396914,247.324295 63.1237628,246.132569 C63.2282943,240.146737 68.2339576,237.200382 71.8696614,237.896478 C77.4735434,238.974379 79.2626242,244.605828 79.2078697,247.919096 C79.0446015,258.151023 69.2169516,265.698254 60.0321204,278.813289 Z" id="path7245-1-6" fill="#000000"></path>
                <path d="M163.10293,278.813289 C153.918099,265.698254 144.090449,258.151023 143.927181,247.919096 C143.872426,244.605828 145.661507,238.974379 151.265389,237.896478 C154.901093,237.200382 159.906756,240.146737 160.011288,246.132569 C159.995359,247.324295 161.271539,247.293324 161.259592,245.660364 C161.08836,240.938796 159.595651,235.441596 157.086896,230.966825 C161.097618,230.966825 165.108242,230.966825 169.118965,230.966825 C166.61021,235.441596 165.1175,240.938796 164.946268,245.660364 C164.934321,247.293324 166.210501,247.324295 166.194573,246.132569 C166.299104,240.146737 171.304767,237.200382 174.940471,237.896478 C180.544353,238.974379 182.333434,244.605828 182.278679,247.919096 C182.115411,258.151023 172.287761,265.698254 163.10293,278.813289 Z" id="path7247-0-6" fill="#000000"></path>
                <path d="M163.10293,212.88441 C153.918099,199.769385 144.090449,192.222154 143.927181,181.990227 C143.872426,178.676959 145.661507,173.04551 151.265389,171.967609 C154.901093,171.271513 159.906756,174.217868 160.011288,180.2037 C159.995359,181.395426 161.271539,181.364455 161.259592,179.731495 C161.08836,175.009926 159.595651,169.512717 157.086896,165.037946 C161.097618,165.037946 165.108242,165.037946 169.118965,165.037946 C166.61021,169.512717 165.1175,175.009926 164.946268,179.731495 C164.934321,181.364455 166.210501,181.395426 166.194573,180.2037 C166.299104,174.217868 171.304767,171.271513 174.940471,171.967609 C180.544353,173.04551 182.333434,178.676959 182.278679,181.990227 C182.115411,192.222154 172.287761,199.769385 163.10293,212.88441 Z" id="path7251-3-6" fill="#000000"></path>
                <path d="M111.567525,132.073506 C102.382694,145.188541 92.5550441,152.735772 92.3917759,162.967699 C92.3370214,166.280967 94.1261022,171.912416 99.7299842,172.990317 C103.365688,173.686413 108.371351,170.740058 108.475883,164.754226 C108.459954,163.5625 109.736134,163.593471 109.724188,165.226431 C109.552955,169.948 108.060246,175.4452 105.551491,179.91997 C109.562214,179.91997 113.572837,179.91997 117.58356,179.91997 C115.074805,175.4452 113.582095,169.948 113.410863,165.226431 C113.398916,163.593471 114.675096,163.5625 114.659168,164.754226 C114.763699,170.740058 119.769362,173.686413 123.405066,172.990317 C129.008948,171.912416 130.798029,166.280967 130.743275,162.967699 C130.580006,152.735772 120.752356,145.188541 111.567525,132.073506 Z" id="path7255-7-8" fill="#000000"></path>
                <path d="M8.41318989,40.9367371 L11.4185192,39.9826985 C12.5538305,43.015965 14.8436668,43.9139834 17.2678012,43.7195074 C21.617206,43.3723215 23.0621295,38.5038441 23.3873717,34.200553 C21.6926678,36.0004772 19.1468787,36.9140456 16.9773033,36.8214428 C10.042487,36.4494365 8.26724405,30.8918703 8.20323098,25.0745377 C8.01378015,20.1694777 10.0387039,16.6166783 13.5125333,14.9852136 C15.3530835,14.158965 19.5665974,14.158965 21.4175012,15.1379235 C25.666954,17.3828198 27.2425916,21.2606761 26.9570714,30.5198641 C26.9570714,38.1370212 25.3417118,47.0086528 17.1871627,47.2018329 C12.4782691,47.8544387 8.89821587,44.1841165 8.41309033,40.9367371 L8.41318989,40.9367371 Z M20.2181769,32.5899214 C21.6325373,31.6931989 22.4286689,30.8514002 23.0635233,29.591842 C23.583194,28.5567635 23.763685,28.0163975 23.6138565,25.8758663 C23.2284839,20.3534872 20.3385374,17.2184473 16.1440382,17.8396539 C13.8042259,18.1921229 12.5243625,19.5025179 11.7896557,21.9393981 C10.4341315,26.4463357 12.1544207,31.7180193 15.3748857,32.931924 C16.8236918,33.4826567 19.0636517,33.3247634 20.2180773,32.5899214 L20.2181769,32.5899214 Z" id="path29-33-4-4" fill="#000000"></path>
                <path d="M214.719471,271.056909 L211.714142,272.010947 C210.578731,268.977681 208.288994,268.079663 205.86486,268.274139 C201.515455,268.621325 200.070532,273.489802 199.745289,277.793093 C201.439993,275.993169 203.985882,275.0796 206.155358,275.172203 C213.090174,275.54421 214.865417,281.101776 214.92943,286.919108 C215.118881,291.824168 213.093957,295.376968 209.620128,297.008432 C207.779578,297.834681 203.566064,297.834681 201.71526,296.855722 C197.465707,294.610826 195.89007,290.73297 196.17559,281.473782 C196.17559,273.856625 197.790949,264.984993 205.945499,264.791813 C210.654392,264.139207 214.234445,267.80953 214.719571,271.056909 L214.719471,271.056909 Z M202.914484,279.403725 C201.500024,280.300447 200.703893,281.142246 200.069138,282.401804 C199.549467,283.436883 199.368877,283.977249 199.518805,286.11778 C199.904177,291.640159 202.794124,294.775199 206.988623,294.153992 C209.328435,293.801523 210.608299,292.491128 211.343005,290.054248 C212.69853,285.54731 210.97824,280.275627 207.757875,279.061722 C206.308969,278.510989 204.069009,278.668883 202.914584,279.403725 L202.914484,279.403725 Z" id="path29-33-3-8-6" fill="#000000"></path>
            </g>
        </g>
    </g>
</svg>